<?xml version="1.0" encoding="utf-8"?>
<!-- Generator: Adobe Illustrator 24.0.3, SVG Export Plug-In . SVG Version: 6.00 Build 0)  -->
<svg version="1.1" id="Layer_1" xmlns="http://www.w3.org/2000/svg" xmlns:xlink="http://www.w3.org/1999/xlink" x="0px" y="0px" width="11.69in" height="23.38in"
	 viewBox="0 0 841.7 595.4" style="enable-background:new 0 0 841.7 595.4;" xml:space="preserve">
<style type="text/css">
	.st0{fill:#1226AA;}
	.st1{clip-path:url(#SVGID_2_);}
	.st2{fill:none;stroke:#FFFFFF;stroke-width:0.7085;stroke-linejoin:bevel;stroke-miterlimit:9.9975;}
	.st3{fill:#FFFFFF;}
</style>
<g id="Layer_1_1_">
	<g>
		<rect y="538.8" class="st0" width="841.7" height="56.7"/>
		<g>
			<g>
				<defs>
					<rect id="SVGID_1_" y="538.8" width="841.7" height="56.7"/>
				</defs>
				<clipPath id="SVGID_2_">
					<use xlink:href="#SVGID_1_"  style="overflow:visible;"/>
				</clipPath>
				<g class="st1">
					<g>
						<polygon class="st2" points="-5.8,464.5 32,464.5 13.1,497.3 						"/>
						<polygon class="st2" points="50.9,497.3 13.1,497.3 32,464.5 						"/>
						<polygon class="st2" points="32,464.5 69.8,464.5 50.9,497.3 						"/>
						<polygon class="st2" points="88.7,497.3 50.9,497.3 69.8,464.5 						"/>
						<polygon class="st2" points="69.8,464.5 107.5,464.5 88.7,497.3 						"/>
						<polygon class="st2" points="126.4,497.3 88.7,497.3 107.5,464.5 						"/>
						<polygon class="st2" points="107.5,464.5 145.3,464.5 126.4,497.3 						"/>
						<polygon class="st2" points="164.2,497.3 126.4,497.3 145.3,464.5 						"/>
						<polygon class="st2" points="145.3,464.5 183.1,464.5 164.2,497.3 						"/>
						<polygon class="st2" points="202,497.3 164.2,497.3 183.1,464.5 						"/>
						<polygon class="st2" points="183.1,464.5 220.9,464.5 202,497.3 						"/>
						<polygon class="st2" points="239.8,497.3 202,497.3 220.9,464.5 						"/>
						<polygon class="st2" points="220.9,464.5 258.7,464.5 239.8,497.3 						"/>
						<polygon class="st2" points="277.6,497.3 239.8,497.3 258.7,464.5 						"/>
						<polygon class="st2" points="258.7,464.5 296.5,464.5 277.6,497.3 						"/>
						<polygon class="st2" points="315.4,497.3 277.6,497.3 296.5,464.5 						"/>
						<polygon class="st2" points="-5.8,530 32,530 13.1,497.3 						"/>
						<polygon class="st2" points="50.9,497.3 13.1,497.3 32,530 						"/>
						<polygon class="st2" points="32,530 69.8,530 50.9,497.3 						"/>
						<polygon class="st2" points="88.7,497.3 50.9,497.3 69.8,530 						"/>
						<polygon class="st2" points="69.8,530 107.5,530 88.7,497.3 						"/>
						<polygon class="st2" points="126.4,497.3 88.7,497.3 107.5,530 						"/>
						<polygon class="st2" points="107.5,530 145.3,530 126.4,497.3 						"/>
						<polygon class="st2" points="164.2,497.3 126.4,497.3 145.3,530 						"/>
						<polygon class="st2" points="145.3,530 183.1,530 164.2,497.3 						"/>
						<polygon class="st2" points="202,497.3 164.2,497.3 183.1,530 						"/>
						<polygon class="st2" points="183.1,530 220.9,530 202,497.3 						"/>
						<polygon class="st2" points="239.8,497.3 202,497.3 220.9,530 						"/>
						<polygon class="st2" points="220.9,530 258.7,530 239.8,497.3 						"/>
						<polygon class="st2" points="277.6,497.3 239.8,497.3 258.7,530 						"/>
						<polygon class="st2" points="258.7,530 296.5,530 277.6,497.3 						"/>
						<polygon class="st2" points="315.4,497.3 277.6,497.3 296.5,530 						"/>
					</g>
					<g>
						<polygon class="st3" points="-5.8,464.5 32,464.5 13.1,497.3 						"/>
						<polygon class="st3" points="-5.8,530 32,530 13.1,497.3 						"/>
						<polygon class="st3" points="50.9,497.3 13.1,497.3 32,530 						"/>
						<polygon class="st3" points="32,530 69.8,530 50.9,497.3 						"/>
						<polygon class="st3" points="126.4,497.3 88.7,497.3 107.5,464.5 						"/>
						<polygon class="st3" points="107.5,464.5 145.3,464.5 126.4,497.3 						"/>
						<polygon class="st3" points="69.8,530 107.5,530 88.7,497.3 						"/>
						<polygon class="st3" points="126.4,497.3 88.7,497.3 107.5,530 						"/>
						<polygon class="st3" points="202,497.3 164.2,497.3 183.1,464.5 						"/>
						<polygon class="st3" points="183.1,464.5 220.9,464.5 202,497.3 						"/>
						<polygon class="st3" points="277.6,497.3 239.8,497.3 258.7,464.5 						"/>
						<polygon class="st3" points="183.1,530 220.9,530 202,497.3 						"/>
						<polygon class="st3" points="277.6,497.3 239.8,497.3 258.7,530 						"/>
					</g>
					<g>
						<polygon class="st2" points="-5.8,530 32,530 13.1,562.7 						"/>
						<polygon class="st2" points="50.9,562.7 13.1,562.7 32,530 						"/>
						<polygon class="st2" points="32,530 69.8,530 50.9,562.7 						"/>
						<polygon class="st2" points="88.7,562.7 50.9,562.7 69.8,530 						"/>
						<polygon class="st2" points="69.8,530 107.5,530 88.7,562.7 						"/>
						<polygon class="st2" points="126.4,562.7 88.7,562.7 107.5,530 						"/>
						<polygon class="st2" points="107.5,530 145.3,530 126.4,562.7 						"/>
						<polygon class="st2" points="164.2,562.7 126.4,562.7 145.3,530 						"/>
						<polygon class="st2" points="239.8,562.7 202,562.7 220.9,530 						"/>
						<polygon class="st2" points="220.9,530 258.7,530 239.8,562.7 						"/>
						<polygon class="st2" points="277.6,562.7 239.8,562.7 258.7,530 						"/>
						<polygon class="st2" points="258.7,530 296.5,530 277.6,562.7 						"/>
						<polygon class="st2" points="315.4,562.7 277.6,562.7 296.5,530 						"/>
						<polygon class="st2" points="-5.8,595.4 32,595.4 13.1,562.7 						"/>
						<polygon class="st2" points="50.9,562.7 13.1,562.7 32,595.4 						"/>
						<polygon class="st2" points="32,595.4 69.8,595.4 50.9,562.7 						"/>
						<polygon class="st2" points="88.7,562.7 50.9,562.7 69.8,595.4 						"/>
						<polygon class="st2" points="69.8,595.4 107.5,595.4 88.7,562.7 						"/>
						<polygon class="st2" points="126.4,562.7 88.7,562.7 107.5,595.4 						"/>
						<polygon class="st2" points="107.5,595.4 145.3,595.4 126.4,562.7 						"/>
						<polygon class="st2" points="164.2,562.7 126.4,562.7 145.3,595.4 						"/>
						<polygon class="st2" points="145.3,595.4 183.1,595.4 164.2,562.7 						"/>
						<polygon class="st2" points="202,562.7 164.2,562.7 183.1,595.4 						"/>
						<polygon class="st2" points="183.1,595.4 220.9,595.4 202,562.7 						"/>
						<polygon class="st2" points="239.8,562.7 202,562.7 220.9,595.4 						"/>
						<polygon class="st2" points="220.9,595.4 258.7,595.4 239.8,562.7 						"/>
						<polygon class="st2" points="277.6,562.7 239.8,562.7 258.7,595.4 						"/>
						<polygon class="st2" points="258.7,595.4 296.5,595.4 277.6,562.7 						"/>
						<polygon class="st2" points="315.4,562.7 277.6,562.7 296.5,595.4 						"/>
					</g>
					<g>
						<polygon class="st3" points="107.5,530 145.3,530 126.4,562.7 						"/>
						<polygon class="st3" points="239.8,562.7 202,562.7 220.9,530 						"/>
						<polygon class="st3" points="220.9,530 258.7,530 239.8,562.7 						"/>
						<polygon class="st3" points="315.4,562.7 277.6,562.7 296.5,530 						"/>
						<polygon class="st3" points="-5.8,595.4 32,595.4 13.1,562.7 						"/>
						<polygon class="st3" points="32,595.4 69.8,595.4 50.9,562.7 						"/>
						<polygon class="st3" points="107.5,595.4 145.3,595.4 126.4,562.7 						"/>
						<polygon class="st3" points="164.2,562.7 126.4,562.7 145.3,595.4 						"/>
						<polygon class="st3" points="183.1,595.4 220.9,595.4 202,562.7 						"/>
						<polygon class="st3" points="239.8,562.7 202,562.7 220.9,595.4 						"/>
						<polygon class="st3" points="277.6,562.7 239.8,562.7 258.7,595.4 						"/>
					</g>
					<g>
						<polygon class="st2" points="296.5,464.5 334.3,464.5 315.4,497.3 						"/>
						<polygon class="st2" points="353.2,497.3 315.4,497.3 334.3,464.5 						"/>
						<polygon class="st2" points="334.3,464.5 372,464.5 353.2,497.3 						"/>
						<polygon class="st2" points="390.9,497.3 353.2,497.3 372,464.5 						"/>
						<polygon class="st2" points="372,464.5 409.8,464.5 390.9,497.3 						"/>
						<polygon class="st2" points="428.7,497.3 390.9,497.3 409.8,464.5 						"/>
						<polygon class="st2" points="409.8,464.5 447.6,464.5 428.7,497.3 						"/>
						<polygon class="st2" points="466.5,497.3 428.7,497.3 447.6,464.5 						"/>
						<polygon class="st2" points="447.6,464.5 485.4,464.5 466.5,497.3 						"/>
						<polygon class="st2" points="504.3,497.3 466.5,497.3 485.4,464.5 						"/>
						<polygon class="st2" points="485.4,464.5 523.2,464.5 504.3,497.3 						"/>
						<polygon class="st2" points="542.1,497.3 504.3,497.3 523.2,464.5 						"/>
						<polygon class="st2" points="523.2,464.5 561,464.5 542.1,497.3 						"/>
						<polygon class="st2" points="579.9,497.3 542.1,497.3 561,464.5 						"/>
						<polygon class="st2" points="561,464.5 598.8,464.5 579.9,497.3 						"/>
						<polygon class="st2" points="617.7,497.3 579.9,497.3 598.8,464.5 						"/>
						<polygon class="st2" points="296.5,530 334.3,530 315.4,497.3 						"/>
						<polygon class="st2" points="353.2,497.3 315.4,497.3 334.3,530 						"/>
						<polygon class="st2" points="334.3,530 372,530 353.2,497.3 						"/>
						<polygon class="st2" points="390.9,497.3 353.2,497.3 372,530 						"/>
						<polygon class="st2" points="372,530 409.8,530 390.9,497.3 						"/>
						<polygon class="st2" points="428.7,497.3 390.9,497.3 409.8,530 						"/>
						<polygon class="st2" points="409.8,530 447.6,530 428.7,497.3 						"/>
						<polygon class="st2" points="466.5,497.3 428.7,497.3 447.6,530 						"/>
						<polygon class="st2" points="447.6,530 485.4,530 466.5,497.3 						"/>
						<polygon class="st2" points="504.3,497.3 466.5,497.3 485.4,530 						"/>
						<polygon class="st2" points="485.4,530 523.2,530 504.3,497.3 						"/>
						<polygon class="st2" points="542.1,497.3 504.3,497.3 523.2,530 						"/>
						<polygon class="st2" points="523.2,530 561,530 542.1,497.3 						"/>
						<polygon class="st2" points="579.9,497.3 542.1,497.3 561,530 						"/>
						<polygon class="st2" points="561,530 598.8,530 579.9,497.3 						"/>
						<polygon class="st2" points="617.7,497.3 579.9,497.3 598.8,530 						"/>
					</g>
					<g>
						<polygon class="st2" points="296.5,530 334.3,530 315.4,562.7 						"/>
						<polygon class="st2" points="353.2,562.7 315.4,562.7 334.3,530 						"/>
						<polygon class="st2" points="334.3,530 372,530 353.2,562.7 						"/>
						<polygon class="st2" points="390.9,562.7 353.2,562.7 372,530 						"/>
						<polygon class="st2" points="372,530 409.8,530 390.9,562.7 						"/>
						<polygon class="st2" points="428.7,562.7 390.9,562.7 409.8,530 						"/>
						<polygon class="st2" points="409.8,530 447.6,530 428.7,562.7 						"/>
						<polygon class="st2" points="466.5,562.7 428.7,562.7 447.6,530 						"/>
						<polygon class="st2" points="447.6,530 485.4,530 466.5,562.7 						"/>
						<polygon class="st2" points="504.3,562.7 466.5,562.7 485.4,530 						"/>
						<polygon class="st2" points="485.4,530 523.2,530 504.3,562.7 						"/>
						<polygon class="st2" points="542.1,562.7 504.3,562.7 523.2,530 						"/>
						<polygon class="st2" points="523.2,530 561,530 542.1,562.7 						"/>
						<polygon class="st2" points="579.9,562.7 542.1,562.7 561,530 						"/>
						<polygon class="st2" points="561,530 598.8,530 579.9,562.7 						"/>
						<polygon class="st2" points="617.7,562.7 579.9,562.7 598.8,530 						"/>
						<polygon class="st2" points="296.5,595.4 334.3,595.4 315.4,562.7 						"/>
						<polygon class="st2" points="353.2,562.7 315.4,562.7 334.3,595.4 						"/>
						<polygon class="st2" points="334.3,595.4 372,595.4 353.2,562.7 						"/>
						<polygon class="st2" points="390.9,562.7 353.2,562.7 372,595.4 						"/>
						<polygon class="st2" points="372,595.4 409.8,595.4 390.9,562.7 						"/>
						<polygon class="st2" points="428.7,562.7 390.9,562.7 409.8,595.4 						"/>
						<polygon class="st2" points="409.8,595.4 447.6,595.4 428.7,562.7 						"/>
						<polygon class="st2" points="466.5,562.7 428.7,562.7 447.6,595.4 						"/>
						<polygon class="st2" points="447.6,595.4 485.4,595.4 466.5,562.7 						"/>
						<polygon class="st2" points="504.3,562.7 466.5,562.7 485.4,595.4 						"/>
						<polygon class="st2" points="485.4,595.4 523.2,595.4 504.3,562.7 						"/>
						<polygon class="st2" points="542.1,562.7 504.3,562.7 523.2,595.4 						"/>
						<polygon class="st2" points="523.2,595.4 561,595.4 542.1,562.7 						"/>
						<polygon class="st2" points="579.9,562.7 542.1,562.7 561,595.4 						"/>
						<polygon class="st2" points="561,595.4 598.8,595.4 579.9,562.7 						"/>
						<polygon class="st2" points="617.7,562.7 579.9,562.7 598.8,595.4 						"/>
					</g>
					<g>
						<polygon class="st3" points="296.5,464.5 334.3,464.5 315.4,497.3 						"/>
						<polygon class="st3" points="390.9,497.3 353.2,497.3 372,464.5 						"/>
						<polygon class="st3" points="428.7,497.3 390.9,497.3 409.8,464.5 						"/>
						<polygon class="st3" points="409.8,464.5 447.6,464.5 428.7,497.3 						"/>
						<polygon class="st3" points="579.9,497.3 542.1,497.3 561,464.5 						"/>
						<polygon class="st3" points="296.5,530 334.3,530 315.4,497.3 						"/>
						<polygon class="st3" points="353.2,497.3 315.4,497.3 334.3,530 						"/>
						<polygon class="st3" points="372,530 409.8,530 390.9,497.3 						"/>
						<polygon class="st3" points="428.7,497.3 390.9,497.3 409.8,530 						"/>
						<polygon class="st3" points="504.3,497.3 466.5,497.3 485.4,530 						"/>
						<polygon class="st3" points="523.2,530 561,530 542.1,497.3 						"/>
						<polygon class="st3" points="579.9,497.3 542.1,497.3 561,530 						"/>
						<polygon class="st3" points="485.4,530 523.2,530 504.3,497.3 						"/>
					</g>
					<g>
						<polygon class="st3" points="296.5,530 334.3,530 315.4,562.7 						"/>
						<polygon class="st3" points="334.3,530 372,530 353.2,562.7 						"/>
						<polygon class="st3" points="390.9,562.7 353.2,562.7 372,530 						"/>
						<polygon class="st3" points="409.8,530 447.6,530 428.7,562.7 						"/>
						<polygon class="st3" points="542.1,562.7 504.3,562.7 523.2,530 						"/>
						<polygon class="st3" points="561,530 598.8,530 579.9,562.7 						"/>
						<polygon class="st3" points="372,595.4 409.8,595.4 390.9,562.7 						"/>
						<polygon class="st3" points="485.4,595.4 523.2,595.4 504.3,562.7 						"/>
						<polygon class="st3" points="542.1,562.7 504.3,562.7 523.2,595.4 						"/>
						<polygon class="st3" points="561,595.4 598.8,595.4 579.9,562.7 						"/>
					</g>
				</g>
				<g class="st1">
					<g>
						<polygon class="st2" points="1222.2,497.3 1203.3,464.5 1241.1,464.5 						"/>
						<polygon class="st2" points="1203.3,464.5 1222.2,497.3 1184.4,497.3 						"/>
						<polygon class="st2" points="1184.4,497.3 1165.6,464.5 1203.3,464.5 						"/>
						<polygon class="st2" points="1165.6,464.5 1184.4,497.3 1146.7,497.3 						"/>
						<polygon class="st2" points="1146.7,497.3 1127.8,464.5 1165.6,464.5 						"/>
						<polygon class="st2" points="1127.8,464.5 1146.7,497.3 1108.9,497.3 						"/>
						<polygon class="st2" points="1108.9,497.3 1090,464.5 1127.8,464.5 						"/>
						<polygon class="st2" points="1090,464.5 1108.9,497.3 1071.1,497.3 						"/>
						<polygon class="st2" points="1071.1,497.3 1052.2,464.5 1090,464.5 						"/>
						<polygon class="st2" points="1052.2,464.5 1071.1,497.3 1033.3,497.3 						"/>
						<polygon class="st2" points="1033.3,497.3 1014.4,464.5 1052.2,464.5 						"/>
						<polygon class="st2" points="1014.4,464.5 1033.3,497.3 995.5,497.3 						"/>
						<polygon class="st2" points="995.5,497.3 976.6,464.5 1014.4,464.5 						"/>
						<polygon class="st2" points="976.6,464.5 995.5,497.3 957.7,497.3 						"/>
						<polygon class="st2" points="957.7,497.3 938.8,464.5 976.6,464.5 						"/>
						<polygon class="st2" points="938.8,464.5 957.7,497.3 919.9,497.3 						"/>
						<polygon class="st2" points="1222.2,497.3 1203.3,530 1241.1,530 						"/>
						<polygon class="st2" points="1203.3,530 1222.2,497.3 1184.4,497.3 						"/>
						<polygon class="st2" points="1184.4,497.3 1165.6,530 1203.3,530 						"/>
						<polygon class="st2" points="1165.6,530 1184.4,497.3 1146.7,497.3 						"/>
						<polygon class="st2" points="1146.7,497.3 1127.8,530 1165.6,530 						"/>
						<polygon class="st2" points="1127.8,530 1146.7,497.3 1108.9,497.3 						"/>
						<polygon class="st2" points="1108.9,497.3 1090,530 1127.8,530 						"/>
						<polygon class="st2" points="1090,530 1108.9,497.3 1071.1,497.3 						"/>
						<polygon class="st2" points="1071.1,497.3 1052.2,530 1090,530 						"/>
						<polygon class="st2" points="1052.2,530 1071.1,497.3 1033.3,497.3 						"/>
						<polygon class="st2" points="1033.3,497.3 1014.4,530 1052.2,530 						"/>
						<polygon class="st2" points="1014.4,530 1033.3,497.3 995.5,497.3 						"/>
						<polygon class="st2" points="995.5,497.3 976.6,530 1014.4,530 						"/>
						<polygon class="st2" points="976.6,530 995.5,497.3 957.7,497.3 						"/>
						<polygon class="st2" points="957.7,497.3 938.8,530 976.6,530 						"/>
						<polygon class="st2" points="938.8,530 957.7,497.3 919.9,497.3 						"/>
					</g>
					<g>
						<polygon class="st3" points="1222.2,497.3 1203.3,464.5 1241.1,464.5 						"/>
						<polygon class="st3" points="1222.2,497.3 1203.3,530 1241.1,530 						"/>
						<polygon class="st3" points="1203.3,530 1222.2,497.3 1184.4,497.3 						"/>
						<polygon class="st3" points="1184.4,497.3 1165.6,530 1203.3,530 						"/>
						<polygon class="st3" points="1127.8,464.5 1146.7,497.3 1108.9,497.3 						"/>
						<polygon class="st3" points="1108.9,497.3 1090,464.5 1127.8,464.5 						"/>
						<polygon class="st3" points="1146.7,497.3 1127.8,530 1165.6,530 						"/>
						<polygon class="st3" points="1127.8,530 1146.7,497.3 1108.9,497.3 						"/>
						<polygon class="st3" points="1052.2,464.5 1071.1,497.3 1033.3,497.3 						"/>
						<polygon class="st3" points="1033.3,497.3 1014.4,464.5 1052.2,464.5 						"/>
						<polygon class="st3" points="976.6,464.5 995.5,497.3 957.7,497.3 						"/>
						<polygon class="st3" points="1033.3,497.3 1014.4,530 1052.2,530 						"/>
						<polygon class="st3" points="976.6,530 995.5,497.3 957.7,497.3 						"/>
					</g>
					<g>
						<polygon class="st2" points="1222.2,562.7 1203.3,530 1241.1,530 						"/>
						<polygon class="st2" points="1203.3,530 1222.2,562.7 1184.4,562.7 						"/>
						<polygon class="st2" points="1184.4,562.7 1165.6,530 1203.3,530 						"/>
						<polygon class="st2" points="1165.6,530 1184.4,562.7 1146.7,562.7 						"/>
						<polygon class="st2" points="1146.7,562.7 1127.8,530 1165.6,530 						"/>
						<polygon class="st2" points="1127.8,530 1146.7,562.7 1108.9,562.7 						"/>
						<polygon class="st2" points="1108.9,562.7 1090,530 1127.8,530 						"/>
						<polygon class="st2" points="1090,530 1108.9,562.7 1071.1,562.7 						"/>
						<polygon class="st2" points="1014.4,530 1033.3,562.7 995.5,562.7 						"/>
						<polygon class="st2" points="995.5,562.7 976.6,530 1014.4,530 						"/>
						<polygon class="st2" points="976.6,530 995.5,562.7 957.7,562.7 						"/>
						<polygon class="st2" points="957.7,562.7 938.8,530 976.6,530 						"/>
						<polygon class="st2" points="938.8,530 957.7,562.7 919.9,562.7 						"/>
						<polygon class="st2" points="1222.2,562.7 1203.3,595.4 1241.1,595.4 						"/>
						<polygon class="st2" points="1203.3,595.4 1222.2,562.7 1184.4,562.7 						"/>
						<polygon class="st2" points="1184.4,562.7 1165.6,595.4 1203.3,595.4 						"/>
						<polygon class="st2" points="1165.6,595.4 1184.4,562.7 1146.7,562.7 						"/>
						<polygon class="st2" points="1146.7,562.7 1127.8,595.4 1165.6,595.4 						"/>
						<polygon class="st2" points="1127.8,595.4 1146.7,562.7 1108.9,562.7 						"/>
						<polygon class="st2" points="1108.9,562.7 1090,595.4 1127.8,595.4 						"/>
						<polygon class="st2" points="1090,595.4 1108.9,562.7 1071.1,562.7 						"/>
						<polygon class="st2" points="1071.1,562.7 1052.2,595.4 1090,595.4 						"/>
						<polygon class="st2" points="1052.2,595.4 1071.1,562.7 1033.3,562.7 						"/>
						<polygon class="st2" points="1033.3,562.7 1014.4,595.4 1052.2,595.4 						"/>
						<polygon class="st2" points="1014.4,595.4 1033.3,562.7 995.5,562.7 						"/>
						<polygon class="st2" points="995.5,562.7 976.6,595.4 1014.4,595.4 						"/>
						<polygon class="st2" points="976.6,595.4 995.5,562.7 957.7,562.7 						"/>
						<polygon class="st2" points="957.7,562.7 938.8,595.4 976.6,595.4 						"/>
						<polygon class="st2" points="938.8,595.4 957.7,562.7 919.9,562.7 						"/>
					</g>
					<g>
						<polygon class="st3" points="1108.9,562.7 1090,530 1127.8,530 						"/>
						<polygon class="st3" points="1014.4,530 1033.3,562.7 995.5,562.7 						"/>
						<polygon class="st3" points="995.5,562.7 976.6,530 1014.4,530 						"/>
						<polygon class="st3" points="938.8,530 957.7,562.7 919.9,562.7 						"/>
						<polygon class="st3" points="1222.2,562.7 1203.3,595.4 1241.1,595.4 						"/>
						<polygon class="st3" points="1184.4,562.7 1165.6,595.4 1203.3,595.4 						"/>
						<polygon class="st3" points="1108.9,562.7 1090,595.4 1127.8,595.4 						"/>
						<polygon class="st3" points="1090,595.4 1108.9,562.7 1071.1,562.7 						"/>
						<polygon class="st3" points="1033.3,562.7 1014.4,595.4 1052.2,595.4 						"/>
						<polygon class="st3" points="976.6,595.4 995.5,562.7 957.7,562.7 						"/>
					</g>
					<g>
						<polygon class="st2" points="919.9,497.3 901.1,464.5 938.8,464.5 						"/>
						<polygon class="st2" points="901.1,464.5 919.9,497.3 882.2,497.3 						"/>
						<polygon class="st2" points="882.2,497.3 863.3,464.5 901.1,464.5 						"/>
						<polygon class="st2" points="863.3,464.5 882.2,497.3 844.4,497.3 						"/>
						<polygon class="st2" points="844.4,497.3 825.5,464.5 863.3,464.5 						"/>
						<polygon class="st2" points="825.5,464.5 844.4,497.3 806.6,497.3 						"/>
						<polygon class="st2" points="806.6,497.3 787.7,464.5 825.5,464.5 						"/>
						<polygon class="st2" points="787.7,464.5 806.6,497.3 768.8,497.3 						"/>
						<polygon class="st2" points="768.8,497.3 749.9,464.5 787.7,464.5 						"/>
						<polygon class="st2" points="749.9,464.5 768.8,497.3 731,497.3 						"/>
						<polygon class="st2" points="731,497.3 712.1,464.5 749.9,464.5 						"/>
						<polygon class="st2" points="712.1,464.5 731,497.3 693.2,497.3 						"/>
						<polygon class="st2" points="693.2,497.3 674.3,464.5 712.1,464.5 						"/>
						<polygon class="st2" points="674.3,464.5 693.2,497.3 655.4,497.3 						"/>
						<polygon class="st2" points="655.4,497.3 636.6,464.5 674.3,464.5 						"/>
						<polygon class="st2" points="636.6,464.5 655.4,497.3 617.7,497.3 						"/>
						<polygon class="st2" points="919.9,497.3 901.1,530 938.8,530 						"/>
						<polygon class="st2" points="901.1,530 919.9,497.3 882.2,497.3 						"/>
						<polygon class="st2" points="882.2,497.3 863.3,530 901.1,530 						"/>
						<polygon class="st2" points="863.3,530 882.2,497.3 844.4,497.3 						"/>
						<polygon class="st2" points="844.4,497.3 825.5,530 863.3,530 						"/>
						<polygon class="st2" points="825.5,530 844.4,497.3 806.6,497.3 						"/>
						<polygon class="st2" points="806.6,497.3 787.7,530 825.5,530 						"/>
						<polygon class="st2" points="787.7,530 806.6,497.3 768.8,497.3 						"/>
						<polygon class="st2" points="768.8,497.3 749.9,530 787.7,530 						"/>
						<polygon class="st2" points="749.9,530 768.8,497.3 731,497.3 						"/>
						<polygon class="st2" points="731,497.3 712.1,530 749.9,530 						"/>
						<polygon class="st2" points="712.1,530 731,497.3 693.2,497.3 						"/>
						<polygon class="st2" points="693.2,497.3 674.3,530 712.1,530 						"/>
						<polygon class="st2" points="674.3,530 693.2,497.3 655.4,497.3 						"/>
						<polygon class="st2" points="655.4,497.3 636.6,530 674.3,530 						"/>
						<polygon class="st2" points="636.6,530 655.4,497.3 617.7,497.3 						"/>
					</g>
					<g>
						<polygon class="st2" points="919.9,562.7 901.1,530 938.8,530 						"/>
						<polygon class="st2" points="901.1,530 919.9,562.7 882.2,562.7 						"/>
						<polygon class="st2" points="882.2,562.7 863.3,530 901.1,530 						"/>
						<polygon class="st2" points="863.3,530 882.2,562.7 844.4,562.7 						"/>
						<polygon class="st2" points="844.4,562.7 825.5,530 863.3,530 						"/>
						<polygon class="st2" points="825.5,530 844.4,562.7 806.6,562.7 						"/>
						<polygon class="st2" points="806.6,562.7 787.7,530 825.5,530 						"/>
						<polygon class="st2" points="787.7,530 806.6,562.7 768.8,562.7 						"/>
						<polygon class="st2" points="768.8,562.7 749.9,530 787.7,530 						"/>
						<polygon class="st2" points="749.9,530 768.8,562.7 731,562.7 						"/>
						<polygon class="st2" points="731,562.7 712.1,530 749.9,530 						"/>
						<polygon class="st2" points="712.1,530 731,562.7 693.2,562.7 						"/>
						<polygon class="st2" points="693.2,562.7 674.3,530 712.1,530 						"/>
						<polygon class="st2" points="674.3,530 693.2,562.7 655.4,562.7 						"/>
						<polygon class="st2" points="655.4,562.7 636.6,530 674.3,530 						"/>
						<polygon class="st2" points="636.6,530 655.4,562.7 617.7,562.7 						"/>
						<polygon class="st2" points="919.9,562.7 901.1,595.4 938.8,595.4 						"/>
						<polygon class="st2" points="901.1,595.4 919.9,562.7 882.2,562.7 						"/>
						<polygon class="st2" points="882.2,562.7 863.3,595.4 901.1,595.4 						"/>
						<polygon class="st2" points="863.3,595.4 882.2,562.7 844.4,562.7 						"/>
						<polygon class="st2" points="844.4,562.7 825.5,595.4 863.3,595.4 						"/>
						<polygon class="st2" points="825.5,595.4 844.4,562.7 806.6,562.7 						"/>
						<polygon class="st2" points="806.6,562.7 787.7,595.4 825.5,595.4 						"/>
						<polygon class="st2" points="787.7,595.4 806.6,562.7 768.8,562.7 						"/>
						<polygon class="st2" points="768.8,562.7 749.9,595.4 787.7,595.4 						"/>
						<polygon class="st2" points="749.9,595.4 768.8,562.7 731,562.7 						"/>
						<polygon class="st2" points="731,562.7 712.1,595.4 749.9,595.4 						"/>
						<polygon class="st2" points="712.1,595.4 731,562.7 693.2,562.7 						"/>
						<polygon class="st2" points="693.2,562.7 674.3,595.4 712.1,595.4 						"/>
						<polygon class="st2" points="674.3,595.4 693.2,562.7 655.4,562.7 						"/>
						<polygon class="st2" points="655.4,562.7 636.6,595.4 674.3,595.4 						"/>
						<polygon class="st2" points="636.6,595.4 655.4,562.7 617.7,562.7 						"/>
					</g>
					<g>
						<polygon class="st3" points="919.9,497.3 901.1,464.5 938.8,464.5 						"/>
						<polygon class="st3" points="863.3,464.5 882.2,497.3 844.4,497.3 						"/>
						<polygon class="st3" points="825.5,464.5 844.4,497.3 806.6,497.3 						"/>
						<polygon class="st3" points="806.6,497.3 787.7,464.5 825.5,464.5 						"/>
						<polygon class="st3" points="674.3,464.5 693.2,497.3 655.4,497.3 						"/>
						<polygon class="st3" points="919.9,497.3 901.1,530 938.8,530 						"/>
						<polygon class="st3" points="901.1,530 919.9,497.3 882.2,497.3 						"/>
						<polygon class="st3" points="844.4,497.3 825.5,530 863.3,530 						"/>
						<polygon class="st3" points="825.5,530 844.4,497.3 806.6,497.3 						"/>
						<polygon class="st3" points="749.9,530 768.8,497.3 731,497.3 						"/>
						<polygon class="st3" points="693.2,497.3 674.3,530 712.1,530 						"/>
						<polygon class="st3" points="674.3,530 693.2,497.3 655.4,497.3 						"/>
						<polygon class="st3" points="731,497.3 712.1,530 749.9,530 						"/>
					</g>
					<g>
						<polygon class="st3" points="919.9,562.7 901.1,530 938.8,530 						"/>
						<polygon class="st3" points="882.2,562.7 863.3,530 901.1,530 						"/>
						<polygon class="st3" points="863.3,530 882.2,562.7 844.4,562.7 						"/>
						<polygon class="st3" points="806.6,562.7 787.7,530 825.5,530 						"/>
						<polygon class="st3" points="712.1,530 731,562.7 693.2,562.7 						"/>
						<polygon class="st3" points="655.4,562.7 636.6,530 674.3,530 						"/>
						<polygon class="st3" points="844.4,562.7 825.5,595.4 863.3,595.4 						"/>
						<polygon class="st3" points="731,562.7 712.1,595.4 749.9,595.4 						"/>
						<polygon class="st3" points="712.1,595.4 731,562.7 693.2,562.7 						"/>
						<polygon class="st3" points="655.4,562.7 636.6,595.4 674.3,595.4 						"/>
						<polygon class="st3" points="636.6,595.4 655.4,562.7 617.7,562.7 						"/>
					</g>
				</g>
			</g>
		</g>
	</g>
</g>
</svg>
