<?xml version="1.0" encoding="utf-8"?>
<!-- Generator: Adobe Illustrator 23.0.6, SVG Export Plug-In . SVG Version: 6.00 Build 0)  -->
<svg version="1.1" id="Layer_1" xmlns="http://www.w3.org/2000/svg" xmlns:xlink="http://www.w3.org/1999/xlink" x="0px" y="0px"
	width="8.27in" height="11.69in" viewBox="0 0 800 1131.428" xml:space="preserve">
<style type="text/css">
	.st0{fill:#1226AA;}
	.st1{clip-path:url(#SVGID_2_);}
	.st2{fill:none;stroke:#FFFFFF;stroke-width:0.7087;stroke-linejoin:bevel;stroke-miterlimit:10;}
	.st3{fill:#FFFFFF;}
</style>
<rect x="-1.811" y="-2.562" class="st0" width="803.623" height="1136.552"/>
<g>
	<defs>
		<rect id="SVGID_1_" x="-1.811" y="799.087" width="803.623" height="334.902"/>
	</defs>
	<clipPath id="SVGID_2_">
		<use xlink:href="#SVGID_1_"  style="overflow:visible;"/>
	</clipPath>
	<g class="st1">
		<g>
			<polygon class="st2" points="-309.174,818.788 -223.214,818.788 -266.194,897.588 			"/>
			<polygon class="st2" points="-180.233,897.588 -266.194,897.588 -223.214,818.788 			"/>
			<polygon class="st2" points="-223.214,818.788 -137.253,818.788 -180.233,897.588 			"/>
			<polygon class="st2" points="-94.273,897.588 -180.233,897.588 -137.253,818.788 			"/>
			<polygon class="st2" points="-137.253,818.788 -51.293,818.788 -94.273,897.588 			"/>
			<polygon class="st2" points="-8.312,897.588 -94.273,897.588 -51.293,818.788 			"/>
			<polygon class="st2" points="-51.293,818.788 34.668,818.788 -8.312,897.588 			"/>
			<polygon class="st2" points="77.648,897.588 -8.312,897.588 34.668,818.788 			"/>
			<polygon class="st2" points="34.668,818.788 120.628,818.788 77.648,897.588 			"/>
			<polygon class="st2" points="163.609,897.588 77.648,897.588 120.628,818.788 			"/>
			<polygon class="st2" points="120.628,818.788 206.589,818.788 163.609,897.588 			"/>
			<polygon class="st2" points="249.569,897.588 163.609,897.588 206.589,818.788 			"/>
			<polygon class="st2" points="206.589,818.788 292.549,818.788 249.569,897.588 			"/>
			<polygon class="st2" points="335.53,897.588 249.569,897.588 292.549,818.788 			"/>
			<polygon class="st2" points="292.549,818.788 378.51,818.788 335.53,897.588 			"/>
			<polygon class="st2" points="421.49,897.588 335.53,897.588 378.51,818.788 			"/>
			<polygon class="st2" points="-309.174,976.389 -223.214,976.389 -266.194,897.588 			"/>
			<polygon class="st2" points="-180.233,897.588 -266.194,897.588 -223.214,976.389 			"/>
			<polygon class="st2" points="-223.214,976.389 -137.253,976.389 -180.233,897.588 			"/>
			<polygon class="st2" points="-94.273,897.588 -180.233,897.588 -137.253,976.389 			"/>
			<polygon class="st2" points="-137.253,976.389 -51.293,976.389 -94.273,897.588 			"/>
			<polygon class="st2" points="-8.312,897.588 -94.273,897.588 -51.293,976.389 			"/>
			<polygon class="st2" points="-51.293,976.389 34.668,976.389 -8.312,897.588 			"/>
			<polygon class="st2" points="77.648,897.588 -8.312,897.588 34.668,976.389 			"/>
			<polygon class="st2" points="34.668,976.389 120.628,976.389 77.648,897.588 			"/>
			<polygon class="st2" points="163.609,897.588 77.648,897.588 120.628,976.389 			"/>
			<polygon class="st2" points="120.628,976.389 206.589,976.389 163.609,897.588 			"/>
			<polygon class="st2" points="249.569,897.588 163.609,897.588 206.589,976.389 			"/>
			<polygon class="st2" points="206.589,976.389 292.549,976.389 249.569,897.588 			"/>
			<polygon class="st2" points="335.53,897.588 249.569,897.588 292.549,976.389 			"/>
			<polygon class="st2" points="292.549,976.389 378.51,976.389 335.53,897.588 			"/>
			<polygon class="st2" points="421.49,897.588 335.53,897.588 378.51,976.389 			"/>
		</g>
		<g>
			<polygon class="st3" points="-309.174,818.788 -223.214,818.788 -266.194,897.588 			"/>
			<polygon class="st3" points="-309.174,976.389 -223.214,976.389 -266.194,897.588 			"/>
			<polygon class="st3" points="-180.233,897.588 -266.194,897.588 -223.214,976.389 			"/>
			<polygon class="st3" points="-223.214,976.389 -137.253,976.389 -180.233,897.588 			"/>
			<polygon class="st3" points="-8.312,897.588 -94.273,897.588 -51.293,818.788 			"/>
			<polygon class="st3" points="-51.293,818.788 34.668,818.788 -8.312,897.588 			"/>
			<polygon class="st3" points="-137.253,976.389 -51.293,976.389 -94.273,897.588 			"/>
			<polygon class="st3" points="-8.312,897.588 -94.273,897.588 -51.293,976.389 			"/>
			<polygon class="st3" points="163.609,897.588 77.648,897.588 120.628,818.788 			"/>
			<polygon class="st3" points="120.628,818.788 206.589,818.788 163.609,897.588 			"/>
			<polygon class="st3" points="335.53,897.588 249.569,897.588 292.549,818.788 			"/>
			<polygon class="st3" points="120.628,976.389 206.589,976.389 163.609,897.588 			"/>
			<polygon class="st3" points="335.53,897.588 249.569,897.588 292.549,976.389 			"/>
		</g>
		<g>
			<polygon class="st2" points="-309.174,976.389 -223.214,976.389 -266.194,1055.189 			"/>
			<polygon class="st2" points="-180.233,1055.189 -266.194,1055.189 -223.214,976.389 			"/>
			<polygon class="st2" points="-223.214,976.389 -137.253,976.389 -180.233,1055.189 			"/>
			<polygon class="st2" points="-94.273,1055.189 -180.233,1055.189 -137.253,976.389 			"/>
			<polygon class="st2" points="-137.253,976.389 -51.293,976.389 -94.273,1055.189 			"/>
			<polygon class="st2" points="-8.312,1055.189 -94.273,1055.189 -51.293,976.389 			"/>
			<polygon class="st2" points="-51.293,976.389 34.668,976.389 -8.312,1055.189 			"/>
			<polygon class="st2" points="77.648,1055.189 -8.312,1055.189 34.668,976.389 			"/>
			<polygon class="st2" points="249.569,1055.189 163.609,1055.189 206.589,976.389 			"/>
			<polygon class="st2" points="206.589,976.389 292.549,976.389 249.569,1055.189 			"/>
			<polygon class="st2" points="335.53,1055.189 249.569,1055.189 292.549,976.389 			"/>
			<polygon class="st2" points="292.549,976.389 378.51,976.389 335.53,1055.189 			"/>
			<polygon class="st2" points="421.49,1055.189 335.53,1055.189 378.51,976.389 			"/>
			<polygon class="st2" points="-309.174,1133.99 -223.214,1133.99 -266.194,1055.189 			"/>
			<polygon class="st2" points="-180.233,1055.189 -266.194,1055.189 -223.214,1133.99 			"/>
			<polygon class="st2" points="-223.214,1133.99 -137.253,1133.99 -180.233,1055.189 			"/>
			<polygon class="st2" points="-94.273,1055.189 -180.233,1055.189 -137.253,1133.99 			"/>
			<polygon class="st2" points="-137.253,1133.99 -51.293,1133.99 -94.273,1055.189 			"/>
			<polygon class="st2" points="-8.312,1055.189 -94.273,1055.189 -51.293,1133.99 			"/>
			<polygon class="st2" points="-51.293,1133.99 34.668,1133.99 -8.312,1055.189 			"/>
			<polygon class="st2" points="77.648,1055.189 -8.312,1055.189 34.668,1133.99 			"/>
			<polygon class="st2" points="34.668,1133.99 120.628,1133.99 77.648,1055.189 			"/>
			<polygon class="st2" points="163.609,1055.189 77.648,1055.189 120.628,1133.99 			"/>
			<polygon class="st2" points="120.628,1133.99 206.589,1133.99 163.609,1055.189 			"/>
			<polygon class="st2" points="249.569,1055.189 163.609,1055.189 206.589,1133.99 			"/>
			<polygon class="st2" points="206.589,1133.99 292.549,1133.99 249.569,1055.189 			"/>
			<polygon class="st2" points="335.53,1055.189 249.569,1055.189 292.549,1133.99 			"/>
			<polygon class="st2" points="292.549,1133.99 378.51,1133.99 335.53,1055.189 			"/>
			<polygon class="st2" points="421.49,1055.189 335.53,1055.189 378.51,1133.99 			"/>
		</g>
		<g>
			<polygon class="st3" points="-51.293,976.389 34.668,976.389 -8.312,1055.189 			"/>
			<polygon class="st3" points="249.569,1055.189 163.609,1055.189 206.589,976.389 			"/>
			<polygon class="st3" points="206.589,976.389 292.549,976.389 249.569,1055.189 			"/>
			<polygon class="st3" points="421.49,1055.189 335.53,1055.189 378.51,976.389 			"/>
			<polygon class="st3" points="-309.174,1133.99 -223.214,1133.99 -266.194,1055.189 			"/>
			<polygon class="st3" points="-223.214,1133.99 -137.253,1133.99 -180.233,1055.189 			"/>
			<polygon class="st3" points="-51.293,1133.99 34.668,1133.99 -8.312,1055.189 			"/>
			<polygon class="st3" points="77.648,1055.189 -8.312,1055.189 34.668,1133.99 			"/>
			<polygon class="st3" points="120.628,1133.99 206.589,1133.99 163.609,1055.189 			"/>
			<polygon class="st3" points="249.569,1055.189 163.609,1055.189 206.589,1133.99 			"/>
			<polygon class="st3" points="335.53,1055.189 249.569,1055.189 292.549,1133.99 			"/>
		</g>
		<g>
			<polygon class="st2" points="378.51,818.788 464.47,818.788 421.49,897.588 			"/>
			<polygon class="st2" points="507.451,897.588 421.49,897.588 464.47,818.788 			"/>
			<polygon class="st2" points="464.47,818.788 550.431,818.788 507.451,897.588 			"/>
			<polygon class="st2" points="593.411,897.588 507.451,897.588 550.431,818.788 			"/>
			<polygon class="st2" points="550.431,818.788 636.391,818.788 593.411,897.588 			"/>
			<polygon class="st2" points="679.372,897.588 593.411,897.588 636.391,818.788 			"/>
			<polygon class="st2" points="636.391,818.788 722.352,818.788 679.372,897.588 			"/>
			<polygon class="st2" points="765.332,897.588 679.372,897.588 722.352,818.788 			"/>
			<polygon class="st2" points="722.352,818.788 808.312,818.788 765.332,897.588 			"/>
			<polygon class="st2" points="851.293,897.588 765.332,897.588 808.312,818.788 			"/>
			<polygon class="st2" points="808.312,818.788 894.273,818.788 851.293,897.588 			"/>
			<polygon class="st2" points="937.253,897.588 851.293,897.588 894.273,818.788 			"/>
			<polygon class="st2" points="894.273,818.788 980.233,818.788 937.253,897.588 			"/>
			<polygon class="st2" points="1023.214,897.588 937.253,897.588 980.233,818.788 			"/>
			<polygon class="st2" points="980.233,818.788 1066.194,818.788 1023.214,897.588 			"/>
			<polygon class="st2" points="1109.174,897.588 1023.214,897.588 1066.194,818.788 			"/>
			<polygon class="st2" points="378.51,976.389 464.47,976.389 421.49,897.588 			"/>
			<polygon class="st2" points="507.451,897.588 421.49,897.588 464.47,976.389 			"/>
			<polygon class="st2" points="464.47,976.389 550.431,976.389 507.451,897.588 			"/>
			<polygon class="st2" points="593.411,897.588 507.451,897.588 550.431,976.389 			"/>
			<polygon class="st2" points="550.431,976.389 636.391,976.389 593.411,897.588 			"/>
			<polygon class="st2" points="679.372,897.588 593.411,897.588 636.391,976.389 			"/>
			<polygon class="st2" points="636.391,976.389 722.352,976.389 679.372,897.588 			"/>
			<polygon class="st2" points="765.332,897.588 679.372,897.588 722.352,976.389 			"/>
			<polygon class="st2" points="722.352,976.389 808.312,976.389 765.332,897.588 			"/>
			<polygon class="st2" points="851.293,897.588 765.332,897.588 808.312,976.389 			"/>
			<polygon class="st2" points="808.312,976.389 894.273,976.389 851.293,897.588 			"/>
			<polygon class="st2" points="937.253,897.588 851.293,897.588 894.273,976.389 			"/>
			<polygon class="st2" points="894.273,976.389 980.233,976.389 937.253,897.588 			"/>
			<polygon class="st2" points="1023.214,897.588 937.253,897.588 980.233,976.389 			"/>
			<polygon class="st2" points="980.233,976.389 1066.194,976.389 1023.214,897.588 			"/>
			<polygon class="st2" points="1109.174,897.588 1023.214,897.588 1066.194,976.389 			"/>
		</g>
		<g>
			<polygon class="st2" points="378.51,976.389 464.47,976.389 421.49,1055.189 			"/>
			<polygon class="st2" points="507.451,1055.189 421.49,1055.189 464.47,976.389 			"/>
			<polygon class="st2" points="464.47,976.389 550.431,976.389 507.451,1055.189 			"/>
			<polygon class="st2" points="593.411,1055.189 507.451,1055.189 550.431,976.389 			"/>
			<polygon class="st2" points="550.431,976.389 636.391,976.389 593.411,1055.189 			"/>
			<polygon class="st2" points="679.372,1055.189 593.411,1055.189 636.391,976.389 			"/>
			<polygon class="st2" points="636.391,976.389 722.352,976.389 679.372,1055.189 			"/>
			<polygon class="st2" points="765.332,1055.189 679.372,1055.189 722.352,976.389 			"/>
			<polygon class="st2" points="722.352,976.389 808.312,976.389 765.332,1055.189 			"/>
			<polygon class="st2" points="851.293,1055.189 765.332,1055.189 808.312,976.389 			"/>
			<polygon class="st2" points="808.312,976.389 894.273,976.389 851.293,1055.189 			"/>
			<polygon class="st2" points="937.253,1055.189 851.293,1055.189 894.273,976.389 			"/>
			<polygon class="st2" points="894.273,976.389 980.233,976.389 937.253,1055.189 			"/>
			<polygon class="st2" points="1023.214,1055.189 937.253,1055.189 980.233,976.389 			"/>
			<polygon class="st2" points="980.233,976.389 1066.194,976.389 1023.214,1055.189 			"/>
			<polygon class="st2" points="1109.174,1055.189 1023.214,1055.189 1066.194,976.389 			"/>
			<polygon class="st2" points="378.51,1133.99 464.47,1133.99 421.49,1055.189 			"/>
			<polygon class="st2" points="507.451,1055.189 421.49,1055.189 464.47,1133.99 			"/>
			<polygon class="st2" points="464.47,1133.99 550.431,1133.99 507.451,1055.189 			"/>
			<polygon class="st2" points="593.411,1055.189 507.451,1055.189 550.431,1133.99 			"/>
			<polygon class="st2" points="550.431,1133.99 636.391,1133.99 593.411,1055.189 			"/>
			<polygon class="st2" points="679.372,1055.189 593.411,1055.189 636.391,1133.99 			"/>
			<polygon class="st2" points="636.391,1133.99 722.352,1133.99 679.372,1055.189 			"/>
			<polygon class="st2" points="765.332,1055.189 679.372,1055.189 722.352,1133.99 			"/>
			<polygon class="st2" points="722.352,1133.99 808.312,1133.99 765.332,1055.189 			"/>
			<polygon class="st2" points="851.293,1055.189 765.332,1055.189 808.312,1133.99 			"/>
			<polygon class="st2" points="808.312,1133.99 894.273,1133.99 851.293,1055.189 			"/>
			<polygon class="st2" points="937.253,1055.189 851.293,1055.189 894.273,1133.99 			"/>
			<polygon class="st2" points="894.273,1133.99 980.233,1133.99 937.253,1055.189 			"/>
			<polygon class="st2" points="1023.214,1055.189 937.253,1055.189 980.233,1133.99 			"/>
			<polygon class="st2" points="980.233,1133.99 1066.194,1133.99 1023.214,1055.189 			"/>
			<polygon class="st2" points="1109.174,1055.189 1023.214,1055.189 1066.194,1133.99 			"/>
		</g>
		<g>
			<polygon class="st3" points="378.51,818.788 464.47,818.788 421.49,897.588 			"/>
			<polygon class="st3" points="593.411,897.588 507.451,897.588 550.431,818.788 			"/>
			<polygon class="st3" points="679.372,897.588 593.411,897.588 636.391,818.788 			"/>
			<polygon class="st3" points="636.391,818.788 722.352,818.788 679.372,897.588 			"/>
			<polygon class="st3" points="1023.214,897.588 937.253,897.588 980.233,818.788 			"/>
			<polygon class="st3" points="378.51,976.389 464.47,976.389 421.49,897.588 			"/>
			<polygon class="st3" points="507.451,897.588 421.49,897.588 464.47,976.389 			"/>
			<polygon class="st3" points="550.431,976.389 636.391,976.389 593.411,897.588 			"/>
			<polygon class="st3" points="679.372,897.588 593.411,897.588 636.391,976.389 			"/>
			<polygon class="st3" points="851.293,897.588 765.332,897.588 808.312,976.389 			"/>
			<polygon class="st3" points="894.273,976.389 980.233,976.389 937.253,897.588 			"/>
			<polygon class="st3" points="1023.214,897.588 937.253,897.588 980.233,976.389 			"/>
			<polygon class="st3" points="808.312,976.389 894.273,976.389 851.293,897.588 			"/>
		</g>
		<g>
			<polygon class="st3" points="378.51,976.389 464.47,976.389 421.49,1055.189 			"/>
			<polygon class="st3" points="464.47,976.389 550.431,976.389 507.451,1055.189 			"/>
			<polygon class="st3" points="593.411,1055.189 507.451,1055.189 550.431,976.389 			"/>
			<polygon class="st3" points="636.391,976.389 722.352,976.389 679.372,1055.189 			"/>
			<polygon class="st3" points="937.253,1055.189 851.293,1055.189 894.273,976.389 			"/>
			<polygon class="st3" points="980.233,976.389 1066.194,976.389 1023.214,1055.189 			"/>
			<polygon class="st3" points="550.431,1133.99 636.391,1133.99 593.411,1055.189 			"/>
			<polygon class="st3" points="808.312,1133.99 894.273,1133.99 851.293,1055.189 			"/>
			<polygon class="st3" points="937.253,1055.189 851.293,1055.189 894.273,1133.99 			"/>
			<polygon class="st3" points="980.233,1133.99 1066.194,1133.99 1023.214,1055.189 			"/>
			<polygon class="st3" points="1109.174,1055.189 1023.214,1055.189 1066.194,1133.99 			"/>
		</g>
	</g>
</g>
<g>
	<rect x="72.633" y="120.09" class="st3" width="18.264" height="40.062"/>
	<polygon class="st3" points="111.415,160.151 131.691,160.151 111.415,121.772 	"/>
	<polygon class="st3" points="111.177,118.858 134.115,118.858 113.276,79.411 101.807,101.12 	"/>
	<polygon class="st3" points="92.436,118.858 109.876,118.858 101.155,102.352 	"/>
	<polygon class="st3" points="60.925,78.795 72.069,99.889 83.212,78.795 	"/>
	<polygon class="st3" points="72.633,118.858 90.897,118.858 90.897,100.955 102.604,78.795 84.514,78.795 72.633,101.286 	"/>
	<path class="st3" d="M111.828,120.09l10.036,18.995c3.716-1.233,6.291-5.015,6.291-9.288c0-5.353-3.985-9.707-8.882-9.707H111.828z
		"/>
	<path class="st3" d="M92.024,120.09v40.062c10.077-0.038,18.264-9.009,18.264-20.031S102.101,120.127,92.024,120.09"/>
	<path class="st3" d="M145.998,120.09c-10.106,0-18.329,8.986-18.329,20.031s8.223,20.031,18.329,20.031
		c10.107,0,18.33-8.986,18.33-20.031S156.105,120.09,145.998,120.09"/>
	<rect x="168.414" y="120.09" class="st3" width="100.683" height="40.062"/>
	<rect x="231.389" y="129.156" class="st0" width="1.338" height="22.179"/>
	<polygon class="st0" points="238.204,132.855 238.204,151.334 239.543,151.334 239.543,134.388 	"/>
	<polygon class="st0" points="255.243,129.155 255.243,148.408 238.204,128.922 238.204,130.874 256.581,151.9 256.581,129.155 	"/>
	<polygon class="st0" points="199.169,130.308 198.498,128.49 189.948,151.334 191.409,151.334 	"/>
	<polygon class="st0" points="199.805,132.032 199.099,133.961 202.271,142.722 195.896,142.722 195.41,144.052 202.758,144.052 
		205.465,151.334 206.926,151.334 	"/>
	<rect x="186.512" y="129.155" class="st0" width="4.166" height="1.33"/>
	<polygon class="st0" points="185.415,129.155 178.812,129.155 178.812,130.485 184.076,130.485 184.076,151.334 185.415,151.334 	
		"/>
	<rect x="213.896" y="129.155" class="st0" width="4.166" height="1.33"/>
	<polygon class="st0" points="212.799,129.155 206.196,129.155 206.196,130.485 211.46,130.485 211.46,151.334 212.799,151.334 	"/>
	<rect x="221.227" y="129.155" class="st0" width="1.338" height="22.179"/>
	<rect x="223.771" y="150.004" class="st0" width="4.454" height="1.33"/>
</g>
</svg>
