<?xml version="1.0" encoding="UTF-8" standalone="no"?>
<!-- Generator: Adobe Illustrator 24.0.3, SVG Export Plug-In . SVG Version: 6.00 Build 0)  -->

<svg
   xmlns:dc="http://purl.org/dc/elements/1.1/"
   xmlns:cc="http://creativecommons.org/ns#"
   xmlns:rdf="http://www.w3.org/1999/02/22-rdf-syntax-ns#"
   xmlns:svg="http://www.w3.org/2000/svg"
   xmlns="http://www.w3.org/2000/svg"
   xmlns:xlink="http://www.w3.org/1999/xlink"
   xmlns:sodipodi="http://sodipodi.sourceforge.net/DTD/sodipodi-0.dtd"
   xmlns:inkscape="http://www.inkscape.org/namespaces/inkscape"
   version="1.1"
   id="Layer_1"
   x="0px"
   y="0px"
   width="11.69in" height="23.38in"
   viewBox="0 0 841.9 595.3"
   style="enable-background:new 0 0 841.9 595.3;"
   xml:space="preserve"
   sodipodi:docname="Ð4-front-landscape.svg"
   inkscape:version="0.92.4 (5da689c313, 2019-01-14)"><metadata
   id="metadata1246"><rdf:RDF><cc:Work
       rdf:about=""><dc:format>image/svg+xml</dc:format><dc:type
         rdf:resource="http://purl.org/dc/dcmitype/StillImage" /><dc:title></dc:title></cc:Work></rdf:RDF></metadata><defs
   id="defs1244" /><sodipodi:namedview
   pagecolor="#ffffff"
   bordercolor="#666666"
   borderopacity="1"
   objecttolerance="10"
   gridtolerance="10"
   guidetolerance="10"
   inkscape:pageopacity="0"
   inkscape:pageshadow="2"
   inkscape:window-width="1920"
   inkscape:window-height="1017"
   id="namedview1242"
   showgrid="false"
   inkscape:zoom="1.4244919"
   inkscape:cx="420.95001"
   inkscape:cy="297.64999"
   inkscape:window-x="-8"
   inkscape:window-y="-8"
   inkscape:window-maximized="1"
   inkscape:current-layer="Layer_1" />
<style
   type="text/css"
   id="style815">
	.st0{fill:#1226AA;}
	.st1{clip-path:url(#SVGID_2_);fill:none;stroke:#FFFFFF;stroke-width:0.2099;stroke-linejoin:bevel;stroke-miterlimit:10;}
	.st2{clip-path:url(#SVGID_2_);}
	.st3{fill:none;stroke:#FFFFFF;stroke-width:0.2099;stroke-linejoin:bevel;stroke-miterlimit:10;}
	.st4{fill:#FFFFFF;}
	.st5{clip-path:url(#SVGID_4_);fill:none;stroke:#FFFFFF;stroke-width:0.2099;stroke-linejoin:bevel;stroke-miterlimit:10;}
	.st6{clip-path:url(#SVGID_4_);}
</style>
<rect
   y="538.6"
   class="st0"
   width="841.9"
   height="56.7"
   id="rect817" />
<g
   id="g999">
	<defs
   id="defs820">
		<rect
   id="SVGID_1_"
   x="310.9"
   y="538.6"
   width="531"
   height="56.7" />
	</defs>
	<clipPath
   id="SVGID_2_">
		<use
   xlink:href="#SVGID_1_"
   style="overflow:visible;"
   id="use822" />
	</clipPath>
	<line
   class="st1"
   x1="254.1"
   y1="513.7"
   x2="863.2"
   y2="513.7"
   clip-path="url(#SVGID_2_)"
   id="line825" />
	<line
   class="st1"
   x1="254.1"
   y1="538.3"
   x2="863.2"
   y2="538.3"
   clip-path="url(#SVGID_2_)"
   id="line827" />
	<line
   class="st1"
   x1="254.1"
   y1="562.9"
   x2="863.2"
   y2="562.9"
   clip-path="url(#SVGID_2_)"
   id="line829" />
	<line
   class="st1"
   x1="254.1"
   y1="587.5"
   x2="863.2"
   y2="587.5"
   clip-path="url(#SVGID_2_)"
   id="line831" />
	<line
   class="st1"
   x1="254.1"
   y1="612.1"
   x2="863.2"
   y2="612.1"
   clip-path="url(#SVGID_2_)"
   id="line833" />
	<g
   class="st2"
   clip-path="url(#SVGID_2_)"
   id="g927">
		<g
   id="g879">
			<line
   class="st3"
   x1="907.8"
   y1="464.4"
   x2="808.2"
   y2="637"
   id="line835" />
			<line
   class="st3"
   x1="879.4"
   y1="464.4"
   x2="779.7"
   y2="637"
   id="line837" />
			<line
   class="st3"
   x1="851"
   y1="464.4"
   x2="751.3"
   y2="637"
   id="line839" />
			<line
   class="st3"
   x1="822.6"
   y1="464.4"
   x2="722.9"
   y2="637"
   id="line841" />
			<line
   class="st3"
   x1="794.2"
   y1="464.4"
   x2="694.5"
   y2="637"
   id="line843" />
			<line
   class="st3"
   x1="765.6"
   y1="464.4"
   x2="666.2"
   y2="636.6"
   id="line845" />
			<line
   class="st3"
   x1="737.3"
   y1="464.4"
   x2="637.6"
   y2="637"
   id="line847" />
			<line
   class="st3"
   x1="708.8"
   y1="464.4"
   x2="609.3"
   y2="636.6"
   id="line849" />
			<line
   class="st3"
   x1="680.5"
   y1="464.4"
   x2="580.8"
   y2="637"
   id="line851" />
			<line
   class="st3"
   x1="652.1"
   y1="464.4"
   x2="552.4"
   y2="637"
   id="line853" />
			<line
   class="st3"
   x1="623.5"
   y1="464.4"
   x2="524.1"
   y2="636.6"
   id="line855" />
			<line
   class="st3"
   x1="595.2"
   y1="464.4"
   x2="495.6"
   y2="636.9"
   id="line857" />
			<line
   class="st3"
   x1="566.8"
   y1="464.4"
   x2="467.1"
   y2="637"
   id="line859" />
			<line
   class="st3"
   x1="538.4"
   y1="464.4"
   x2="438.7"
   y2="637"
   id="line861" />
			<line
   class="st3"
   x1="510"
   y1="464.4"
   x2="410.3"
   y2="637"
   id="line863" />
			<line
   class="st3"
   x1="481.4"
   y1="464.4"
   x2="382"
   y2="636.6"
   id="line865" />
			<line
   class="st3"
   x1="453.1"
   y1="464.4"
   x2="353.4"
   y2="637"
   id="line867" />
			<line
   class="st3"
   x1="424.7"
   y1="464.4"
   x2="325"
   y2="637"
   id="line869" />
			<line
   class="st3"
   x1="396.3"
   y1="464.4"
   x2="296.6"
   y2="637"
   id="line871" />
			<line
   class="st3"
   x1="367.9"
   y1="464.4"
   x2="268.2"
   y2="637"
   id="line873" />
			<line
   class="st3"
   x1="339.4"
   y1="464.4"
   x2="239.8"
   y2="637"
   id="line875" />
			<line
   class="st3"
   x1="311"
   y1="464.4"
   x2="211.3"
   y2="637"
   id="line877" />
		</g>
		<line
   class="st3"
   x1="254.1"
   y1="489.1"
   x2="863.2"
   y2="489.1"
   id="line881" />
		<g
   id="g925">
			<line
   class="st3"
   x1="254.1"
   y1="464.4"
   x2="353.6"
   y2="636.8"
   id="line883" />
			<line
   class="st3"
   x1="225.7"
   y1="464.4"
   x2="325.2"
   y2="636.8"
   id="line885" />
			<line
   class="st3"
   x1="282.5"
   y1="464.4"
   x2="382"
   y2="636.6"
   id="line887" />
			<line
   class="st3"
   x1="310.9"
   y1="464.4"
   x2="410.5"
   y2="636.8"
   id="line889" />
			<line
   class="st3"
   x1="339.3"
   y1="464.4"
   x2="438.9"
   y2="636.8"
   id="line891" />
			<line
   class="st3"
   x1="367.7"
   y1="464.4"
   x2="467.3"
   y2="636.8"
   id="line893" />
			<line
   class="st3"
   x1="396.2"
   y1="464.4"
   x2="495.7"
   y2="636.8"
   id="line895" />
			<line
   class="st3"
   x1="424.6"
   y1="464.4"
   x2="524"
   y2="636.6"
   id="line897" />
			<line
   class="st3"
   x1="453"
   y1="464.4"
   x2="552.6"
   y2="636.8"
   id="line899" />
			<line
   class="st3"
   x1="481.4"
   y1="464.4"
   x2="581"
   y2="636.8"
   id="line901" />
			<line
   class="st3"
   x1="509.8"
   y1="464.4"
   x2="609.3"
   y2="636.6"
   id="line903" />
			<line
   class="st3"
   x1="538.2"
   y1="464.4"
   x2="637.8"
   y2="636.8"
   id="line905" />
			<line
   class="st3"
   x1="566.7"
   y1="464.4"
   x2="666.1"
   y2="636.6"
   id="line907" />
			<line
   class="st3"
   x1="595.1"
   y1="464.4"
   x2="694.6"
   y2="636.8"
   id="line909" />
			<line
   class="st3"
   x1="623.5"
   y1="464.4"
   x2="723.1"
   y2="636.8"
   id="line911" />
			<line
   class="st3"
   x1="651.9"
   y1="464.4"
   x2="751.5"
   y2="636.8"
   id="line913" />
			<line
   class="st3"
   x1="680.3"
   y1="464.4"
   x2="779.9"
   y2="636.8"
   id="line915" />
			<line
   class="st3"
   x1="708.7"
   y1="464.4"
   x2="808.3"
   y2="636.8"
   id="line917" />
			<line
   class="st3"
   x1="737.2"
   y1="464.4"
   x2="836.7"
   y2="636.8"
   id="line919" />
			<line
   class="st3"
   x1="765.6"
   y1="464.4"
   x2="865.1"
   y2="636.8"
   id="line921" />
			<line
   class="st3"
   x1="794"
   y1="464.4"
   x2="893.6"
   y2="636.8"
   id="line923" />
		</g>
	</g>
	<g
   class="st2"
   clip-path="url(#SVGID_2_)"
   id="g967">
		<polygon
   class="st4"
   points="310.9,562.9 339.3,562.9 382,489.1 353.5,489.1   "
   id="polygon929" />
		<polygon
   class="st4"
   points="382,538.3 410.4,538.3 453.1,464.5 424.6,464.5   "
   id="polygon931" />
		<polygon
   class="st4"
   points="325,637 353.4,637 382,587.5 353.6,587.5   "
   id="polygon933" />
		<polygon
   class="st4"
   points="552.5,637 580.9,637 609.5,587.5 581.1,587.5   "
   id="polygon935" />
		<polygon
   class="st4"
   points="779.8,637 808.2,637 836.8,587.5 808.4,587.5   "
   id="polygon937" />
		<polygon
   class="st4"
   points="467.3,587.5 495.7,587.5 524.1,538.3 495.7,538.3   "
   id="polygon939" />
		<polygon
   class="st4"
   points="538.3,562.9 566.7,562.9 595.1,513.7 566.6,513.7   "
   id="polygon941" />
		<polygon
   class="st4"
   points="453,513.7 481.4,513.7 509.8,464.5 481.4,464.5   "
   id="polygon943" />
		<polygon
   class="st4"
   points="381.9,636.8 410.4,636.8 453.1,562.9 424.5,562.9   "
   id="polygon945" />
		<polygon
   class="st4"
   points="353.6,587.5 367.8,562.9 339.4,562.9   "
   id="polygon947" />
		<polygon
   class="st4"
   points="453.1,612.1 467.3,587.5 438.9,587.5   "
   id="polygon949" />
		<polygon
   class="st4"
   points="495.7,538.3 509.9,513.7 481.5,513.7   "
   id="polygon951" />
		<polygon
   class="st4"
   points="581,587.5 595.2,562.9 566.8,562.9   "
   id="polygon953" />
		<polygon
   class="st4"
   points="467.3,538.3 453,513.6 438.8,538.3 453.1,562.9   "
   id="polygon955" />
		<polygon
   class="st4"
   points="552.5,489 538.2,464.3 524,489 538.3,513.7   "
   id="polygon957" />
		<polygon
   class="st4"
   points="538.3,562.9 509.8,562.9 524.1,587.6 552.6,587.5   "
   id="polygon959" />
		<polygon
   class="st4"
   points="410.4,538.3 396.2,562.9 424.6,562.9   "
   id="polygon961" />
		<polygon
   class="st4"
   points="538.2,513.7 524,538.3 552.5,538.3   "
   id="polygon963" />
		<polygon
   class="st4"
   points="552.6,587.5 538.4,612.1 566.8,612.1   "
   id="polygon965" />
	</g>
	<g
   class="st2"
   clip-path="url(#SVGID_2_)"
   id="g997">
		<polygon
   class="st4"
   points="609.4,538.3 637.8,538.3 680.4,464.5 652,464.5   "
   id="polygon969" />
		<polygon
   class="st4"
   points="694.6,587.5 723,587.5 751.4,538.3 723,538.3   "
   id="polygon971" />
		<polygon
   class="st4"
   points="765.6,562.9 794,562.9 822.4,513.7 794,513.7   "
   id="polygon973" />
		<polygon
   class="st4"
   points="680.4,513.7 708.8,513.7 737.2,464.5 708.7,464.5   "
   id="polygon975" />
		<polygon
   class="st4"
   points="609.3,636.8 637.8,636.8 680.4,562.9 651.9,562.9   "
   id="polygon977" />
		<polygon
   class="st4"
   points="680.4,612.1 694.6,587.5 666.2,587.5   "
   id="polygon979" />
		<polygon
   class="st4"
   points="723,538.3 737.2,513.7 708.8,513.7   "
   id="polygon981" />
		<polygon
   class="st4"
   points="808.3,587.5 822.5,562.9 794.1,562.9   "
   id="polygon983" />
		<polygon
   class="st4"
   points="694.6,538.3 680.4,513.6 666.1,538.3 680.4,562.9   "
   id="polygon985" />
		<polygon
   class="st4"
   points="779.8,489 765.6,464.3 751.3,489 765.6,513.7   "
   id="polygon987" />
		<polygon
   class="st4"
   points="765.7,562.9 737.2,562.9 751.4,587.6 779.9,587.5   "
   id="polygon989" />
		<polygon
   class="st4"
   points="637.8,538.3 623.6,562.9 652,562.9   "
   id="polygon991" />
		<polygon
   class="st4"
   points="765.6,513.7 751.4,538.3 779.8,538.3   "
   id="polygon993" />
		<polygon
   class="st4"
   points="779.9,587.5 765.7,612.1 794.1,612.1   "
   id="polygon995" />
	</g>
</g>
<rect
   class="st0"
   width="841.9"
   height="96.1"
   id="rect1001" />
<g
   id="g1057">
	<g
   id="g1007">
		<g
   id="g1005">
			<path
   class="st4"
   d="M28.3,70.3h10.9V48.4H28.3V70.3z"
   id="path1003" />
		</g>
	</g>
	<g
   id="g1013">
		<g
   id="g1011">
			<path
   class="st4"
   d="M51.6,70.3h12.1l-12.1-21V70.3z"
   id="path1009" />
		</g>
	</g>
	<g
   id="g1019">
		<g
   id="g1017">
			<path
   class="st4"
   d="M51.4,47.7h13.7L52.7,26.1L45.8,38L51.4,47.7z"
   id="path1015" />
		</g>
	</g>
	<g
   id="g1025">
		<g
   id="g1023">
			<path
   class="st4"
   d="M40.2,47.7h10.4l-5.2-9L40.2,47.7z"
   id="path1021" />
		</g>
	</g>
	<g
   id="g1031">
		<g
   id="g1029">
			<path
   class="st4"
   d="M21.3,25.8L28,37.3l6.7-11.6H21.3z"
   id="path1027" />
		</g>
	</g>
	<g
   id="g1037">
		<g
   id="g1035">
			<path
   class="st4"
   d="M28.3,47.7h10.9v-9.8l7-12.1H35.5l-7.1,12.3V47.7z"
   id="path1033" />
		</g>
	</g>
	<g
   id="g1043">
		<g
   id="g1041">
			<path
   class="st4"
   d="M51.8,48.4l6,10.4c2.2-0.7,3.8-2.7,3.8-5.1c0-2.9-2.4-5.3-5.3-5.3H51.8z"
   id="path1039" />
		</g>
	</g>
	<g
   id="g1049">
		<g
   id="g1047">
			<path
   class="st4"
   d="M40,48.4v21.9c6,0,10.9-4.9,10.9-11S46,48.4,40,48.4z"
   id="path1045" />
		</g>
	</g>
	<g
   id="g1055">
		<g
   id="g1053">
			<path
   class="st4"
   d="M72.3,48.4c-6,0-11,4.9-11,11s4.9,11,11,11c6,0,11-4.9,11-11S78.3,48.4,72.3,48.4z"
   id="path1051" />
		</g>
	</g>
</g>
<g
   id="g1239">
	<defs
   id="defs1060">
		<rect
   id="SVGID_3_"
   x="310.9"
   width="531"
   height="96.1" />
	</defs>
	<clipPath
   id="SVGID_4_">
		<use
   xlink:href="#SVGID_3_"
   style="overflow:visible;"
   id="use1062" />
	</clipPath>
	<line
   class="st5"
   x1="254.1"
   y1="0.1"
   x2="863.2"
   y2="0.1"
   clip-path="url(#SVGID_4_)"
   id="line1065" />
	<line
   class="st5"
   x1="254.1"
   y1="24.7"
   x2="863.2"
   y2="24.7"
   clip-path="url(#SVGID_4_)"
   id="line1067" />
	<line
   class="st5"
   x1="254.1"
   y1="49.3"
   x2="863.2"
   y2="49.3"
   clip-path="url(#SVGID_4_)"
   id="line1069" />
	<line
   class="st5"
   x1="254.1"
   y1="73.9"
   x2="863.2"
   y2="73.9"
   clip-path="url(#SVGID_4_)"
   id="line1071" />
	<line
   class="st5"
   x1="254.1"
   y1="98.5"
   x2="863.2"
   y2="98.5"
   clip-path="url(#SVGID_4_)"
   id="line1073" />
	<g
   class="st6"
   clip-path="url(#SVGID_4_)"
   id="g1167">
		<g
   id="g1119">
			<line
   class="st3"
   x1="907.8"
   y1="-49.2"
   x2="808.2"
   y2="123.4"
   id="line1075" />
			<line
   class="st3"
   x1="879.4"
   y1="-49.2"
   x2="779.7"
   y2="123.4"
   id="line1077" />
			<line
   class="st3"
   x1="851"
   y1="-49.2"
   x2="751.3"
   y2="123.4"
   id="line1079" />
			<line
   class="st3"
   x1="822.6"
   y1="-49.2"
   x2="722.9"
   y2="123.4"
   id="line1081" />
			<line
   class="st3"
   x1="794.2"
   y1="-49.2"
   x2="694.5"
   y2="123.4"
   id="line1083" />
			<line
   class="st3"
   x1="765.6"
   y1="-49.2"
   x2="666.2"
   y2="123.1"
   id="line1085" />
			<line
   class="st3"
   x1="737.3"
   y1="-49.2"
   x2="637.6"
   y2="123.4"
   id="line1087" />
			<line
   class="st3"
   x1="708.8"
   y1="-49.2"
   x2="609.3"
   y2="123.1"
   id="line1089" />
			<line
   class="st3"
   x1="680.5"
   y1="-49.2"
   x2="580.8"
   y2="123.4"
   id="line1091" />
			<line
   class="st3"
   x1="652.1"
   y1="-49.2"
   x2="552.4"
   y2="123.4"
   id="line1093" />
			<line
   class="st3"
   x1="623.5"
   y1="-49.2"
   x2="524.1"
   y2="123.1"
   id="line1095" />
			<line
   class="st3"
   x1="595.2"
   y1="-49.2"
   x2="495.6"
   y2="123.3"
   id="line1097" />
			<line
   class="st3"
   x1="566.8"
   y1="-49.2"
   x2="467.1"
   y2="123.4"
   id="line1099" />
			<line
   class="st3"
   x1="538.4"
   y1="-49.2"
   x2="438.7"
   y2="123.4"
   id="line1101" />
			<line
   class="st3"
   x1="510"
   y1="-49.2"
   x2="410.3"
   y2="123.4"
   id="line1103" />
			<line
   class="st3"
   x1="481.4"
   y1="-49.2"
   x2="382"
   y2="123.1"
   id="line1105" />
			<line
   class="st3"
   x1="453.1"
   y1="-49.2"
   x2="353.4"
   y2="123.4"
   id="line1107" />
			<line
   class="st3"
   x1="424.7"
   y1="-49.2"
   x2="325"
   y2="123.4"
   id="line1109" />
			<line
   class="st3"
   x1="396.3"
   y1="-49.2"
   x2="296.6"
   y2="123.4"
   id="line1111" />
			<line
   class="st3"
   x1="367.9"
   y1="-49.2"
   x2="268.2"
   y2="123.4"
   id="line1113" />
			<line
   class="st3"
   x1="339.4"
   y1="-49.2"
   x2="239.8"
   y2="123.4"
   id="line1115" />
			<line
   class="st3"
   x1="311"
   y1="-49.2"
   x2="211.3"
   y2="123.4"
   id="line1117" />
		</g>
		<line
   class="st3"
   x1="254.1"
   y1="-24.5"
   x2="863.2"
   y2="-24.5"
   id="line1121" />
		<g
   id="g1165">
			<line
   class="st3"
   x1="254.1"
   y1="-49.2"
   x2="353.6"
   y2="123.3"
   id="line1123" />
			<line
   class="st3"
   x1="225.7"
   y1="-49.2"
   x2="325.2"
   y2="123.3"
   id="line1125" />
			<line
   class="st3"
   x1="282.5"
   y1="-49.2"
   x2="382"
   y2="123.1"
   id="line1127" />
			<line
   class="st3"
   x1="310.9"
   y1="-49.2"
   x2="410.5"
   y2="123.3"
   id="line1129" />
			<line
   class="st3"
   x1="339.3"
   y1="-49.2"
   x2="438.9"
   y2="123.3"
   id="line1131" />
			<line
   class="st3"
   x1="367.7"
   y1="-49.2"
   x2="467.3"
   y2="123.3"
   id="line1133" />
			<line
   class="st3"
   x1="396.2"
   y1="-49.2"
   x2="495.7"
   y2="123.2"
   id="line1135" />
			<line
   class="st3"
   x1="424.6"
   y1="-49.2"
   x2="524"
   y2="123.1"
   id="line1137" />
			<line
   class="st3"
   x1="453"
   y1="-49.2"
   x2="552.6"
   y2="123.3"
   id="line1139" />
			<line
   class="st3"
   x1="481.4"
   y1="-49.2"
   x2="581"
   y2="123.3"
   id="line1141" />
			<line
   class="st3"
   x1="509.8"
   y1="-49.2"
   x2="609.3"
   y2="123.1"
   id="line1143" />
			<line
   class="st3"
   x1="538.2"
   y1="-49.2"
   x2="637.8"
   y2="123.3"
   id="line1145" />
			<line
   class="st3"
   x1="566.7"
   y1="-49.2"
   x2="666.1"
   y2="123.1"
   id="line1147" />
			<line
   class="st3"
   x1="595.1"
   y1="-49.2"
   x2="694.6"
   y2="123.3"
   id="line1149" />
			<line
   class="st3"
   x1="623.5"
   y1="-49.2"
   x2="723.1"
   y2="123.3"
   id="line1151" />
			<line
   class="st3"
   x1="651.9"
   y1="-49.2"
   x2="751.5"
   y2="123.3"
   id="line1153" />
			<line
   class="st3"
   x1="680.3"
   y1="-49.2"
   x2="779.9"
   y2="123.3"
   id="line1155" />
			<line
   class="st3"
   x1="708.7"
   y1="-49.2"
   x2="808.3"
   y2="123.3"
   id="line1157" />
			<line
   class="st3"
   x1="737.2"
   y1="-49.2"
   x2="836.7"
   y2="123.3"
   id="line1159" />
			<line
   class="st3"
   x1="765.6"
   y1="-49.2"
   x2="865.1"
   y2="123.3"
   id="line1161" />
			<line
   class="st3"
   x1="794"
   y1="-49.2"
   x2="893.6"
   y2="123.3"
   id="line1163" />
		</g>
	</g>
	<g
   class="st6"
   clip-path="url(#SVGID_4_)"
   id="g1207">
		<polygon
   class="st4"
   points="310.9,49.3 339.3,49.3 382,-24.5 353.5,-24.5   "
   id="polygon1169" />
		<polygon
   class="st4"
   points="382,24.7 410.4,24.7 453.1,-49.1 424.6,-49.1   "
   id="polygon1171" />
		<polygon
   class="st4"
   points="325,123.4 353.4,123.4 382,73.9 353.6,73.9   "
   id="polygon1173" />
		<polygon
   class="st4"
   points="552.5,123.4 580.9,123.4 609.5,73.9 581.1,73.9   "
   id="polygon1175" />
		<polygon
   class="st4"
   points="779.8,123.4 808.2,123.4 836.8,73.9 808.4,73.9   "
   id="polygon1177" />
		<polygon
   class="st4"
   points="467.3,73.9 495.7,73.9 524.1,24.7 495.7,24.7   "
   id="polygon1179" />
		<polygon
   class="st4"
   points="538.3,49.4 566.7,49.4 595.1,0.1 566.6,0.1   "
   id="polygon1181" />
		<polygon
   class="st4"
   points="453,0.1 481.4,0.1 509.8,-49.1 481.4,-49.1   "
   id="polygon1183" />
		<polygon
   class="st4"
   points="381.9,123.2 410.4,123.2 453.1,49.3 424.5,49.3   "
   id="polygon1185" />
		<polygon
   class="st4"
   points="353.6,74 367.8,49.3 339.4,49.3   "
   id="polygon1187" />
		<polygon
   class="st4"
   points="453.1,98.6 467.3,73.9 438.9,73.9   "
   id="polygon1189" />
		<polygon
   class="st4"
   points="495.7,24.7 509.9,0.1 481.5,0.1   "
   id="polygon1191" />
		<polygon
   class="st4"
   points="581,74 595.2,49.3 566.8,49.3   "
   id="polygon1193" />
		<polygon
   class="st4"
   points="467.3,24.7 453,0 438.8,24.7 453.1,49.4   "
   id="polygon1195" />
		<polygon
   class="st4"
   points="552.5,-24.6 538.2,-49.2 524,-24.6 538.3,0.1   "
   id="polygon1197" />
		<polygon
   class="st4"
   points="538.3,49.3 509.8,49.3 524.1,74 552.6,73.9   "
   id="polygon1199" />
		<polygon
   class="st4"
   points="410.4,24.7 396.2,49.3 424.6,49.3   "
   id="polygon1201" />
		<polygon
   class="st4"
   points="538.2,0.1 524,24.7 552.5,24.7   "
   id="polygon1203" />
		<polygon
   class="st4"
   points="552.6,73.9 538.4,98.6 566.8,98.6   "
   id="polygon1205" />
	</g>
	<g
   class="st6"
   clip-path="url(#SVGID_4_)"
   id="g1237">
		<polygon
   class="st4"
   points="609.4,24.7 637.8,24.7 680.4,-49.1 652,-49.1   "
   id="polygon1209" />
		<polygon
   class="st4"
   points="694.6,73.9 723,73.9 751.4,24.7 723,24.7   "
   id="polygon1211" />
		<polygon
   class="st4"
   points="765.6,49.4 794,49.4 822.4,0.1 794,0.1   "
   id="polygon1213" />
		<polygon
   class="st4"
   points="680.4,0.1 708.8,0.1 737.2,-49.1 708.7,-49.1   "
   id="polygon1215" />
		<polygon
   class="st4"
   points="609.3,123.2 637.8,123.2 680.4,49.3 651.9,49.3   "
   id="polygon1217" />
		<polygon
   class="st4"
   points="680.4,98.6 694.6,73.9 666.2,73.9   "
   id="polygon1219" />
		<polygon
   class="st4"
   points="723,24.7 737.2,0.1 708.8,0.1   "
   id="polygon1221" />
		<polygon
   class="st4"
   points="808.3,74 822.5,49.3 794.1,49.3   "
   id="polygon1223" />
		<polygon
   class="st4"
   points="694.6,24.7 680.4,0 666.1,24.7 680.4,49.4   "
   id="polygon1225" />
		<polygon
   class="st4"
   points="779.8,-24.6 765.6,-49.2 751.3,-24.6 765.6,0.1   "
   id="polygon1227" />
		<polygon
   class="st4"
   points="765.7,49.3 737.2,49.3 751.4,74 779.9,73.9   "
   id="polygon1229" />
		<polygon
   class="st4"
   points="637.8,24.7 623.6,49.3 652,49.3   "
   id="polygon1231" />
		<polygon
   class="st4"
   points="765.6,0.1 751.4,24.7 779.8,24.7   "
   id="polygon1233" />
		<polygon
   class="st4"
   points="779.9,73.9 765.7,98.6 794.1,98.6   "
   id="polygon1235" />
	</g>
</g>
</svg>