<?xml version="1.0" encoding="UTF-8" standalone="no"?>
<!-- Generator: Adobe Illustrator 23.0.6, SVG Export Plug-In . SVG Version: 6.00 Build 0)  -->

<svg
   xmlns:dc="http://purl.org/dc/elements/1.1/"
   xmlns:cc="http://creativecommons.org/ns#"
   xmlns:rdf="http://www.w3.org/1999/02/22-rdf-syntax-ns#"
   xmlns:svg="http://www.w3.org/2000/svg"
   xmlns="http://www.w3.org/2000/svg"
   xmlns:xlink="http://www.w3.org/1999/xlink"
   xmlns:sodipodi="http://sodipodi.sourceforge.net/DTD/sodipodi-0.dtd"
   xmlns:inkscape="http://www.inkscape.org/namespaces/inkscape"
   version="1.1"
   id="Layer_1"
   x="0px"
   y="0px"
   width="8.27in"
   height="11.69in"
   viewBox="0 0 800 1131.428"
   xml:space="preserve"
   sodipodi:docname="A5-front-no-product.svg"
   inkscape:version="0.92.4 (5da689c313, 2019-01-14)"><metadata
   id="metadata4517"><rdf:RDF><cc:Work
       rdf:about=""><dc:format>image/svg+xml</dc:format><dc:type
         rdf:resource="http://purl.org/dc/dcmitype/StillImage" /><dc:title></dc:title></cc:Work></rdf:RDF></metadata><defs
   id="defs4515" /><sodipodi:namedview
   pagecolor="#ffffff"
   bordercolor="#666666"
   borderopacity="1"
   objecttolerance="10"
   gridtolerance="10"
   guidetolerance="10"
   inkscape:pageopacity="0"
   inkscape:pageshadow="2"
   inkscape:window-width="1920"
   inkscape:window-height="1017"
   id="namedview4513"
   showgrid="true"
   showguides="false"
   inkscape:zoom="0.75563162"
   inkscape:cx="328.11257"
   inkscape:cy="594.60094"
   inkscape:window-x="-8"
   inkscape:window-y="-8"
   inkscape:window-maximized="1"
   inkscape:current-layer="Layer_1"><inkscape:grid
     type="xygrid"
     id="grid5333" /></sodipodi:namedview>
<style
   type="text/css"
   id="style4116">
	.st0{fill:#1226AA;}
	.st1{clip-path:url(#SVGID_2_);}
	.st2{fill:none;stroke:#FFFFFF;stroke-width:0.7087;stroke-linejoin:bevel;stroke-miterlimit:10;}
	.st3{fill:#FFFFFF;}
</style>

<rect
   x="-1.811"
   y="818.88995"
   class="st0"
   width="803.62299"
   height="315.10007"
   id="rect4118"
   style="display:inline;opacity:1;fill:#1226aa;stroke-width:0.52653784" /><g
   id="g4490">
	<defs
   id="defs4121">
		<rect
   id="SVGID_1_"
   x="-1.811"
   y="799.08698"
   width="803.62299"
   height="334.90201" />
	</defs>
	<clipPath
   id="SVGID_2_">
		<use
   xlink:href="#SVGID_1_"
   style="overflow:visible"
   id="use4123"
   x="0"
   y="0"
   width="100%"
   height="100%" />
	</clipPath>
	<g
   class="st1"
   clip-path="url(#SVGID_2_)"
   id="g4488"
   style="display:inline">
		<g
   id="g4190">
			<polygon
   class="st2"
   points="-309.174,818.788 -223.214,818.788 -266.194,897.588 "
   id="polygon4126"
   style="fill:none;stroke:#ffffff;stroke-width:0.7087;stroke-linejoin:bevel;stroke-miterlimit:10" />
			<polygon
   class="st2"
   points="-180.233,897.588 -266.194,897.588 -223.214,818.788 "
   id="polygon4128"
   style="fill:none;stroke:#ffffff;stroke-width:0.7087;stroke-linejoin:bevel;stroke-miterlimit:10" />
			<polygon
   class="st2"
   points="-223.214,818.788 -137.253,818.788 -180.233,897.588 "
   id="polygon4130"
   style="fill:none;stroke:#ffffff;stroke-width:0.7087;stroke-linejoin:bevel;stroke-miterlimit:10" />
			<polygon
   class="st2"
   points="-94.273,897.588 -180.233,897.588 -137.253,818.788 "
   id="polygon4132"
   style="fill:none;stroke:#ffffff;stroke-width:0.7087;stroke-linejoin:bevel;stroke-miterlimit:10" />
			<polygon
   class="st2"
   points="-137.253,818.788 -51.293,818.788 -94.273,897.588 "
   id="polygon4134"
   style="fill:none;stroke:#ffffff;stroke-width:0.7087;stroke-linejoin:bevel;stroke-miterlimit:10" />
			<polygon
   class="st2"
   points="-8.312,897.588 -94.273,897.588 -51.293,818.788 "
   id="polygon4136"
   style="fill:none;stroke:#ffffff;stroke-width:0.7087;stroke-linejoin:bevel;stroke-miterlimit:10" />
			<polygon
   class="st2"
   points="-51.293,818.788 34.668,818.788 -8.312,897.588 "
   id="polygon4138"
   style="fill:none;stroke:#ffffff;stroke-width:0.7087;stroke-linejoin:bevel;stroke-miterlimit:10" />
			<polygon
   class="st2"
   points="77.648,897.588 -8.312,897.588 34.668,818.788 "
   id="polygon4140"
   style="fill:none;stroke:#ffffff;stroke-width:0.7087;stroke-linejoin:bevel;stroke-miterlimit:10" />
			<polygon
   class="st2"
   points="34.668,818.788 120.628,818.788 77.648,897.588 "
   id="polygon4142"
   style="fill:none;stroke:#ffffff;stroke-width:0.7087;stroke-linejoin:bevel;stroke-miterlimit:10" />
			<polygon
   class="st2"
   points="163.609,897.588 77.648,897.588 120.628,818.788 "
   id="polygon4144"
   style="fill:none;stroke:#ffffff;stroke-width:0.7087;stroke-linejoin:bevel;stroke-miterlimit:10" />
			<polygon
   class="st2"
   points="120.628,818.788 206.589,818.788 163.609,897.588 "
   id="polygon4146"
   style="fill:none;stroke:#ffffff;stroke-width:0.7087;stroke-linejoin:bevel;stroke-miterlimit:10" />
			<polygon
   class="st2"
   points="249.569,897.588 163.609,897.588 206.589,818.788 "
   id="polygon4148"
   style="fill:none;stroke:#ffffff;stroke-width:0.7087;stroke-linejoin:bevel;stroke-miterlimit:10" />
			<polygon
   class="st2"
   points="206.589,818.788 292.549,818.788 249.569,897.588 "
   id="polygon4150"
   style="fill:none;stroke:#ffffff;stroke-width:0.7087;stroke-linejoin:bevel;stroke-miterlimit:10" />
			<polygon
   class="st2"
   points="335.53,897.588 249.569,897.588 292.549,818.788 "
   id="polygon4152"
   style="fill:none;stroke:#ffffff;stroke-width:0.7087;stroke-linejoin:bevel;stroke-miterlimit:10" />
			<polygon
   class="st2"
   points="292.549,818.788 378.51,818.788 335.53,897.588 "
   id="polygon4154"
   style="fill:none;stroke:#ffffff;stroke-width:0.7087;stroke-linejoin:bevel;stroke-miterlimit:10" />
			<polygon
   class="st2"
   points="421.49,897.588 335.53,897.588 378.51,818.788 "
   id="polygon4156"
   style="fill:none;stroke:#ffffff;stroke-width:0.7087;stroke-linejoin:bevel;stroke-miterlimit:10" />
			<polygon
   class="st2"
   points="-309.174,976.389 -223.214,976.389 -266.194,897.588 "
   id="polygon4158"
   style="fill:none;stroke:#ffffff;stroke-width:0.7087;stroke-linejoin:bevel;stroke-miterlimit:10" />
			<polygon
   class="st2"
   points="-180.233,897.588 -266.194,897.588 -223.214,976.389 "
   id="polygon4160"
   style="fill:none;stroke:#ffffff;stroke-width:0.7087;stroke-linejoin:bevel;stroke-miterlimit:10" />
			<polygon
   class="st2"
   points="-223.214,976.389 -137.253,976.389 -180.233,897.588 "
   id="polygon4162"
   style="fill:none;stroke:#ffffff;stroke-width:0.7087;stroke-linejoin:bevel;stroke-miterlimit:10" />
			<polygon
   class="st2"
   points="-94.273,897.588 -180.233,897.588 -137.253,976.389 "
   id="polygon4164"
   style="fill:none;stroke:#ffffff;stroke-width:0.7087;stroke-linejoin:bevel;stroke-miterlimit:10" />
			<polygon
   class="st2"
   points="-137.253,976.389 -51.293,976.389 -94.273,897.588 "
   id="polygon4166"
   style="fill:none;stroke:#ffffff;stroke-width:0.7087;stroke-linejoin:bevel;stroke-miterlimit:10" />
			<polygon
   class="st2"
   points="-8.312,897.588 -94.273,897.588 -51.293,976.389 "
   id="polygon4168"
   style="fill:none;stroke:#ffffff;stroke-width:0.7087;stroke-linejoin:bevel;stroke-miterlimit:10" />
			<polygon
   class="st2"
   points="-51.293,976.389 34.668,976.389 -8.312,897.588 "
   id="polygon4170"
   style="fill:none;stroke:#ffffff;stroke-width:0.7087;stroke-linejoin:bevel;stroke-miterlimit:10" />
			<polygon
   class="st2"
   points="77.648,897.588 -8.312,897.588 34.668,976.389 "
   id="polygon4172"
   style="fill:none;stroke:#ffffff;stroke-width:0.7087;stroke-linejoin:bevel;stroke-miterlimit:10" />
			<polygon
   class="st2"
   points="34.668,976.389 120.628,976.389 77.648,897.588 "
   id="polygon4174"
   style="fill:none;stroke:#ffffff;stroke-width:0.7087;stroke-linejoin:bevel;stroke-miterlimit:10" />
			<polygon
   class="st2"
   points="163.609,897.588 77.648,897.588 120.628,976.389 "
   id="polygon4176"
   style="fill:none;stroke:#ffffff;stroke-width:0.7087;stroke-linejoin:bevel;stroke-miterlimit:10" />
			<polygon
   class="st2"
   points="120.628,976.389 206.589,976.389 163.609,897.588 "
   id="polygon4178"
   style="fill:none;stroke:#ffffff;stroke-width:0.7087;stroke-linejoin:bevel;stroke-miterlimit:10" />
			<polygon
   class="st2"
   points="249.569,897.588 163.609,897.588 206.589,976.389 "
   id="polygon4180"
   style="fill:none;stroke:#ffffff;stroke-width:0.7087;stroke-linejoin:bevel;stroke-miterlimit:10" />
			<polygon
   class="st2"
   points="206.589,976.389 292.549,976.389 249.569,897.588 "
   id="polygon4182"
   style="fill:none;stroke:#ffffff;stroke-width:0.7087;stroke-linejoin:bevel;stroke-miterlimit:10" />
			<polygon
   class="st2"
   points="335.53,897.588 249.569,897.588 292.549,976.389 "
   id="polygon4184"
   style="fill:none;stroke:#ffffff;stroke-width:0.7087;stroke-linejoin:bevel;stroke-miterlimit:10" />
			<polygon
   class="st2"
   points="292.549,976.389 378.51,976.389 335.53,897.588 "
   id="polygon4186"
   style="fill:none;stroke:#ffffff;stroke-width:0.7087;stroke-linejoin:bevel;stroke-miterlimit:10" />
			<polygon
   class="st2"
   points="421.49,897.588 335.53,897.588 378.51,976.389 "
   id="polygon4188"
   style="fill:none;stroke:#ffffff;stroke-width:0.7087;stroke-linejoin:bevel;stroke-miterlimit:10" />
		</g>
		<g
   id="g4218">
			<polygon
   class="st3"
   points="-309.174,818.788 -223.214,818.788 -266.194,897.588 "
   id="polygon4192"
   style="fill:#ffffff" />
			<polygon
   class="st3"
   points="-309.174,976.389 -223.214,976.389 -266.194,897.588 "
   id="polygon4194"
   style="fill:#ffffff" />
			<polygon
   class="st3"
   points="-180.233,897.588 -266.194,897.588 -223.214,976.389 "
   id="polygon4196"
   style="fill:#ffffff" />
			<polygon
   class="st3"
   points="-223.214,976.389 -137.253,976.389 -180.233,897.588 "
   id="polygon4198"
   style="fill:#ffffff" />
			<polygon
   class="st3"
   points="-8.312,897.588 -94.273,897.588 -51.293,818.788 "
   id="polygon4200"
   style="fill:#ffffff" />
			<polygon
   class="st3"
   points="-51.293,818.788 34.668,818.788 -8.312,897.588 "
   id="polygon4202"
   style="fill:#ffffff" />
			<polygon
   class="st3"
   points="-137.253,976.389 -51.293,976.389 -94.273,897.588 "
   id="polygon4204"
   style="fill:#ffffff" />
			<polygon
   class="st3"
   points="-8.312,897.588 -94.273,897.588 -51.293,976.389 "
   id="polygon4206"
   style="fill:#ffffff" />
			<polygon
   class="st3"
   points="163.609,897.588 77.648,897.588 120.628,818.788 "
   id="polygon4208"
   style="fill:#ffffff" />
			<polygon
   class="st3"
   points="120.628,818.788 206.589,818.788 163.609,897.588 "
   id="polygon4210"
   style="fill:#ffffff" />
			<polygon
   class="st3"
   points="335.53,897.588 249.569,897.588 292.549,818.788 "
   id="polygon4212"
   style="fill:#ffffff" />
			<polygon
   class="st3"
   points="120.628,976.389 206.589,976.389 163.609,897.588 "
   id="polygon4214"
   style="fill:#ffffff" />
			<polygon
   class="st3"
   points="335.53,897.588 249.569,897.588 292.549,976.389 "
   id="polygon4216"
   style="fill:#ffffff" />
		</g>
		<g
   id="g4278">
			<polygon
   class="st2"
   points="-309.174,976.389 -223.214,976.389 -266.194,1055.189 "
   id="polygon4220"
   style="fill:none;stroke:#ffffff;stroke-width:0.7087;stroke-linejoin:bevel;stroke-miterlimit:10" />
			<polygon
   class="st2"
   points="-180.233,1055.189 -266.194,1055.189 -223.214,976.389 "
   id="polygon4222"
   style="fill:none;stroke:#ffffff;stroke-width:0.7087;stroke-linejoin:bevel;stroke-miterlimit:10" />
			<polygon
   class="st2"
   points="-223.214,976.389 -137.253,976.389 -180.233,1055.189 "
   id="polygon4224"
   style="fill:none;stroke:#ffffff;stroke-width:0.7087;stroke-linejoin:bevel;stroke-miterlimit:10" />
			<polygon
   class="st2"
   points="-94.273,1055.189 -180.233,1055.189 -137.253,976.389 "
   id="polygon4226"
   style="fill:none;stroke:#ffffff;stroke-width:0.7087;stroke-linejoin:bevel;stroke-miterlimit:10" />
			<polygon
   class="st2"
   points="-137.253,976.389 -51.293,976.389 -94.273,1055.189 "
   id="polygon4228"
   style="fill:none;stroke:#ffffff;stroke-width:0.7087;stroke-linejoin:bevel;stroke-miterlimit:10" />
			<polygon
   class="st2"
   points="-8.312,1055.189 -94.273,1055.189 -51.293,976.389 "
   id="polygon4230"
   style="fill:none;stroke:#ffffff;stroke-width:0.7087;stroke-linejoin:bevel;stroke-miterlimit:10" />
			<polygon
   class="st2"
   points="-51.293,976.389 34.668,976.389 -8.312,1055.189 "
   id="polygon4232"
   style="fill:none;stroke:#ffffff;stroke-width:0.7087;stroke-linejoin:bevel;stroke-miterlimit:10" />
			<polygon
   class="st2"
   points="77.648,1055.189 -8.312,1055.189 34.668,976.389 "
   id="polygon4234"
   style="fill:none;stroke:#ffffff;stroke-width:0.7087;stroke-linejoin:bevel;stroke-miterlimit:10" />
			<polygon
   class="st2"
   points="249.569,1055.189 163.609,1055.189 206.589,976.389 "
   id="polygon4236"
   style="fill:none;stroke:#ffffff;stroke-width:0.7087;stroke-linejoin:bevel;stroke-miterlimit:10" />
			<polygon
   class="st2"
   points="206.589,976.389 292.549,976.389 249.569,1055.189 "
   id="polygon4238"
   style="fill:none;stroke:#ffffff;stroke-width:0.7087;stroke-linejoin:bevel;stroke-miterlimit:10" />
			<polygon
   class="st2"
   points="335.53,1055.189 249.569,1055.189 292.549,976.389 "
   id="polygon4240"
   style="fill:none;stroke:#ffffff;stroke-width:0.7087;stroke-linejoin:bevel;stroke-miterlimit:10" />
			<polygon
   class="st2"
   points="292.549,976.389 378.51,976.389 335.53,1055.189 "
   id="polygon4242"
   style="fill:none;stroke:#ffffff;stroke-width:0.7087;stroke-linejoin:bevel;stroke-miterlimit:10" />
			<polygon
   class="st2"
   points="421.49,1055.189 335.53,1055.189 378.51,976.389 "
   id="polygon4244"
   style="fill:none;stroke:#ffffff;stroke-width:0.7087;stroke-linejoin:bevel;stroke-miterlimit:10" />
			<polygon
   class="st2"
   points="-309.174,1133.99 -223.214,1133.99 -266.194,1055.189 "
   id="polygon4246"
   style="fill:none;stroke:#ffffff;stroke-width:0.7087;stroke-linejoin:bevel;stroke-miterlimit:10" />
			<polygon
   class="st2"
   points="-180.233,1055.189 -266.194,1055.189 -223.214,1133.99 "
   id="polygon4248"
   style="fill:none;stroke:#ffffff;stroke-width:0.7087;stroke-linejoin:bevel;stroke-miterlimit:10" />
			<polygon
   class="st2"
   points="-223.214,1133.99 -137.253,1133.99 -180.233,1055.189 "
   id="polygon4250"
   style="fill:none;stroke:#ffffff;stroke-width:0.7087;stroke-linejoin:bevel;stroke-miterlimit:10" />
			<polygon
   class="st2"
   points="-94.273,1055.189 -180.233,1055.189 -137.253,1133.99 "
   id="polygon4252"
   style="fill:none;stroke:#ffffff;stroke-width:0.7087;stroke-linejoin:bevel;stroke-miterlimit:10" />
			<polygon
   class="st2"
   points="-137.253,1133.99 -51.293,1133.99 -94.273,1055.189 "
   id="polygon4254"
   style="fill:none;stroke:#ffffff;stroke-width:0.7087;stroke-linejoin:bevel;stroke-miterlimit:10" />
			<polygon
   class="st2"
   points="-8.312,1055.189 -94.273,1055.189 -51.293,1133.99 "
   id="polygon4256"
   style="fill:none;stroke:#ffffff;stroke-width:0.7087;stroke-linejoin:bevel;stroke-miterlimit:10" />
			<polygon
   class="st2"
   points="-51.293,1133.99 34.668,1133.99 -8.312,1055.189 "
   id="polygon4258"
   style="fill:none;stroke:#ffffff;stroke-width:0.7087;stroke-linejoin:bevel;stroke-miterlimit:10" />
			<polygon
   class="st2"
   points="77.648,1055.189 -8.312,1055.189 34.668,1133.99 "
   id="polygon4260"
   style="fill:none;stroke:#ffffff;stroke-width:0.7087;stroke-linejoin:bevel;stroke-miterlimit:10" />
			<polygon
   class="st2"
   points="34.668,1133.99 120.628,1133.99 77.648,1055.189 "
   id="polygon4262"
   style="fill:none;stroke:#ffffff;stroke-width:0.7087;stroke-linejoin:bevel;stroke-miterlimit:10" />
			<polygon
   class="st2"
   points="163.609,1055.189 77.648,1055.189 120.628,1133.99 "
   id="polygon4264"
   style="fill:none;stroke:#ffffff;stroke-width:0.7087;stroke-linejoin:bevel;stroke-miterlimit:10" />
			<polygon
   class="st2"
   points="120.628,1133.99 206.589,1133.99 163.609,1055.189 "
   id="polygon4266"
   style="fill:none;stroke:#ffffff;stroke-width:0.7087;stroke-linejoin:bevel;stroke-miterlimit:10" />
			<polygon
   class="st2"
   points="249.569,1055.189 163.609,1055.189 206.589,1133.99 "
   id="polygon4268"
   style="fill:none;stroke:#ffffff;stroke-width:0.7087;stroke-linejoin:bevel;stroke-miterlimit:10" />
			<polygon
   class="st2"
   points="206.589,1133.99 292.549,1133.99 249.569,1055.189 "
   id="polygon4270"
   style="fill:none;stroke:#ffffff;stroke-width:0.7087;stroke-linejoin:bevel;stroke-miterlimit:10" />
			<polygon
   class="st2"
   points="335.53,1055.189 249.569,1055.189 292.549,1133.99 "
   id="polygon4272"
   style="fill:none;stroke:#ffffff;stroke-width:0.7087;stroke-linejoin:bevel;stroke-miterlimit:10" />
			<polygon
   class="st2"
   points="292.549,1133.99 378.51,1133.99 335.53,1055.189 "
   id="polygon4274"
   style="fill:none;stroke:#ffffff;stroke-width:0.7087;stroke-linejoin:bevel;stroke-miterlimit:10" />
			<polygon
   class="st2"
   points="421.49,1055.189 335.53,1055.189 378.51,1133.99 "
   id="polygon4276"
   style="fill:none;stroke:#ffffff;stroke-width:0.7087;stroke-linejoin:bevel;stroke-miterlimit:10" />
		</g>
		<g
   id="g4302">
			<polygon
   class="st3"
   points="-51.293,976.389 34.668,976.389 -8.312,1055.189 "
   id="polygon4280"
   style="fill:#ffffff" />
			<polygon
   class="st3"
   points="249.569,1055.189 163.609,1055.189 206.589,976.389 "
   id="polygon4282"
   style="fill:#ffffff" />
			<polygon
   class="st3"
   points="206.589,976.389 292.549,976.389 249.569,1055.189 "
   id="polygon4284"
   style="fill:#ffffff" />
			<polygon
   class="st3"
   points="421.49,1055.189 335.53,1055.189 378.51,976.389 "
   id="polygon4286"
   style="fill:#ffffff" />
			<polygon
   class="st3"
   points="-309.174,1133.99 -223.214,1133.99 -266.194,1055.189 "
   id="polygon4288"
   style="fill:#ffffff" />
			<polygon
   class="st3"
   points="-223.214,1133.99 -137.253,1133.99 -180.233,1055.189 "
   id="polygon4290"
   style="fill:#ffffff" />
			<polygon
   class="st3"
   points="-51.293,1133.99 34.668,1133.99 -8.312,1055.189 "
   id="polygon4292"
   style="fill:#ffffff" />
			<polygon
   class="st3"
   points="77.648,1055.189 -8.312,1055.189 34.668,1133.99 "
   id="polygon4294"
   style="fill:#ffffff" />
			<polygon
   class="st3"
   points="120.628,1133.99 206.589,1133.99 163.609,1055.189 "
   id="polygon4296"
   style="fill:#ffffff" />
			<polygon
   class="st3"
   points="249.569,1055.189 163.609,1055.189 206.589,1133.99 "
   id="polygon4298"
   style="fill:#ffffff" />
			<polygon
   class="st3"
   points="335.53,1055.189 249.569,1055.189 292.549,1133.99 "
   id="polygon4300"
   style="fill:#ffffff" />
		</g>
		<g
   id="g4368">
			<polygon
   class="st2"
   points="378.51,818.788 464.47,818.788 421.49,897.588 "
   id="polygon4304"
   style="fill:none;stroke:#ffffff;stroke-width:0.7087;stroke-linejoin:bevel;stroke-miterlimit:10" />
			<polygon
   class="st2"
   points="507.451,897.588 421.49,897.588 464.47,818.788 "
   id="polygon4306"
   style="fill:none;stroke:#ffffff;stroke-width:0.7087;stroke-linejoin:bevel;stroke-miterlimit:10" />
			<polygon
   class="st2"
   points="464.47,818.788 550.431,818.788 507.451,897.588 "
   id="polygon4308"
   style="fill:none;stroke:#ffffff;stroke-width:0.7087;stroke-linejoin:bevel;stroke-miterlimit:10" />
			<polygon
   class="st2"
   points="593.411,897.588 507.451,897.588 550.431,818.788 "
   id="polygon4310"
   style="fill:none;stroke:#ffffff;stroke-width:0.7087;stroke-linejoin:bevel;stroke-miterlimit:10" />
			<polygon
   class="st2"
   points="550.431,818.788 636.391,818.788 593.411,897.588 "
   id="polygon4312"
   style="fill:none;stroke:#ffffff;stroke-width:0.7087;stroke-linejoin:bevel;stroke-miterlimit:10" />
			<polygon
   class="st2"
   points="679.372,897.588 593.411,897.588 636.391,818.788 "
   id="polygon4314"
   style="fill:none;stroke:#ffffff;stroke-width:0.7087;stroke-linejoin:bevel;stroke-miterlimit:10" />
			<polygon
   class="st2"
   points="636.391,818.788 722.352,818.788 679.372,897.588 "
   id="polygon4316"
   style="fill:none;stroke:#ffffff;stroke-width:0.7087;stroke-linejoin:bevel;stroke-miterlimit:10" />
			<polygon
   class="st2"
   points="765.332,897.588 679.372,897.588 722.352,818.788 "
   id="polygon4318"
   style="fill:none;stroke:#ffffff;stroke-width:0.7087;stroke-linejoin:bevel;stroke-miterlimit:10" />
			<polygon
   class="st2"
   points="722.352,818.788 808.312,818.788 765.332,897.588 "
   id="polygon4320"
   style="fill:none;stroke:#ffffff;stroke-width:0.7087;stroke-linejoin:bevel;stroke-miterlimit:10" />
			<polygon
   class="st2"
   points="851.293,897.588 765.332,897.588 808.312,818.788 "
   id="polygon4322"
   style="fill:none;stroke:#ffffff;stroke-width:0.7087;stroke-linejoin:bevel;stroke-miterlimit:10" />
			<polygon
   class="st2"
   points="808.312,818.788 894.273,818.788 851.293,897.588 "
   id="polygon4324"
   style="fill:none;stroke:#ffffff;stroke-width:0.7087;stroke-linejoin:bevel;stroke-miterlimit:10" />
			<polygon
   class="st2"
   points="937.253,897.588 851.293,897.588 894.273,818.788 "
   id="polygon4326"
   style="fill:none;stroke:#ffffff;stroke-width:0.7087;stroke-linejoin:bevel;stroke-miterlimit:10" />
			<polygon
   class="st2"
   points="894.273,818.788 980.233,818.788 937.253,897.588 "
   id="polygon4328"
   style="fill:none;stroke:#ffffff;stroke-width:0.7087;stroke-linejoin:bevel;stroke-miterlimit:10" />
			<polygon
   class="st2"
   points="1023.214,897.588 937.253,897.588 980.233,818.788 "
   id="polygon4330"
   style="fill:none;stroke:#ffffff;stroke-width:0.7087;stroke-linejoin:bevel;stroke-miterlimit:10" />
			<polygon
   class="st2"
   points="980.233,818.788 1066.194,818.788 1023.214,897.588 "
   id="polygon4332"
   style="fill:none;stroke:#ffffff;stroke-width:0.7087;stroke-linejoin:bevel;stroke-miterlimit:10" />
			<polygon
   class="st2"
   points="1109.174,897.588 1023.214,897.588 1066.194,818.788 "
   id="polygon4334"
   style="fill:none;stroke:#ffffff;stroke-width:0.7087;stroke-linejoin:bevel;stroke-miterlimit:10" />
			<polygon
   class="st2"
   points="378.51,976.389 464.47,976.389 421.49,897.588 "
   id="polygon4336"
   style="fill:none;stroke:#ffffff;stroke-width:0.7087;stroke-linejoin:bevel;stroke-miterlimit:10" />
			<polygon
   class="st2"
   points="507.451,897.588 421.49,897.588 464.47,976.389 "
   id="polygon4338"
   style="fill:none;stroke:#ffffff;stroke-width:0.7087;stroke-linejoin:bevel;stroke-miterlimit:10" />
			<polygon
   class="st2"
   points="464.47,976.389 550.431,976.389 507.451,897.588 "
   id="polygon4340"
   style="fill:none;stroke:#ffffff;stroke-width:0.7087;stroke-linejoin:bevel;stroke-miterlimit:10" />
			<polygon
   class="st2"
   points="593.411,897.588 507.451,897.588 550.431,976.389 "
   id="polygon4342"
   style="fill:none;stroke:#ffffff;stroke-width:0.7087;stroke-linejoin:bevel;stroke-miterlimit:10" />
			<polygon
   class="st2"
   points="550.431,976.389 636.391,976.389 593.411,897.588 "
   id="polygon4344"
   style="fill:none;stroke:#ffffff;stroke-width:0.7087;stroke-linejoin:bevel;stroke-miterlimit:10" />
			<polygon
   class="st2"
   points="679.372,897.588 593.411,897.588 636.391,976.389 "
   id="polygon4346"
   style="fill:none;stroke:#ffffff;stroke-width:0.7087;stroke-linejoin:bevel;stroke-miterlimit:10" />
			<polygon
   class="st2"
   points="636.391,976.389 722.352,976.389 679.372,897.588 "
   id="polygon4348"
   style="fill:none;stroke:#ffffff;stroke-width:0.7087;stroke-linejoin:bevel;stroke-miterlimit:10" />
			<polygon
   class="st2"
   points="765.332,897.588 679.372,897.588 722.352,976.389 "
   id="polygon4350"
   style="fill:none;stroke:#ffffff;stroke-width:0.7087;stroke-linejoin:bevel;stroke-miterlimit:10" />
			<polygon
   class="st2"
   points="722.352,976.389 808.312,976.389 765.332,897.588 "
   id="polygon4352"
   style="fill:none;stroke:#ffffff;stroke-width:0.7087;stroke-linejoin:bevel;stroke-miterlimit:10" />
			<polygon
   class="st2"
   points="851.293,897.588 765.332,897.588 808.312,976.389 "
   id="polygon4354"
   style="fill:none;stroke:#ffffff;stroke-width:0.7087;stroke-linejoin:bevel;stroke-miterlimit:10" />
			<polygon
   class="st2"
   points="808.312,976.389 894.273,976.389 851.293,897.588 "
   id="polygon4356"
   style="fill:none;stroke:#ffffff;stroke-width:0.7087;stroke-linejoin:bevel;stroke-miterlimit:10" />
			<polygon
   class="st2"
   points="937.253,897.588 851.293,897.588 894.273,976.389 "
   id="polygon4358"
   style="fill:none;stroke:#ffffff;stroke-width:0.7087;stroke-linejoin:bevel;stroke-miterlimit:10" />
			<polygon
   class="st2"
   points="894.273,976.389 980.233,976.389 937.253,897.588 "
   id="polygon4360"
   style="fill:none;stroke:#ffffff;stroke-width:0.7087;stroke-linejoin:bevel;stroke-miterlimit:10" />
			<polygon
   class="st2"
   points="1023.214,897.588 937.253,897.588 980.233,976.389 "
   id="polygon4362"
   style="fill:none;stroke:#ffffff;stroke-width:0.7087;stroke-linejoin:bevel;stroke-miterlimit:10" />
			<polygon
   class="st2"
   points="980.233,976.389 1066.194,976.389 1023.214,897.588 "
   id="polygon4364"
   style="fill:none;stroke:#ffffff;stroke-width:0.7087;stroke-linejoin:bevel;stroke-miterlimit:10" />
			<polygon
   class="st2"
   points="1109.174,897.588 1023.214,897.588 1066.194,976.389 "
   id="polygon4366"
   style="fill:none;stroke:#ffffff;stroke-width:0.7087;stroke-linejoin:bevel;stroke-miterlimit:10" />
		</g>
		<g
   id="g4434">
			<polygon
   class="st2"
   points="378.51,976.389 464.47,976.389 421.49,1055.189 "
   id="polygon4370"
   style="fill:none;stroke:#ffffff;stroke-width:0.7087;stroke-linejoin:bevel;stroke-miterlimit:10" />
			<polygon
   class="st2"
   points="507.451,1055.189 421.49,1055.189 464.47,976.389 "
   id="polygon4372"
   style="fill:none;stroke:#ffffff;stroke-width:0.7087;stroke-linejoin:bevel;stroke-miterlimit:10" />
			<polygon
   class="st2"
   points="464.47,976.389 550.431,976.389 507.451,1055.189 "
   id="polygon4374"
   style="fill:none;stroke:#ffffff;stroke-width:0.7087;stroke-linejoin:bevel;stroke-miterlimit:10" />
			<polygon
   class="st2"
   points="593.411,1055.189 507.451,1055.189 550.431,976.389 "
   id="polygon4376"
   style="fill:none;stroke:#ffffff;stroke-width:0.7087;stroke-linejoin:bevel;stroke-miterlimit:10" />
			<polygon
   class="st2"
   points="550.431,976.389 636.391,976.389 593.411,1055.189 "
   id="polygon4378"
   style="fill:none;stroke:#ffffff;stroke-width:0.7087;stroke-linejoin:bevel;stroke-miterlimit:10" />
			<polygon
   class="st2"
   points="679.372,1055.189 593.411,1055.189 636.391,976.389 "
   id="polygon4380"
   style="fill:none;stroke:#ffffff;stroke-width:0.7087;stroke-linejoin:bevel;stroke-miterlimit:10" />
			<polygon
   class="st2"
   points="636.391,976.389 722.352,976.389 679.372,1055.189 "
   id="polygon4382"
   style="fill:none;stroke:#ffffff;stroke-width:0.7087;stroke-linejoin:bevel;stroke-miterlimit:10" />
			<polygon
   class="st2"
   points="765.332,1055.189 679.372,1055.189 722.352,976.389 "
   id="polygon4384"
   style="fill:none;stroke:#ffffff;stroke-width:0.7087;stroke-linejoin:bevel;stroke-miterlimit:10" />
			<polygon
   class="st2"
   points="722.352,976.389 808.312,976.389 765.332,1055.189 "
   id="polygon4386"
   style="fill:none;stroke:#ffffff;stroke-width:0.7087;stroke-linejoin:bevel;stroke-miterlimit:10" />
			<polygon
   class="st2"
   points="851.293,1055.189 765.332,1055.189 808.312,976.389 "
   id="polygon4388"
   style="fill:none;stroke:#ffffff;stroke-width:0.7087;stroke-linejoin:bevel;stroke-miterlimit:10" />
			<polygon
   class="st2"
   points="808.312,976.389 894.273,976.389 851.293,1055.189 "
   id="polygon4390"
   style="fill:none;stroke:#ffffff;stroke-width:0.7087;stroke-linejoin:bevel;stroke-miterlimit:10" />
			<polygon
   class="st2"
   points="937.253,1055.189 851.293,1055.189 894.273,976.389 "
   id="polygon4392"
   style="fill:none;stroke:#ffffff;stroke-width:0.7087;stroke-linejoin:bevel;stroke-miterlimit:10" />
			<polygon
   class="st2"
   points="894.273,976.389 980.233,976.389 937.253,1055.189 "
   id="polygon4394"
   style="fill:none;stroke:#ffffff;stroke-width:0.7087;stroke-linejoin:bevel;stroke-miterlimit:10" />
			<polygon
   class="st2"
   points="1023.214,1055.189 937.253,1055.189 980.233,976.389 "
   id="polygon4396"
   style="fill:none;stroke:#ffffff;stroke-width:0.7087;stroke-linejoin:bevel;stroke-miterlimit:10" />
			<polygon
   class="st2"
   points="980.233,976.389 1066.194,976.389 1023.214,1055.189 "
   id="polygon4398"
   style="fill:none;stroke:#ffffff;stroke-width:0.7087;stroke-linejoin:bevel;stroke-miterlimit:10" />
			<polygon
   class="st2"
   points="1109.174,1055.189 1023.214,1055.189 1066.194,976.389 "
   id="polygon4400"
   style="fill:none;stroke:#ffffff;stroke-width:0.7087;stroke-linejoin:bevel;stroke-miterlimit:10" />
			<polygon
   class="st2"
   points="378.51,1133.99 464.47,1133.99 421.49,1055.189 "
   id="polygon4402"
   style="fill:none;stroke:#ffffff;stroke-width:0.7087;stroke-linejoin:bevel;stroke-miterlimit:10" />
			<polygon
   class="st2"
   points="507.451,1055.189 421.49,1055.189 464.47,1133.99 "
   id="polygon4404"
   style="fill:none;stroke:#ffffff;stroke-width:0.7087;stroke-linejoin:bevel;stroke-miterlimit:10" />
			<polygon
   class="st2"
   points="464.47,1133.99 550.431,1133.99 507.451,1055.189 "
   id="polygon4406"
   style="fill:none;stroke:#ffffff;stroke-width:0.7087;stroke-linejoin:bevel;stroke-miterlimit:10" />
			<polygon
   class="st2"
   points="593.411,1055.189 507.451,1055.189 550.431,1133.99 "
   id="polygon4408"
   style="fill:none;stroke:#ffffff;stroke-width:0.7087;stroke-linejoin:bevel;stroke-miterlimit:10" />
			<polygon
   class="st2"
   points="550.431,1133.99 636.391,1133.99 593.411,1055.189 "
   id="polygon4410"
   style="fill:none;stroke:#ffffff;stroke-width:0.7087;stroke-linejoin:bevel;stroke-miterlimit:10" />
			<polygon
   class="st2"
   points="679.372,1055.189 593.411,1055.189 636.391,1133.99 "
   id="polygon4412"
   style="fill:none;stroke:#ffffff;stroke-width:0.7087;stroke-linejoin:bevel;stroke-miterlimit:10" />
			<polygon
   class="st2"
   points="636.391,1133.99 722.352,1133.99 679.372,1055.189 "
   id="polygon4414"
   style="fill:none;stroke:#ffffff;stroke-width:0.7087;stroke-linejoin:bevel;stroke-miterlimit:10" />
			<polygon
   class="st2"
   points="765.332,1055.189 679.372,1055.189 722.352,1133.99 "
   id="polygon4416"
   style="fill:none;stroke:#ffffff;stroke-width:0.7087;stroke-linejoin:bevel;stroke-miterlimit:10" />
			<polygon
   class="st2"
   points="722.352,1133.99 808.312,1133.99 765.332,1055.189 "
   id="polygon4418"
   style="fill:none;stroke:#ffffff;stroke-width:0.7087;stroke-linejoin:bevel;stroke-miterlimit:10" />
			<polygon
   class="st2"
   points="851.293,1055.189 765.332,1055.189 808.312,1133.99 "
   id="polygon4420"
   style="fill:none;stroke:#ffffff;stroke-width:0.7087;stroke-linejoin:bevel;stroke-miterlimit:10" />
			<polygon
   class="st2"
   points="808.312,1133.99 894.273,1133.99 851.293,1055.189 "
   id="polygon4422"
   style="fill:none;stroke:#ffffff;stroke-width:0.7087;stroke-linejoin:bevel;stroke-miterlimit:10" />
			<polygon
   class="st2"
   points="937.253,1055.189 851.293,1055.189 894.273,1133.99 "
   id="polygon4424"
   style="fill:none;stroke:#ffffff;stroke-width:0.7087;stroke-linejoin:bevel;stroke-miterlimit:10" />
			<polygon
   class="st2"
   points="894.273,1133.99 980.233,1133.99 937.253,1055.189 "
   id="polygon4426"
   style="fill:none;stroke:#ffffff;stroke-width:0.7087;stroke-linejoin:bevel;stroke-miterlimit:10" />
			<polygon
   class="st2"
   points="1023.214,1055.189 937.253,1055.189 980.233,1133.99 "
   id="polygon4428"
   style="fill:none;stroke:#ffffff;stroke-width:0.7087;stroke-linejoin:bevel;stroke-miterlimit:10" />
			<polygon
   class="st2"
   points="980.233,1133.99 1066.194,1133.99 1023.214,1055.189 "
   id="polygon4430"
   style="fill:none;stroke:#ffffff;stroke-width:0.7087;stroke-linejoin:bevel;stroke-miterlimit:10" />
			<polygon
   class="st2"
   points="1109.174,1055.189 1023.214,1055.189 1066.194,1133.99 "
   id="polygon4432"
   style="fill:none;stroke:#ffffff;stroke-width:0.7087;stroke-linejoin:bevel;stroke-miterlimit:10" />
		</g>
		<g
   id="g4462">
			<polygon
   class="st3"
   points="378.51,818.788 464.47,818.788 421.49,897.588 "
   id="polygon4436"
   style="fill:#ffffff" />
			<polygon
   class="st3"
   points="593.411,897.588 507.451,897.588 550.431,818.788 "
   id="polygon4438"
   style="fill:#ffffff" />
			<polygon
   class="st3"
   points="679.372,897.588 593.411,897.588 636.391,818.788 "
   id="polygon4440"
   style="fill:#ffffff" />
			<polygon
   class="st3"
   points="636.391,818.788 722.352,818.788 679.372,897.588 "
   id="polygon4442"
   style="fill:#ffffff" />
			<polygon
   class="st3"
   points="1023.214,897.588 937.253,897.588 980.233,818.788 "
   id="polygon4444"
   style="fill:#ffffff" />
			<polygon
   class="st3"
   points="378.51,976.389 464.47,976.389 421.49,897.588 "
   id="polygon4446"
   style="fill:#ffffff" />
			<polygon
   class="st3"
   points="507.451,897.588 421.49,897.588 464.47,976.389 "
   id="polygon4448"
   style="fill:#ffffff" />
			<polygon
   class="st3"
   points="550.431,976.389 636.391,976.389 593.411,897.588 "
   id="polygon4450"
   style="fill:#ffffff" />
			<polygon
   class="st3"
   points="679.372,897.588 593.411,897.588 636.391,976.389 "
   id="polygon4452"
   style="fill:#ffffff" />
			<polygon
   class="st3"
   points="851.293,897.588 765.332,897.588 808.312,976.389 "
   id="polygon4454"
   style="fill:#ffffff" />
			<polygon
   class="st3"
   points="894.273,976.389 980.233,976.389 937.253,897.588 "
   id="polygon4456"
   style="fill:#ffffff" />
			<polygon
   class="st3"
   points="1023.214,897.588 937.253,897.588 980.233,976.389 "
   id="polygon4458"
   style="fill:#ffffff" />
			<polygon
   class="st3"
   points="808.312,976.389 894.273,976.389 851.293,897.588 "
   id="polygon4460"
   style="fill:#ffffff" />
		</g>
		<g
   id="g4486">
			<polygon
   class="st3"
   points="378.51,976.389 464.47,976.389 421.49,1055.189 "
   id="polygon4464"
   style="fill:#ffffff" />
			<polygon
   class="st3"
   points="464.47,976.389 550.431,976.389 507.451,1055.189 "
   id="polygon4466"
   style="fill:#ffffff" />
			<polygon
   class="st3"
   points="593.411,1055.189 507.451,1055.189 550.431,976.389 "
   id="polygon4468"
   style="fill:#ffffff" />
			<polygon
   class="st3"
   points="636.391,976.389 722.352,976.389 679.372,1055.189 "
   id="polygon4470"
   style="fill:#ffffff" />
			<polygon
   class="st3"
   points="937.253,1055.189 851.293,1055.189 894.273,976.389 "
   id="polygon4472"
   style="fill:#ffffff" />
			<polygon
   class="st3"
   points="980.233,976.389 1066.194,976.389 1023.214,1055.189 "
   id="polygon4474"
   style="fill:#ffffff" />
			<polygon
   class="st3"
   points="550.431,1133.99 636.391,1133.99 593.411,1055.189 "
   id="polygon4476"
   style="fill:#ffffff" />
			<polygon
   class="st3"
   points="808.312,1133.99 894.273,1133.99 851.293,1055.189 "
   id="polygon4478"
   style="fill:#ffffff" />
			<polygon
   class="st3"
   points="937.253,1055.189 851.293,1055.189 894.273,1133.99 "
   id="polygon4480"
   style="fill:#ffffff" />
			<polygon
   class="st3"
   points="980.233,1133.99 1066.194,1133.99 1023.214,1055.189 "
   id="polygon4482"
   style="fill:#ffffff" />
			<polygon
   class="st3"
   points="1109.174,1055.189 1023.214,1055.189 1066.194,1133.99 "
   id="polygon4484"
   style="fill:#ffffff" />
		</g>
	</g>
</g>
<g
   id="g4510"
   style="fill:#1226aa;fill-opacity:1">
	<rect
   x="72.633003"
   y="120.09"
   class="st3"
   width="18.264"
   height="40.062"
   id="rect4492"
   style="fill:#1226aa;fill-opacity:1" />
	<polygon
   class="st3"
   points="131.691,160.151 111.415,121.772 111.415,160.151 "
   id="polygon4494"
   style="fill:#1226aa;fill-opacity:1" />
	<polygon
   class="st3"
   points="111.177,118.858 134.115,118.858 113.276,79.411 101.807,101.12 "
   id="polygon4496"
   style="fill:#1226aa;fill-opacity:1" />
	<polygon
   class="st3"
   points="109.876,118.858 101.155,102.352 92.436,118.858 "
   id="polygon4498"
   style="fill:#1226aa;fill-opacity:1" />
	<polygon
   class="st3"
   points="72.069,99.889 83.212,78.795 60.925,78.795 "
   id="polygon4500"
   style="fill:#1226aa;fill-opacity:1" />
	<polygon
   class="st3"
   points="84.514,78.795 72.633,101.286 72.633,118.858 90.897,118.858 90.897,100.955 102.604,78.795 "
   id="polygon4502"
   style="fill:#1226aa;fill-opacity:1" />
	<path
   class="st3"
   d="m 111.828,120.09 10.036,18.995 c 3.716,-1.233 6.291,-5.015 6.291,-9.288 0,-5.353 -3.985,-9.707 -8.882,-9.707 z"
   id="path4504"
   inkscape:connector-curvature="0"
   style="fill:#1226aa;fill-opacity:1" />
	<path
   class="st3"
   d="m 92.024,120.09 v 40.062 c 10.077,-0.038 18.264,-9.009 18.264,-20.031 0,-11.022 -8.187,-19.994 -18.264,-20.031"
   id="path4506"
   inkscape:connector-curvature="0"
   style="fill:#1226aa;fill-opacity:1" />
	<path
   class="st3"
   d="m 145.998,120.09 c -10.106,0 -18.329,8.986 -18.329,20.031 0,11.045 8.223,20.031 18.329,20.031 10.107,0 18.33,-8.986 18.33,-20.031 0,-11.045 -8.223,-20.031 -18.33,-20.031"
   id="path4508"
   inkscape:connector-curvature="0"
   style="fill:#1226aa;fill-opacity:1" />
<!--	<rect x="168.414" y="120.09" class="st3" width="100.683" height="40.062"/>
	<rect x="231.389" y="129.156" class="st0" width="1.338" height="22.179"/>
	<polygon class="st0" points="238.204,132.855 238.204,151.334 239.543,151.334 239.543,134.388 	"/>
	<polygon class="st0" points="255.243,129.155 255.243,148.408 238.204,128.922 238.204,130.874 256.581,151.9 256.581,129.155 	"/>
	<polygon class="st0" points="199.169,130.308 198.498,128.49 189.948,151.334 191.409,151.334 	"/>
	<polygon class="st0" points="199.805,132.032 199.099,133.961 202.271,142.722 195.896,142.722 195.41,144.052 202.758,144.052 
		205.465,151.334 206.926,151.334 	"/>
	<rect x="186.512" y="129.155" class="st0" width="4.166" height="1.33"/>
	<polygon class="st0" points="185.415,129.155 178.812,129.155 178.812,130.485 184.076,130.485 184.076,151.334 185.415,151.334 	
		"/>
	<rect x="213.896" y="129.155" class="st0" width="4.166" height="1.33"/>
	<polygon class="st0" points="212.799,129.155 206.196,129.155 206.196,130.485 211.46,130.485 211.46,151.334 212.799,151.334 	"/>
	<rect x="221.227" y="129.155" class="st0" width="1.338" height="22.179"/>
	<rect x="223.771" y="150.004" class="st0" width="4.454" height="1.33"/> -->
</g>
</svg>