<svg version="1.1" xmlns="http://www.w3.org/2000/svg" xmlns:xlink="http://www.w3.org/1999/xlink" x="0px" y="0px"
	 width="8.27in" height="11.69in" viewBox="0 0 595.276 841.89" xml:space="preserve">
  <defs>
    <style>
      .cls-1, .cls-4, .cls-6 {
        fill: none;
      }

      .cls-2 {
        fill: #1226aa;
      }

      .cls-3 {
        clip-path: url(#clip-path);
      }

      .cls-4, .cls-6 {
        stroke: #fff;
      }

      .cls-4 {
        stroke-linejoin: bevel;
        stroke-width: 0.709px;
      }

      .cls-5 {
        fill: #fff;
      }

      .cls-6 {
        stroke-miterlimit: 10;
      }
    </style>
    <clipPath id="clip-path">
      <rect class="cls-1" x="-15.123" y="785.062" width="611.847" height="56.679"/>
    </clipPath>
  </defs>
  <title>A4-norm4</title>
  <g>
    <rect class="cls-2" x="-15.123" y="785.062" width="611.847" height="56.679"/>
    <g class="cls-3">
      <g>
        <g>
          <polygon class="cls-4" points="-20.932 710.847 16.853 710.847 -2.04 743.57 -20.932 710.847"/>
          <polygon class="cls-4" points="35.746 743.57 -2.04 743.57 16.853 710.847 35.746 743.57"/>
          <polygon class="cls-4" points="16.853 710.847 54.639 710.847 35.746 743.57 16.853 710.847"/>
          <polygon class="cls-4" points="73.532 743.57 35.746 743.57 54.639 710.847 73.532 743.57"/>
          <polygon class="cls-4" points="54.639 710.847 92.425 710.847 73.532 743.57 54.639 710.847"/>
          <polygon class="cls-4" points="111.318 743.57 73.532 743.57 92.425 710.847 111.318 743.57"/>
          <polygon class="cls-4" points="92.425 710.847 130.211 710.847 111.318 743.57 92.425 710.847"/>
          <polygon class="cls-4" points="149.104 743.57 111.318 743.57 130.211 710.847 149.104 743.57"/>
          <polygon class="cls-4" points="130.211 710.847 167.996 710.847 149.104 743.57 130.211 710.847"/>
          <polygon class="cls-4" points="186.89 743.57 149.104 743.57 167.996 710.847 186.89 743.57"/>
          <polygon class="cls-4" points="167.996 710.847 205.782 710.847 186.89 743.57 167.996 710.847"/>
          <polygon class="cls-4" points="224.675 743.57 186.89 743.57 205.782 710.847 224.675 743.57"/>
          <polygon class="cls-4" points="205.782 710.847 243.569 710.847 224.675 743.57 205.782 710.847"/>
          <polygon class="cls-4" points="262.461 743.57 224.675 743.57 243.569 710.847 262.461 743.57"/>
          <polygon class="cls-4" points="243.569 710.847 281.354 710.847 262.461 743.57 243.569 710.847"/>
          <polygon class="cls-4" points="300.247 743.57 262.461 743.57 281.354 710.847 300.247 743.57"/>
          <polygon class="cls-4" points="-20.932 776.294 16.853 776.294 -2.04 743.57 -20.932 776.294"/>
          <polygon class="cls-4" points="35.746 743.57 -2.04 743.57 16.853 776.294 35.746 743.57"/>
          <polygon class="cls-4" points="16.853 776.294 54.639 776.294 35.746 743.57 16.853 776.294"/>
          <polygon class="cls-4" points="73.532 743.57 35.746 743.57 54.639 776.294 73.532 743.57"/>
          <polygon class="cls-4" points="54.639 776.294 92.425 776.294 73.532 743.57 54.639 776.294"/>
          <polygon class="cls-4" points="111.318 743.57 73.532 743.57 92.425 776.294 111.318 743.57"/>
          <polygon class="cls-4" points="92.425 776.294 130.211 776.294 111.318 743.57 92.425 776.294"/>
          <polygon class="cls-4" points="149.104 743.57 111.318 743.57 130.211 776.294 149.104 743.57"/>
          <polygon class="cls-4" points="130.211 776.294 167.996 776.294 149.104 743.57 130.211 776.294"/>
          <polygon class="cls-4" points="186.89 743.57 149.104 743.57 167.996 776.294 186.89 743.57"/>
          <polygon class="cls-4" points="167.996 776.294 205.782 776.294 186.89 743.57 167.996 776.294"/>
          <polygon class="cls-4" points="224.675 743.57 186.89 743.57 205.782 776.294 224.675 743.57"/>
          <polygon class="cls-4" points="205.782 776.294 243.569 776.294 224.675 743.57 205.782 776.294"/>
          <polygon class="cls-4" points="262.461 743.57 224.675 743.57 243.569 776.294 262.461 743.57"/>
          <polygon class="cls-4" points="243.569 776.294 281.354 776.294 262.461 743.57 243.569 776.294"/>
          <polygon class="cls-4" points="300.247 743.57 262.461 743.57 281.354 776.294 300.247 743.57"/>
        </g>
        <g>
          <polygon class="cls-5" points="-20.932 710.847 16.853 710.847 -2.04 743.57 -20.932 710.847"/>
          <polygon class="cls-5" points="-20.932 776.294 16.853 776.294 -2.04 743.57 -20.932 776.294"/>
          <polygon class="cls-5" points="35.746 743.57 -2.04 743.57 16.853 776.294 35.746 743.57"/>
          <polygon class="cls-5" points="16.853 776.294 54.639 776.294 35.746 743.57 16.853 776.294"/>
          <polygon class="cls-5" points="111.318 743.57 73.532 743.57 92.425 710.847 111.318 743.57"/>
          <polygon class="cls-5" points="92.425 710.847 130.211 710.847 111.318 743.57 92.425 710.847"/>
          <polygon class="cls-5" points="54.639 776.294 92.425 776.294 73.532 743.57 54.639 776.294"/>
          <polygon class="cls-5" points="111.318 743.57 73.532 743.57 92.425 776.294 111.318 743.57"/>
          <polygon class="cls-5" points="186.89 743.57 149.104 743.57 167.996 710.847 186.89 743.57"/>
          <polygon class="cls-5" points="167.996 710.847 205.782 710.847 186.89 743.57 167.996 710.847"/>
          <polygon class="cls-5" points="262.461 743.57 224.675 743.57 243.569 710.847 262.461 743.57"/>
          <polygon class="cls-5" points="167.996 776.294 205.782 776.294 186.89 743.57 167.996 776.294"/>
          <polygon class="cls-5" points="262.461 743.57 224.675 743.57 243.569 776.294 262.461 743.57"/>
        </g>
        <g>
          <polygon class="cls-4" points="-20.932 776.294 16.853 776.294 -2.04 809.017 -20.932 776.294"/>
          <polygon class="cls-4" points="35.746 809.017 -2.04 809.017 16.853 776.294 35.746 809.017"/>
          <polygon class="cls-4" points="16.853 776.294 54.639 776.294 35.746 809.017 16.853 776.294"/>
          <polygon class="cls-4" points="73.532 809.017 35.746 809.017 54.639 776.294 73.532 809.017"/>
          <polygon class="cls-4" points="54.639 776.294 92.425 776.294 73.532 809.017 54.639 776.294"/>
          <polygon class="cls-4" points="111.318 809.017 73.532 809.017 92.425 776.294 111.318 809.017"/>
          <polygon class="cls-4" points="92.425 776.294 130.211 776.294 111.318 809.017 92.425 776.294"/>
          <polygon class="cls-4" points="149.104 809.017 111.318 809.017 130.211 776.294 149.104 809.017"/>
          <polygon class="cls-4" points="224.675 809.017 186.89 809.017 205.782 776.294 224.675 809.017"/>
          <polygon class="cls-4" points="205.782 776.294 243.569 776.294 224.675 809.017 205.782 776.294"/>
          <polygon class="cls-4" points="262.461 809.017 224.675 809.017 243.569 776.294 262.461 809.017"/>
          <polygon class="cls-4" points="243.569 776.294 281.354 776.294 262.461 809.017 243.569 776.294"/>
          <polygon class="cls-4" points="300.247 809.017 262.461 809.017 281.354 776.294 300.247 809.017"/>
          <polygon class="cls-4" points="-20.932 841.741 16.853 841.741 -2.04 809.017 -20.932 841.741"/>
          <polygon class="cls-4" points="35.746 809.017 -2.04 809.017 16.853 841.741 35.746 809.017"/>
          <polygon class="cls-4" points="16.853 841.741 54.639 841.741 35.746 809.017 16.853 841.741"/>
          <polygon class="cls-4" points="73.532 809.017 35.746 809.017 54.639 841.741 73.532 809.017"/>
          <polygon class="cls-4" points="54.639 841.741 92.425 841.741 73.532 809.017 54.639 841.741"/>
          <polygon class="cls-4" points="111.318 809.017 73.532 809.017 92.425 841.741 111.318 809.017"/>
          <polygon class="cls-4" points="92.425 841.741 130.211 841.741 111.318 809.017 92.425 841.741"/>
          <polygon class="cls-4" points="149.104 809.017 111.318 809.017 130.211 841.741 149.104 809.017"/>
          <polygon class="cls-4" points="130.211 841.741 167.996 841.741 149.104 809.017 130.211 841.741"/>
          <polygon class="cls-4" points="186.89 809.017 149.104 809.017 167.996 841.741 186.89 809.017"/>
          <polygon class="cls-4" points="167.996 841.741 205.782 841.741 186.89 809.017 167.996 841.741"/>
          <polygon class="cls-4" points="224.675 809.017 186.89 809.017 205.782 841.741 224.675 809.017"/>
          <polygon class="cls-4" points="205.782 841.741 243.569 841.741 224.675 809.017 205.782 841.741"/>
          <polygon class="cls-4" points="262.461 809.017 224.675 809.017 243.569 841.741 262.461 809.017"/>
          <polygon class="cls-4" points="243.569 841.741 281.354 841.741 262.461 809.017 243.569 841.741"/>
          <polygon class="cls-4" points="300.247 809.017 262.461 809.017 281.354 841.741 300.247 809.017"/>
        </g>
        <g>
          <polygon class="cls-5" points="92.425 776.294 130.211 776.294 111.318 809.017 92.425 776.294"/>
          <polygon class="cls-5" points="224.675 809.017 186.89 809.017 205.782 776.294 224.675 809.017"/>
          <polygon class="cls-5" points="205.782 776.294 243.569 776.294 224.675 809.017 205.782 776.294"/>
          <polygon class="cls-5" points="300.247 809.017 262.461 809.017 281.354 776.294 300.247 809.017"/>
          <polygon class="cls-5" points="-20.932 841.741 16.853 841.741 -2.04 809.017 -20.932 841.741"/>
          <polygon class="cls-5" points="16.853 841.741 54.639 841.741 35.746 809.017 16.853 841.741"/>
          <polygon class="cls-5" points="92.425 841.741 130.211 841.741 111.318 809.017 92.425 841.741"/>
          <polygon class="cls-5" points="149.104 809.017 111.318 809.017 130.211 841.741 149.104 809.017"/>
          <polygon class="cls-5" points="167.996 841.741 205.782 841.741 186.89 809.017 167.996 841.741"/>
          <polygon class="cls-5" points="224.675 809.017 186.89 809.017 205.782 841.741 224.675 809.017"/>
          <polygon class="cls-5" points="246.141 717.787 208.356 717.787 227.248 750.511 246.141 717.787"/>
          <polygon class="cls-5" points="262.461 809.017 224.675 809.017 243.569 841.741 262.461 809.017"/>
        </g>
        <g>
          <polygon class="cls-4" points="281.354 710.847 319.14 710.847 300.247 743.57 281.354 710.847"/>
          <polygon class="cls-4" points="338.033 743.57 300.247 743.57 319.14 710.847 338.033 743.57"/>
          <polygon class="cls-4" points="319.14 710.847 356.926 710.847 338.033 743.57 319.14 710.847"/>
          <polygon class="cls-4" points="375.819 743.57 338.033 743.57 356.926 710.847 375.819 743.57"/>
          <polygon class="cls-4" points="356.926 710.847 394.712 710.847 375.819 743.57 356.926 710.847"/>
          <polygon class="cls-4" points="413.604 743.57 375.819 743.57 394.712 710.847 413.604 743.57"/>
          <polygon class="cls-4" points="394.712 710.847 432.497 710.847 413.604 743.57 394.712 710.847"/>
          <polygon class="cls-4" points="451.391 743.57 413.604 743.57 432.497 710.847 451.391 743.57"/>
          <polygon class="cls-4" points="432.497 710.847 470.283 710.847 451.391 743.57 432.497 710.847"/>
          <polygon class="cls-4" points="489.176 743.57 451.391 743.57 470.283 710.847 489.176 743.57"/>
          <polygon class="cls-4" points="470.283 710.847 508.07 710.847 489.176 743.57 470.283 710.847"/>
          <polygon class="cls-4" points="526.962 743.57 489.176 743.57 508.07 710.847 526.962 743.57"/>
          <polygon class="cls-4" points="508.07 710.847 545.855 710.847 526.962 743.57 508.07 710.847"/>
          <polygon class="cls-4" points="564.748 743.57 526.962 743.57 545.855 710.847 564.748 743.57"/>
          <polygon class="cls-4" points="545.855 710.847 583.641 710.847 564.748 743.57 545.855 710.847"/>
          <polygon class="cls-4" points="602.534 743.57 564.748 743.57 583.641 710.847 602.534 743.57"/>
          <polygon class="cls-4" points="281.354 776.294 319.14 776.294 300.247 743.57 281.354 776.294"/>
          <polygon class="cls-4" points="338.033 743.57 300.247 743.57 319.14 776.294 338.033 743.57"/>
          <polygon class="cls-4" points="319.14 776.294 356.926 776.294 338.033 743.57 319.14 776.294"/>
          <polygon class="cls-4" points="375.819 743.57 338.033 743.57 356.926 776.294 375.819 743.57"/>
          <polygon class="cls-4" points="356.926 776.294 394.712 776.294 375.819 743.57 356.926 776.294"/>
          <polygon class="cls-4" points="413.604 743.57 375.819 743.57 394.712 776.294 413.604 743.57"/>
          <polygon class="cls-4" points="394.712 776.294 432.497 776.294 413.604 743.57 394.712 776.294"/>
          <polygon class="cls-4" points="451.391 743.57 413.604 743.57 432.497 776.294 451.391 743.57"/>
          <polygon class="cls-4" points="432.497 776.294 470.283 776.294 451.391 743.57 432.497 776.294"/>
          <polygon class="cls-4" points="489.176 743.57 451.391 743.57 470.283 776.294 489.176 743.57"/>
          <polygon class="cls-4" points="470.283 776.294 508.07 776.294 489.176 743.57 470.283 776.294"/>
          <polygon class="cls-4" points="526.962 743.57 489.176 743.57 508.07 776.294 526.962 743.57"/>
          <polygon class="cls-4" points="508.07 776.294 545.855 776.294 526.962 743.57 508.07 776.294"/>
          <polygon class="cls-4" points="564.748 743.57 526.962 743.57 545.855 776.294 564.748 743.57"/>
          <polygon class="cls-4" points="545.855 776.294 583.641 776.294 564.748 743.57 545.855 776.294"/>
          <polygon class="cls-4" points="602.534 743.57 564.748 743.57 583.641 776.294 602.534 743.57"/>
        </g>
        <g>
          <polygon class="cls-4" points="281.354 776.294 319.14 776.294 300.247 809.017 281.354 776.294"/>
          <polygon class="cls-4" points="338.033 809.017 300.247 809.017 319.14 776.294 338.033 809.017"/>
          <polygon class="cls-4" points="319.14 776.294 356.926 776.294 338.033 809.017 319.14 776.294"/>
          <polygon class="cls-4" points="375.819 809.017 338.033 809.017 356.926 776.294 375.819 809.017"/>
          <polygon class="cls-4" points="356.926 776.294 394.712 776.294 375.819 809.017 356.926 776.294"/>
          <polygon class="cls-4" points="413.604 809.017 375.819 809.017 394.712 776.294 413.604 809.017"/>
          <polygon class="cls-4" points="394.712 776.294 432.497 776.294 413.604 809.017 394.712 776.294"/>
          <polygon class="cls-4" points="451.391 809.017 413.604 809.017 432.497 776.294 451.391 809.017"/>
          <polygon class="cls-4" points="432.497 776.294 470.283 776.294 451.391 809.017 432.497 776.294"/>
          <polygon class="cls-4" points="489.176 809.017 451.391 809.017 470.283 776.294 489.176 809.017"/>
          <polygon class="cls-4" points="470.283 776.294 508.07 776.294 489.176 809.017 470.283 776.294"/>
          <polygon class="cls-4" points="526.962 809.017 489.176 809.017 508.07 776.294 526.962 809.017"/>
          <polygon class="cls-4" points="508.07 776.294 545.855 776.294 526.962 809.017 508.07 776.294"/>
          <polygon class="cls-4" points="564.748 809.017 526.962 809.017 545.855 776.294 564.748 809.017"/>
          <polygon class="cls-4" points="545.855 776.294 583.641 776.294 564.748 809.017 545.855 776.294"/>
          <polygon class="cls-4" points="602.534 809.017 564.748 809.017 583.641 776.294 602.534 809.017"/>
          <polygon class="cls-4" points="281.354 841.741 319.14 841.741 300.247 809.017 281.354 841.741"/>
          <polygon class="cls-4" points="338.033 809.017 300.247 809.017 319.14 841.741 338.033 809.017"/>
          <polygon class="cls-4" points="319.14 841.741 356.926 841.741 338.033 809.017 319.14 841.741"/>
          <polygon class="cls-4" points="375.819 809.017 338.033 809.017 356.926 841.741 375.819 809.017"/>
          <polygon class="cls-4" points="356.926 841.741 394.712 841.741 375.819 809.017 356.926 841.741"/>
          <polygon class="cls-4" points="413.604 809.017 375.819 809.017 394.712 841.741 413.604 809.017"/>
          <polygon class="cls-4" points="394.712 841.741 432.497 841.741 413.604 809.017 394.712 841.741"/>
          <polygon class="cls-4" points="451.391 809.017 413.604 809.017 432.497 841.741 451.391 809.017"/>
          <polygon class="cls-4" points="432.497 841.741 470.283 841.741 451.391 809.017 432.497 841.741"/>
          <polygon class="cls-4" points="489.176 809.017 451.391 809.017 470.283 841.741 489.176 809.017"/>
          <polygon class="cls-4" points="470.283 841.741 508.07 841.741 489.176 809.017 470.283 841.741"/>
          <polygon class="cls-4" points="526.962 809.017 489.176 809.017 508.07 841.741 526.962 809.017"/>
          <polygon class="cls-4" points="508.07 841.741 545.855 841.741 526.962 809.017 508.07 841.741"/>
          <polygon class="cls-4" points="564.748 809.017 526.962 809.017 545.855 841.741 564.748 809.017"/>
          <polygon class="cls-4" points="545.855 841.741 583.641 841.741 564.748 809.017 545.855 841.741"/>
          <polygon class="cls-4" points="602.534 809.017 564.748 809.017 583.641 841.741 602.534 809.017"/>
        </g>
        <g>
          <polygon class="cls-5" points="281.354 710.847 319.14 710.847 300.247 743.57 281.354 710.847"/>
          <polygon class="cls-5" points="375.819 743.57 338.033 743.57 356.926 710.847 375.819 743.57"/>
          <polygon class="cls-5" points="413.604 743.57 375.819 743.57 394.712 710.847 413.604 743.57"/>
          <polygon class="cls-5" points="394.712 710.847 432.497 710.847 413.604 743.57 394.712 710.847"/>
          <polygon class="cls-5" points="564.748 743.57 526.962 743.57 545.855 710.847 564.748 743.57"/>
          <polygon class="cls-5" points="281.354 776.294 319.14 776.294 300.247 743.57 281.354 776.294"/>
          <polygon class="cls-5" points="338.033 743.57 300.247 743.57 319.14 776.294 338.033 743.57"/>
          <polygon class="cls-5" points="356.926 776.294 394.712 776.294 375.819 743.57 356.926 776.294"/>
          <polygon class="cls-5" points="413.604 743.57 375.819 743.57 394.712 776.294 413.604 743.57"/>
          <polygon class="cls-5" points="489.176 743.57 451.391 743.57 470.283 776.294 489.176 743.57"/>
          <polygon class="cls-5" points="508.07 776.294 545.855 776.294 526.962 743.57 508.07 776.294"/>
          <polygon class="cls-5" points="564.748 743.57 526.962 743.57 545.855 776.294 564.748 743.57"/>
          <polygon class="cls-5" points="470.283 776.294 508.07 776.294 489.176 743.57 470.283 776.294"/>
        </g>
        <g>
          <polygon class="cls-5" points="281.354 776.294 319.14 776.294 300.247 809.017 281.354 776.294"/>
          <polygon class="cls-5" points="319.14 776.294 356.926 776.294 338.033 809.017 319.14 776.294"/>
          <polygon class="cls-5" points="375.819 809.017 338.033 809.017 356.926 776.294 375.819 809.017"/>
          <polygon class="cls-5" points="394.712 776.294 432.497 776.294 413.604 809.017 394.712 776.294"/>
          <polygon class="cls-5" points="526.962 809.017 489.176 809.017 508.07 776.294 526.962 809.017"/>
          <polygon class="cls-5" points="545.855 776.294 583.641 776.294 564.748 809.017 545.855 776.294"/>
          <polygon class="cls-5" points="356.926 841.741 394.712 841.741 375.819 809.017 356.926 841.741"/>
          <polygon class="cls-5" points="470.283 841.741 508.07 841.741 489.176 809.017 470.283 841.741"/>
          <polygon class="cls-5" points="526.962 809.017 489.176 809.017 508.07 841.741 526.962 809.017"/>
          <polygon class="cls-5" points="545.855 841.741 583.641 841.741 564.748 809.017 545.855 841.741"/>
          <polygon class="cls-5" points="602.534 809.017 564.748 809.017 583.641 841.741 602.534 809.017"/>
        </g>
      </g>
    </g>
  </g>
  <rect class="cls-2" x="171.708" y="809.382" width="376.584" height="24.196"/>
  <g>
    <path class="cls-5" d="M161.768,811.354h3.759v6.269h.76v1.74h-.42v-1.339h-4.979v1.339h-.42v-1.74a.912.912,0,0,0,.62-.25,1.683,1.683,0,0,0,.439-.649,4.953,4.953,0,0,0,.241-1.75Zm.439.4v3.221a5.5,5.5,0,0,1-.24,1.859,2.194,2.194,0,0,1-.51.79h3.631v-5.87Z"/>
    <path class="cls-5" d="M170.468,814.654v-.71h.4v4.08h-.4v-.731a1.784,1.784,0,0,1-1.59.84,1.9,1.9,0,0,1-1.41-.59,2.124,2.124,0,0,1-.58-1.559,2.165,2.165,0,0,1,.55-1.54,1.874,1.874,0,0,1,1.44-.59A1.84,1.84,0,0,1,170.468,814.654Zm-1.571-.42a1.542,1.542,0,0,0-1.12.464,1.687,1.687,0,0,0-.469,1.255,1.959,1.959,0,0,0,.429,1.265,1.542,1.542,0,0,0,2.326.011,1.968,1.968,0,0,0,.424-1.276,1.639,1.639,0,0,0-.489-1.275A1.6,1.6,0,0,0,168.9,814.234Z"/>
    <path class="cls-5" d="M172.308,818.024v-4.08h.4v1.8h2.3v-1.8h.4v4.08h-.4v-1.9h-2.3v1.9Z"/>
    <path class="cls-5" d="M176.847,818.024v-4.08h.4v1.8h2.3v-1.8h.4v4.08h-.4v-1.9h-2.3v1.9Z"/>
    <path class="cls-5" d="M181.387,813.944h.4v1.7h.97a1.323,1.323,0,0,1,1.04.38,1.16,1.16,0,0,1,.29.809,1.136,1.136,0,0,1-.36.88,1.381,1.381,0,0,1-.98.311h-1.36Zm.4,3.7h.96a.952.952,0,0,0,.64-.191.762.762,0,0,0,.28-.62.745.745,0,0,0-.29-.63,1.06,1.06,0,0,0-.65-.179h-.94Zm2.76-3.7h.4v4.08h-.4Z"/>
    <path class="cls-5" d="M186.387,813.944h.4v3.269l2.9-3.5v4.311h-.4v-3.25l-2.9,3.5Zm.46-1.651.34-.17a.979.979,0,0,0,.335.521,1.035,1.035,0,0,0,1.25,0,.979.979,0,0,0,.335-.521l.34.17a1.368,1.368,0,0,1-2.6,0Z"/>
    <path class="cls-5" d="M193.737,813.944h2.68v3.7h.6v1.479h-.38v-1.1H193.2v1.1h-.38v-1.479a.866.866,0,0,0,.75-.54,2.656,2.656,0,0,0,.17-1.1Zm2.281,3.7v-3.321h-1.88v1.8a1.9,1.9,0,0,1-.521,1.521Z"/>
    <path class="cls-5" d="M198.212,814.468a2.2,2.2,0,1,1-.615,1.525A2.073,2.073,0,0,1,198.212,814.468Zm.3,2.775a1.726,1.726,0,0,0,2.45,0,1.826,1.826,0,0,0,0-2.5,1.729,1.729,0,0,0-2.45,0,1.826,1.826,0,0,0,0,2.5Z"/>
    <path class="cls-5" d="M203.057,813.944h.4v1.939l2.06-1.939h.54l-2.08,1.939,2.24,2.141h-.58l-1.96-1.87-.22.209v1.661h-.4Z"/>
    <path class="cls-5" d="M207.356,820.323l.96-2.23-1.939-4.149h.46l1.71,3.629,1.49-3.629h.46l-2.681,6.379Z"/>
    <path class="cls-5" d="M210.817,818.024l.96-4.33,1.63,3.679,1.63-3.679.96,4.33h-.42l-.66-3.191-1.51,3.441-1.51-3.441-.66,3.191Z"/>
    <path class="cls-5" d="M220.606,816.033h-3.49a1.686,1.686,0,0,0,.476,1.241,1.553,1.553,0,0,0,1.144.479,1.458,1.458,0,0,0,.85-.255,1.677,1.677,0,0,0,.57-.675l.34.2a2.33,2.33,0,0,1-.67.774,1.792,1.792,0,0,1-1.12.335,1.872,1.872,0,0,1-1.47-.6A2.209,2.209,0,0,1,216.7,816a2.108,2.108,0,0,1,.585-1.58,1.931,1.931,0,0,1,1.4-.569,1.785,1.785,0,0,1,1.38.609A2.26,2.26,0,0,1,220.606,816.033Zm-3.46-.379h3.041a1.673,1.673,0,0,0-.5-1.021,1.4,1.4,0,0,0-1.014-.4,1.427,1.427,0,0,0-1.031.4A1.662,1.662,0,0,0,217.146,815.654Z"/>
    <path class="cls-5" d="M221.786,818.024v-4.08h.4v1.8h2.3v-1.8h.4v4.08h-.4v-1.9h-2.3v1.9Z"/>
    <path class="cls-5" d="M227.106,818.024v-3.7h-1.419v-.379h3.24v.379h-1.42v3.7Z"/>
    <path class="cls-5" d="M232.056,818.024v-4.08h3.04v4.08h-.4v-3.7h-2.24v3.7Z"/>
    <path class="cls-5" d="M236.937,817.293v3.03h-.4v-6.379h.4v.71a1.881,1.881,0,0,1,1.6-.8,1.854,1.854,0,0,1,1.441.594,2.16,2.16,0,0,1,.54,1.5,2.282,2.282,0,0,1-.545,1.555,1.988,1.988,0,0,1-2.285.44,1.768,1.768,0,0,1-.51-.339A2.127,2.127,0,0,1,236.937,817.293Zm.4-.055a1.593,1.593,0,0,0,2.341,0,1.964,1.964,0,0,0,.42-1.29,1.7,1.7,0,0,0-.46-1.264,1.532,1.532,0,0,0-1.12-.455,1.574,1.574,0,0,0-1.125.45,1.635,1.635,0,0,0-.476,1.25A2,2,0,0,0,237.336,817.238Z"/>
    <path class="cls-5" d="M245.347,816.033h-3.491a1.69,1.69,0,0,0,.476,1.241,1.554,1.554,0,0,0,1.145.479,1.457,1.457,0,0,0,.849-.255,1.669,1.669,0,0,0,.57-.675l.34.2a2.33,2.33,0,0,1-.67.774,1.792,1.792,0,0,1-1.12.335,1.869,1.869,0,0,1-1.469-.6,2.2,2.2,0,0,1-.54-1.526,2.108,2.108,0,0,1,.584-1.58,1.931,1.931,0,0,1,1.4-.569,1.782,1.782,0,0,1,1.38.609A2.26,2.26,0,0,1,245.347,816.033Zm-3.46-.379h3.04a1.678,1.678,0,0,0-.5-1.021,1.407,1.407,0,0,0-1.015-.4,1.423,1.423,0,0,0-1.03.4A1.651,1.651,0,0,0,241.887,815.654Z"/>
    <path class="cls-5" d="M246.807,813.944h2.679v3.7h.6v1.479h-.38v-1.1h-3.44v1.1h-.38v-1.479a.866.866,0,0,0,.75-.54,2.673,2.673,0,0,0,.17-1.1Zm2.28,3.7v-3.321h-1.88v1.8a1.908,1.908,0,0,1-.52,1.521Z"/>
    <path class="cls-5" d="M250.926,818.024v-4.08h.4v1.8h2.3v-1.8h.4v4.08h-.4v-1.9h-2.3v1.9Z"/>
    <path class="cls-5" d="M258.786,814.654v-.71h.4v4.08h-.4v-.731a1.783,1.783,0,0,1-1.59.84,1.9,1.9,0,0,1-1.41-.59,2.124,2.124,0,0,1-.58-1.559,2.169,2.169,0,0,1,.55-1.54,1.876,1.876,0,0,1,1.44-.59A1.84,1.84,0,0,1,258.786,814.654Zm-1.57-.42a1.539,1.539,0,0,0-1.12.464,1.684,1.684,0,0,0-.47,1.255,1.96,1.96,0,0,0,.43,1.265,1.541,1.541,0,0,0,2.325.011,1.968,1.968,0,0,0,.425-1.276,1.636,1.636,0,0,0-.49-1.275A1.6,1.6,0,0,0,257.216,814.234Z"/>
    <path class="cls-5" d="M260.956,814.8l-.33-.23a1.392,1.392,0,0,1,1.29-.719,1.267,1.267,0,0,1,.9.29,1,1,0,0,1,.33.79.884.884,0,0,1-.47.849.962.962,0,0,1,.48.27,1.053,1.053,0,0,1,.29.78,1.2,1.2,0,0,1-.48,1,1.688,1.688,0,0,1-1.04.3,1.733,1.733,0,0,1-1.07-.31,1.842,1.842,0,0,1-.49-.589l.361-.231a1.22,1.22,0,0,0,.429.521,1.258,1.258,0,0,0,.77.229,1.171,1.171,0,0,0,.78-.229.856.856,0,0,0,.32-.7.7.7,0,0,0-.28-.6,1.254,1.254,0,0,0-.75-.181h-.42v-.38h.311a.969.969,0,0,0,.609-.17.631.631,0,0,0,.25-.519.716.716,0,0,0-.21-.53.893.893,0,0,0-.63-.21A1.013,1.013,0,0,0,260.956,814.8Z"/>
    <path class="cls-5" d="M264.626,818.024v-4.08h.4v1.8h2.3v-1.8h.4v4.08h-.4v-1.9h-2.3v1.9Z"/>
    <path class="cls-5" d="M272.485,814.654v-.71h.4v4.08h-.4v-.731a1.782,1.782,0,0,1-1.589.84,1.9,1.9,0,0,1-1.411-.59,2.128,2.128,0,0,1-.58-1.559,2.169,2.169,0,0,1,.55-1.54,1.877,1.877,0,0,1,1.441-.59A1.84,1.84,0,0,1,272.485,814.654Zm-1.57-.42a1.539,1.539,0,0,0-1.12.464,1.684,1.684,0,0,0-.47,1.255,1.96,1.96,0,0,0,.43,1.265,1.541,1.541,0,0,0,2.325.011,1.968,1.968,0,0,0,.425-1.276,1.639,1.639,0,0,0-.489-1.275A1.6,1.6,0,0,0,270.915,814.234Z"/>
    <path class="cls-5" d="M276.605,818.024v-1.691a7.294,7.294,0,0,1-1.07.1,1.664,1.664,0,0,1-.96-.221,1.22,1.22,0,0,1-.37-1.04v-1.229h.4v1.229a.864.864,0,0,0,.27.75,1.1,1.1,0,0,0,.61.13,7.465,7.465,0,0,0,1.12-.1v-2.009h.4v4.08Z"/>
    <path class="cls-5" d="M282.1,816.033h-3.491a1.69,1.69,0,0,0,.476,1.241,1.554,1.554,0,0,0,1.145.479,1.457,1.457,0,0,0,.849-.255,1.679,1.679,0,0,0,.571-.675l.339.2a2.33,2.33,0,0,1-.67.774,1.792,1.792,0,0,1-1.12.335,1.869,1.869,0,0,1-1.469-.6,2.2,2.2,0,0,1-.54-1.526,2.1,2.1,0,0,1,.585-1.58,1.927,1.927,0,0,1,1.395-.569,1.782,1.782,0,0,1,1.38.609A2.26,2.26,0,0,1,282.1,816.033Zm-3.46-.379h3.04a1.678,1.678,0,0,0-.5-1.021,1.407,1.407,0,0,0-1.015-.4,1.423,1.423,0,0,0-1.03.4A1.651,1.651,0,0,0,278.636,815.654Z"/>
    <path class="cls-5" d="M283.275,818.024v-4.08h.4v1.8h2.3v-1.8h.4v4.08h-.4v-1.9h-2.3v1.9Z"/>
    <path class="cls-5" d="M290.925,818.024v-3.7h-1.42v-.379h3.24v.379h-1.42v3.7Z"/>
    <path class="cls-5" d="M293.69,814.468a2.2,2.2,0,1,1-.615,1.525A2.075,2.075,0,0,1,293.69,814.468Zm.3,2.775a1.726,1.726,0,0,0,2.45,0,1.823,1.823,0,0,0,0-2.5,1.729,1.729,0,0,0-2.45,0,1.826,1.826,0,0,0,0,2.5Z"/>
    <path class="cls-5" d="M301.4,813.944v4.08H301v-3.7h-1.88v2.361a1.65,1.65,0,0,1-.24.989.9.9,0,0,1-.779.37,1.841,1.841,0,0,1-.2-.019v-.38a.942.942,0,0,0,.15.019.613.613,0,0,0,.529-.269,1.363,1.363,0,0,0,.141-.71v-2.74Z"/>
    <path class="cls-5" d="M302.835,813.944h.4v1.7h.97a1.322,1.322,0,0,1,1.04.38,1.16,1.16,0,0,1,.29.809,1.136,1.136,0,0,1-.36.88,1.381,1.381,0,0,1-.98.311h-1.36Zm.4,3.7h.96a.95.95,0,0,0,.64-.191.762.762,0,0,0,.28-.62.743.743,0,0,0-.29-.63,1.06,1.06,0,0,0-.65-.179h-.94Z"/>
    <path class="cls-5" d="M306.425,813.944h.4v1.939l2.06-1.939h.54l-2.08,1.939,2.24,2.141h-.58l-1.96-1.87-.22.209v1.661h-.4Z"/>
    <path class="cls-5" d="M310.54,814.468a2.2,2.2,0,1,1-.615,1.525A2.073,2.073,0,0,1,310.54,814.468Zm.3,2.775a1.726,1.726,0,0,0,2.45,0,1.826,1.826,0,0,0,0-2.5,1.729,1.729,0,0,0-2.45,0,1.826,1.826,0,0,0,0,2.5Z"/>
    <path class="cls-5" d="M318,813.944h2.68v3.7h.6v1.479H320.9v-1.1h-3.441v1.1h-.38v-1.479a.866.866,0,0,0,.75-.54A2.673,2.673,0,0,0,318,816Zm2.28,3.7v-3.321H318.4v1.8a1.9,1.9,0,0,1-.521,1.521Z"/>
    <path class="cls-5" d="M325.175,813.944v4.08h-.4v-3.7H322.9v2.361a1.649,1.649,0,0,1-.241.989.9.9,0,0,1-.779.37,1.863,1.863,0,0,1-.2-.019v-.38a.942.942,0,0,0,.15.019.61.61,0,0,0,.529-.269,1.363,1.363,0,0,0,.141-.71v-2.74Z"/>
    <path class="cls-5" d="M326.175,818.024l1.3-1.781a1.283,1.283,0,0,1-.8-.3,1.027,1.027,0,0,1-.34-.811,1.107,1.107,0,0,1,.369-.9,1.43,1.43,0,0,1,.971-.29h1.359v4.08h-.4v-1.76h-.7l-1.281,1.76Zm2.46-2.141v-1.56h-.96a1.037,1.037,0,0,0-.651.18.774.774,0,0,0-.269.62.683.683,0,0,0,.26.58,1.078,1.078,0,0,0,.66.18Z"/>
    <path class="cls-5" d="M332.8,813.944h1.33a1.366,1.366,0,0,1,.87.24,1.023,1.023,0,0,0,.41,1.859,1.143,1.143,0,0,1-.06,1.7,1.592,1.592,0,0,1-1,.281H332.8Zm.4,1.78h.93a.893.893,0,0,0,.58-.171.653.653,0,0,0,.25-.539.641.641,0,0,0-.25-.53.909.909,0,0,0-.58-.161h-.93Zm0,1.92h1.15a1.155,1.155,0,0,0,.7-.181.722.722,0,0,0,.29-.609.684.684,0,0,0-.27-.571,1.194,1.194,0,0,0-.72-.179H333.2Z"/>
    <path class="cls-5" d="M336.943,818.024v-4.08h.4v1.8h2.3v-1.8h.4v4.08h-.4v-1.9h-2.3v1.9Z"/>
    <path class="cls-5" d="M341.823,820.323l.96-2.23-1.939-4.149h.46l1.71,3.629,1.49-3.629h.46l-2.681,6.379Z"/>
    <path class="cls-5" d="M346.754,818.024v-3.7h-1.42v-.379h3.24v.379h-1.42v3.7Z"/>
    <path class="cls-5" d="M349.774,817.293v3.03h-.4v-6.379h.4v.71a1.884,1.884,0,0,1,1.6-.8,1.85,1.85,0,0,1,1.44.594,2.156,2.156,0,0,1,.54,1.5,2.281,2.281,0,0,1-.544,1.555,1.99,1.99,0,0,1-2.286.44,1.76,1.76,0,0,1-.509-.339A2.206,2.206,0,0,1,349.774,817.293Zm.4-.055a1.593,1.593,0,0,0,2.341,0,1.964,1.964,0,0,0,.42-1.29,1.7,1.7,0,0,0-.46-1.264,1.533,1.533,0,0,0-1.121-.455,1.578,1.578,0,0,0-1.125.45,1.638,1.638,0,0,0-.475,1.25A2,2,0,0,0,350.174,817.238Z"/>
    <path class="cls-5" d="M358.184,816.033h-3.491a1.69,1.69,0,0,0,.476,1.241,1.553,1.553,0,0,0,1.144.479,1.458,1.458,0,0,0,.85-.255,1.669,1.669,0,0,0,.57-.675l.34.2a2.33,2.33,0,0,1-.67.774,1.792,1.792,0,0,1-1.12.335,1.872,1.872,0,0,1-1.47-.6,2.209,2.209,0,0,1-.54-1.526,2.108,2.108,0,0,1,.585-1.58,1.931,1.931,0,0,1,1.4-.569,1.782,1.782,0,0,1,1.38.609A2.26,2.26,0,0,1,358.184,816.033Zm-3.46-.379h3.04a1.678,1.678,0,0,0-.5-1.021,1.407,1.407,0,0,0-1.015-.4,1.423,1.423,0,0,0-1.03.4A1.651,1.651,0,0,0,354.724,815.654Z"/>
    <path class="cls-5" d="M359.363,818.024v-4.08h.4v1.8h2.3v-1.8h.4v4.08h-.4v-1.9h-2.3v1.9Z"/>
    <path class="cls-5" d="M363.9,818.024v-4.08h.4v1.8h2.3v-1.8h.4v4.08h-.4v-1.9h-2.3v1.9Z"/>
    <path class="cls-5" d="M372.094,816.033H368.6a1.69,1.69,0,0,0,.475,1.241,1.555,1.555,0,0,0,1.145.479,1.457,1.457,0,0,0,.849-.255,1.679,1.679,0,0,0,.571-.675l.339.2a2.33,2.33,0,0,1-.67.774,1.79,1.79,0,0,1-1.12.335,1.869,1.869,0,0,1-1.469-.6,2.2,2.2,0,0,1-.54-1.526,2.1,2.1,0,0,1,.585-1.58,1.927,1.927,0,0,1,1.395-.569,1.782,1.782,0,0,1,1.38.609A2.26,2.26,0,0,1,372.094,816.033Zm-3.46-.379h3.04a1.678,1.678,0,0,0-.5-1.021,1.407,1.407,0,0,0-1.015-.4,1.423,1.423,0,0,0-1.03.4A1.662,1.662,0,0,0,368.634,815.654Z"/>
    <path class="cls-5" d="M373.273,818.024v-4.08h2.2v.379h-1.8v3.7Z"/>
    <path class="cls-5" d="M376.318,814.468a2.2,2.2,0,1,1-.615,1.525A2.075,2.075,0,0,1,376.318,814.468Zm.3,2.775a1.726,1.726,0,0,0,2.45,0,1.826,1.826,0,0,0,0-2.5,1.729,1.729,0,0,0-2.45,0,1.826,1.826,0,0,0,0,2.5Z"/>
    <path class="cls-5" d="M383.493,813.944h.4v3.269l2.9-3.5v4.311h-.4v-3.25l-2.9,3.5Z"/>
    <path class="cls-5" d="M391.5,814.373v.531a1.8,1.8,0,0,0-1.41-.67,1.611,1.611,0,0,0-1.22.5,1.765,1.765,0,0,0-.48,1.265,1.652,1.652,0,0,0,.509,1.285,1.685,1.685,0,0,0,1.17.465,1.987,1.987,0,0,0,1.481-.729v.54a2.172,2.172,0,0,1-1.49.569,2,2,0,0,1-1.5-.6,2.1,2.1,0,0,1-.585-1.515,2.164,2.164,0,0,1,.58-1.546,2.019,2.019,0,0,1,1.54-.614A2.139,2.139,0,0,1,391.5,814.373Z"/>
    <path class="cls-5" d="M392.652,818.024v-4.08h3.04v4.08h-.4v-3.7h-2.24v3.7Z"/>
    <path class="cls-5" d="M397.488,814.468a2.2,2.2,0,1,1-.615,1.525A2.073,2.073,0,0,1,397.488,814.468Zm.3,2.775a1.726,1.726,0,0,0,2.45,0,1.826,1.826,0,0,0,0-2.5,1.729,1.729,0,0,0-2.45,0,1.826,1.826,0,0,0,0,2.5Z"/>
    <path class="cls-5" d="M405.193,813.944v4.08h-.4v-3.7h-1.88v2.361a1.65,1.65,0,0,1-.24.989.9.9,0,0,1-.779.37,1.876,1.876,0,0,1-.2-.019v-.38a.965.965,0,0,0,.151.019.613.613,0,0,0,.529-.269,1.363,1.363,0,0,0,.141-.71v-2.74Z"/>
    <path class="cls-5" d="M406.633,813.944h.4v1.7H408a1.323,1.323,0,0,1,1.04.38,1.16,1.16,0,0,1,.29.809,1.136,1.136,0,0,1-.36.88,1.381,1.381,0,0,1-.98.311h-1.36Zm.4,3.7h.96a.952.952,0,0,0,.64-.191.762.762,0,0,0,.28-.62.745.745,0,0,0-.29-.63,1.06,1.06,0,0,0-.65-.179h-.94Z"/>
    <path class="cls-5" d="M410.442,814.8l-.33-.23a1.393,1.393,0,0,1,1.29-.719,1.269,1.269,0,0,1,.9.29,1,1,0,0,1,.33.79.883.883,0,0,1-.471.849.965.965,0,0,1,.481.27,1.057,1.057,0,0,1,.29.78,1.2,1.2,0,0,1-.481,1,1.686,1.686,0,0,1-1.04.3,1.73,1.73,0,0,1-1.069-.31,1.816,1.816,0,0,1-.49-.589l.36-.231a1.222,1.222,0,0,0,.43.521,1.255,1.255,0,0,0,.769.229,1.169,1.169,0,0,0,.78-.229.857.857,0,0,0,.321-.7.7.7,0,0,0-.281-.6,1.254,1.254,0,0,0-.75-.181h-.419v-.38h.31a.967.967,0,0,0,.609-.17.631.631,0,0,0,.25-.519.716.716,0,0,0-.21-.53.892.892,0,0,0-.629-.21A1.015,1.015,0,0,0,410.442,814.8Z"/>
    <path class="cls-5" d="M414.468,814.468a2.2,2.2,0,1,1-.615,1.525A2.073,2.073,0,0,1,414.468,814.468Zm.3,2.775a1.726,1.726,0,0,0,2.45,0,1.826,1.826,0,0,0,0-2.5,1.729,1.729,0,0,0-2.45,0,1.823,1.823,0,0,0,0,2.5Z"/>
    <path class="cls-5" d="M419.313,813.944h1.33a1.368,1.368,0,0,1,.87.24,1.026,1.026,0,0,1-.09,1.63.961.961,0,0,1,.5.229,1.144,1.144,0,0,1-.061,1.7,1.588,1.588,0,0,1-1,.281h-1.549Zm.4,1.78h.93a.893.893,0,0,0,.58-.171.653.653,0,0,0,.25-.539.641.641,0,0,0-.25-.53.911.911,0,0,0-.58-.161h-.93Zm0,1.92h1.149a1.158,1.158,0,0,0,.7-.181.722.722,0,0,0,.29-.609.684.684,0,0,0-.27-.571,1.2,1.2,0,0,0-.721-.179h-1.149Z"/>
    <path class="cls-5" d="M426.772,814.654v-.71h.4v4.08h-.4v-.731a1.782,1.782,0,0,1-1.589.84,1.9,1.9,0,0,1-1.411-.59,2.128,2.128,0,0,1-.58-1.559,2.169,2.169,0,0,1,.55-1.54,1.877,1.877,0,0,1,1.441-.59A1.839,1.839,0,0,1,426.772,814.654Zm-1.57-.42a1.542,1.542,0,0,0-1.12.464,1.688,1.688,0,0,0-.47,1.255,1.96,1.96,0,0,0,.43,1.265,1.541,1.541,0,0,0,2.325.011,1.968,1.968,0,0,0,.425-1.276,1.639,1.639,0,0,0-.489-1.275A1.6,1.6,0,0,0,425.2,814.234Z"/>
    <path class="cls-5" d="M428.612,818.024v-4.08h.4v1.8h2.3v-1.8h.4v4.08h-.4v-1.9h-2.3v1.9Z"/>
    <path class="cls-5" d="M433.152,813.944h.4v3.269l2.9-3.5v4.311h-.4v-3.25l-2.9,3.5Z"/>
    <path class="cls-5" d="M437.452,818.024l1.3-1.781a1.283,1.283,0,0,1-.8-.3,1.03,1.03,0,0,1-.34-.811,1.107,1.107,0,0,1,.369-.9,1.43,1.43,0,0,1,.971-.29h1.36v4.08h-.4v-1.76h-.7l-1.28,1.76Zm2.46-2.141v-1.56h-.96a1.032,1.032,0,0,0-.65.18.772.772,0,0,0-.27.62.683.683,0,0,0,.26.58,1.078,1.078,0,0,0,.66.18Z"/>
    <path class="cls-5" d="M444.082,813.944h.4v3.269l2.9-3.5v4.311h-.4v-3.25l-2.9,3.5Z"/>
    <path class="cls-5" d="M451.432,813.944h2.679v3.7h.6v1.479h-.38v-1.1h-3.44v1.1h-.38v-1.479a.866.866,0,0,0,.75-.54,2.673,2.673,0,0,0,.17-1.1Zm2.28,3.7v-3.321h-1.88v1.8a1.908,1.908,0,0,1-.52,1.521Z"/>
    <path class="cls-5" d="M455.907,814.468a2.2,2.2,0,1,1-.615,1.525A2.073,2.073,0,0,1,455.907,814.468Zm.3,2.775a1.726,1.726,0,0,0,2.45,0,1.826,1.826,0,0,0,0-2.5,1.729,1.729,0,0,0-2.45,0,1.826,1.826,0,0,0,0,2.5Z"/>
    <path class="cls-5" d="M463.611,813.944v4.08h-.4v-3.7h-1.88v2.361a1.65,1.65,0,0,1-.24.989.9.9,0,0,1-.779.37,1.853,1.853,0,0,1-.2-.019v-.38a.965.965,0,0,0,.151.019.613.613,0,0,0,.529-.269,1.363,1.363,0,0,0,.141-.71v-2.74Z"/>
    <path class="cls-5" d="M466.932,813.944h.4v1.939l1.84-1.939h.52l-1.9,1.96,2.06,2.12h-.539l-1.781-1.861-.2.2v1.661h-.4v-1.661l-.2-.2-1.78,1.861h-.54l2.06-2.12-1.9-1.96h.52l1.84,1.939Z"/>
    <path class="cls-5" d="M474.191,816.033H470.7a1.686,1.686,0,0,0,.476,1.241,1.553,1.553,0,0,0,1.144.479,1.458,1.458,0,0,0,.85-.255,1.677,1.677,0,0,0,.57-.675l.34.2a2.33,2.33,0,0,1-.67.774,1.792,1.792,0,0,1-1.12.335,1.872,1.872,0,0,1-1.47-.6,2.209,2.209,0,0,1-.54-1.526,2.108,2.108,0,0,1,.585-1.58,1.931,1.931,0,0,1,1.4-.569,1.785,1.785,0,0,1,1.38.609A2.26,2.26,0,0,1,474.191,816.033Zm-3.46-.379h3.04a1.667,1.667,0,0,0-.5-1.021,1.4,1.4,0,0,0-1.014-.4,1.425,1.425,0,0,0-1.031.4A1.662,1.662,0,0,0,470.731,815.654Z"/>
    <path class="cls-5" d="M475.371,818.024v-4.08h.4v1.8h2.3v-1.8h.4v4.08h-.4v-1.9h-2.3v1.9Z"/>
    <path class="cls-5" d="M482.642,817.293v3.03h-.4v-6.379h.4v.71a1.881,1.881,0,0,1,1.6-.8,1.854,1.854,0,0,1,1.441.594,2.16,2.16,0,0,1,.54,1.5,2.282,2.282,0,0,1-.545,1.555,1.988,1.988,0,0,1-2.285.44,1.783,1.783,0,0,1-.51-.339A2.127,2.127,0,0,1,482.642,817.293Zm.4-.055a1.593,1.593,0,0,0,2.341,0,1.964,1.964,0,0,0,.42-1.29,1.7,1.7,0,0,0-.46-1.264,1.532,1.532,0,0,0-1.12-.455,1.574,1.574,0,0,0-1.125.45,1.635,1.635,0,0,0-.476,1.25A2,2,0,0,0,483.041,817.238Z"/>
    <path class="cls-5" d="M490.722,814.654v-.71h.4v4.08h-.4v-.731a1.785,1.785,0,0,1-1.59.84,1.9,1.9,0,0,1-1.41-.59,2.124,2.124,0,0,1-.58-1.559,2.169,2.169,0,0,1,.549-1.54,1.878,1.878,0,0,1,1.441-.59A1.84,1.84,0,0,1,490.722,814.654Zm-1.571-.42a1.542,1.542,0,0,0-1.12.464,1.687,1.687,0,0,0-.469,1.255,1.959,1.959,0,0,0,.429,1.265,1.541,1.541,0,0,0,2.325.011,1.963,1.963,0,0,0,.425-1.276,1.639,1.639,0,0,0-.489-1.275A1.6,1.6,0,0,0,489.151,814.234Z"/>
    <path class="cls-5" d="M495.831,814.373v.531a1.8,1.8,0,0,0-1.41-.67,1.612,1.612,0,0,0-1.22.5,1.765,1.765,0,0,0-.48,1.265,1.652,1.652,0,0,0,.509,1.285,1.685,1.685,0,0,0,1.17.465,1.985,1.985,0,0,0,1.481-.729v.54a2.172,2.172,0,0,1-1.49.569,2,2,0,0,1-1.5-.6,2.1,2.1,0,0,1-.585-1.515,2.164,2.164,0,0,1,.58-1.546,2.021,2.021,0,0,1,1.54-.614A2.139,2.139,0,0,1,495.831,814.373Z"/>
    <path class="cls-5" d="M496.98,818.024v-4.08h3.041v4.08h-.4v-3.7h-2.24v3.7Z"/>
    <path class="cls-5" d="M501.861,817.293v3.03h-.4v-6.379h.4v.71a1.884,1.884,0,0,1,1.6-.8,1.85,1.85,0,0,1,1.44.594,2.156,2.156,0,0,1,.54,1.5,2.277,2.277,0,0,1-.545,1.555,1.988,1.988,0,0,1-2.285.44,1.76,1.76,0,0,1-.509-.339A2.206,2.206,0,0,1,501.861,817.293Zm.4-.055a1.593,1.593,0,0,0,2.341,0,1.963,1.963,0,0,0,.419-1.29,1.7,1.7,0,0,0-.459-1.264,1.533,1.533,0,0,0-1.121-.455,1.578,1.578,0,0,0-1.125.45,1.638,1.638,0,0,0-.475,1.25A2,2,0,0,0,502.261,817.238Z"/>
    <path class="cls-5" d="M506.977,814.468a2.2,2.2,0,1,1-.616,1.525A2.073,2.073,0,0,1,506.977,814.468Zm.3,2.775a1.727,1.727,0,0,0,2.451,0,1.826,1.826,0,0,0,0-2.5,1.73,1.73,0,0,0-2.451,0,1.826,1.826,0,0,0,0,2.5Z"/>
    <path class="cls-5" d="M515.091,814.373v.531a1.8,1.8,0,0,0-1.41-.67,1.611,1.611,0,0,0-1.22.5A1.766,1.766,0,0,0,511.98,816a1.65,1.65,0,0,0,.51,1.285,1.685,1.685,0,0,0,1.17.465,1.987,1.987,0,0,0,1.481-.729v.54a2.172,2.172,0,0,1-1.491.569,2,2,0,0,1-1.5-.6,2.1,2.1,0,0,1-.585-1.515,2.164,2.164,0,0,1,.58-1.546,2.019,2.019,0,0,1,1.54-.614A2.139,2.139,0,0,1,515.091,814.373Z"/>
    <path class="cls-5" d="M517.021,818.024v-3.7H515.6v-.379h3.24v.379h-1.42v3.7Z"/>
    <path class="cls-5" d="M520.041,817.293v3.03h-.4v-6.379h.4v.71a1.884,1.884,0,0,1,1.6-.8,1.851,1.851,0,0,1,1.44.594,2.16,2.16,0,0,1,.54,1.5,2.282,2.282,0,0,1-.545,1.555,1.988,1.988,0,0,1-2.285.44,1.783,1.783,0,0,1-.51-.339A2.2,2.2,0,0,1,520.041,817.293Zm.4-.055a1.593,1.593,0,0,0,2.341,0,1.958,1.958,0,0,0,.42-1.29,1.693,1.693,0,0,0-.46-1.264,1.529,1.529,0,0,0-1.12-.455,1.578,1.578,0,0,0-1.125.45,1.638,1.638,0,0,0-.475,1.25A2,2,0,0,0,520.44,817.238Z"/>
    <path class="cls-5" d="M528.12,814.654v-.71h.4v4.08h-.4v-.731a1.783,1.783,0,0,1-1.59.84,1.9,1.9,0,0,1-1.41-.59,2.124,2.124,0,0,1-.58-1.559,2.169,2.169,0,0,1,.55-1.54,1.876,1.876,0,0,1,1.44-.59A1.84,1.84,0,0,1,528.12,814.654Zm-1.57-.42a1.539,1.539,0,0,0-1.12.464,1.684,1.684,0,0,0-.47,1.255,1.96,1.96,0,0,0,.43,1.265,1.541,1.541,0,0,0,2.325.011,1.968,1.968,0,0,0,.425-1.276,1.636,1.636,0,0,0-.49-1.275A1.6,1.6,0,0,0,526.55,814.234Z"/>
    <path class="cls-5" d="M529.96,818.024v-4.08h.4v1.8h2.3v-1.8h.4v4.08h-.4v-1.9h-2.3v1.9Z"/>
    <path class="cls-5" d="M534.061,818.024l1.3-1.781a1.28,1.28,0,0,1-.8-.3,1.027,1.027,0,0,1-.34-.811,1.107,1.107,0,0,1,.369-.9,1.43,1.43,0,0,1,.971-.29h1.359v4.08h-.4v-1.76h-.7l-1.28,1.76Zm2.46-2.141v-1.56h-.96a1.034,1.034,0,0,0-.651.18.771.771,0,0,0-.269.62.685.685,0,0,0,.259.58,1.081,1.081,0,0,0,.661.18Z"/>
    <path class="cls-5" d="M539.141,818.024v-3.7h-1.42v-.379h3.24v.379h-1.42v3.7Z"/>
    <path class="cls-5" d="M541.76,813.944h.4v1.7h.97a1.323,1.323,0,0,1,1.04.38,1.16,1.16,0,0,1,.29.809,1.136,1.136,0,0,1-.36.88,1.381,1.381,0,0,1-.98.311h-1.36Zm.4,3.7h.96a.952.952,0,0,0,.64-.191.762.762,0,0,0,.28-.62.745.745,0,0,0-.29-.63,1.06,1.06,0,0,0-.65-.179h-.94Z"/>
    <path class="cls-5" d="M548.83,814.373v.531a1.8,1.8,0,0,0-1.41-.67,1.612,1.612,0,0,0-1.22.5,1.765,1.765,0,0,0-.48,1.265,1.652,1.652,0,0,0,.509,1.285,1.685,1.685,0,0,0,1.17.465,1.985,1.985,0,0,0,1.481-.729v.54a2.172,2.172,0,0,1-1.49.569,2,2,0,0,1-1.5-.6,2.1,2.1,0,0,1-.585-1.515,2.164,2.164,0,0,1,.58-1.546,2.021,2.021,0,0,1,1.54-.614A2.139,2.139,0,0,1,548.83,814.373Z"/>
    <path class="cls-5" d="M549.54,818.024l1.3-1.781a1.283,1.283,0,0,1-.8-.3,1.027,1.027,0,0,1-.34-.811,1.107,1.107,0,0,1,.369-.9,1.43,1.43,0,0,1,.971-.29H552.4v4.08H552v-1.76h-.7l-1.28,1.76Zm2.46-2.141v-1.56h-.96a1.032,1.032,0,0,0-.65.18.772.772,0,0,0-.27.62.683.683,0,0,0,.26.58,1.078,1.078,0,0,0,.66.18Z"/>
    <path class="cls-5" d="M171.147,828.024v-3.7h-1.419v-.379h3.24v.379h-1.42v3.7Z"/>
    <path class="cls-5" d="M173.912,824.469a2.2,2.2,0,1,1-.615,1.524A2.07,2.07,0,0,1,173.912,824.469Zm.3,2.774a1.724,1.724,0,0,0,2.45,0,1.826,1.826,0,0,0,0-2.5,1.729,1.729,0,0,0-2.45,0,1.826,1.826,0,0,0,0,2.5Z"/>
    <path class="cls-5" d="M181.617,823.944v4.08h-.4v-3.7h-1.88v2.361a1.655,1.655,0,0,1-.24.99.907.907,0,0,1-.78.369,1.629,1.629,0,0,1-.2-.019v-.38a.845.845,0,0,0,.151.019.613.613,0,0,0,.529-.269,1.363,1.363,0,0,0,.141-.71v-2.74Z"/>
    <path class="cls-5" d="M183.057,823.944h.4v1.7h.97a1.327,1.327,0,0,1,1.04.38,1.162,1.162,0,0,1,.29.809,1.137,1.137,0,0,1-.361.881,1.381,1.381,0,0,1-.979.31h-1.36Zm.4,3.7h.96a.952.952,0,0,0,.64-.191.761.761,0,0,0,.28-.62.748.748,0,0,0-.29-.63,1.061,1.061,0,0,0-.651-.179h-.939Z"/>
    <path class="cls-5" d="M186.646,823.944h.4v1.94l2.059-1.94h.54l-2.08,1.94,2.241,2.14h-.58l-1.96-1.87-.22.209v1.661h-.4Z"/>
    <path class="cls-5" d="M190.762,824.469a2.2,2.2,0,1,1-.616,1.524A2.07,2.07,0,0,1,190.762,824.469Zm.3,2.774a1.724,1.724,0,0,0,2.45,0,1.826,1.826,0,0,0,0-2.5,1.729,1.729,0,0,0-2.45,0,1.823,1.823,0,0,0,0,2.5Z"/>
    <path class="cls-5" d="M197.937,823.944h1.33a1.368,1.368,0,0,1,.87.24,1.026,1.026,0,0,1-.09,1.63.961.961,0,0,1,.5.229,1.144,1.144,0,0,1-.061,1.7,1.588,1.588,0,0,1-1,.281h-1.549Zm.4,1.78h.93a.9.9,0,0,0,.58-.17.656.656,0,0,0,.25-.54.642.642,0,0,0-.25-.53.909.909,0,0,0-.58-.161h-.93Zm0,1.92h1.149a1.166,1.166,0,0,0,.7-.18.725.725,0,0,0,.29-.61.686.686,0,0,0-.27-.571,1.2,1.2,0,0,0-.721-.179h-1.149Z"/>
    <path class="cls-5" d="M204.406,828.024v-4.08h3.04v4.08h-.4v-3.7h-2.24v3.7Z"/>
    <path class="cls-5" d="M209.286,827.293v3.03h-.4v-6.379h.4v.71a1.884,1.884,0,0,1,1.6-.8,1.851,1.851,0,0,1,1.44.594,2.156,2.156,0,0,1,.54,1.5,2.281,2.281,0,0,1-.545,1.556,1.985,1.985,0,0,1-2.285.439,1.783,1.783,0,0,1-.51-.339A2.273,2.273,0,0,1,209.286,827.293Zm.4-.055a1.59,1.59,0,0,0,2.34,0,1.958,1.958,0,0,0,.42-1.29,1.7,1.7,0,0,0-.46-1.264,1.529,1.529,0,0,0-1.12-.455,1.582,1.582,0,0,0-1.125.45,1.638,1.638,0,0,0-.475,1.25A1.993,1.993,0,0,0,209.686,827.238Z"/>
    <path class="cls-5" d="M217.7,826.033h-3.49a1.686,1.686,0,0,0,.476,1.241,1.55,1.55,0,0,0,1.144.48,1.461,1.461,0,0,0,.85-.256,1.677,1.677,0,0,0,.57-.675l.34.2a2.343,2.343,0,0,1-.67.775,1.8,1.8,0,0,1-1.12.335,1.873,1.873,0,0,1-1.47-.605,2.207,2.207,0,0,1-.54-1.525,2.1,2.1,0,0,1,.585-1.58,1.928,1.928,0,0,1,1.4-.57,1.779,1.779,0,0,1,1.379.61A2.252,2.252,0,0,1,217.7,826.033Zm-3.46-.379h3.04a1.662,1.662,0,0,0-.5-1.02,1.4,1.4,0,0,0-1.014-.4,1.425,1.425,0,0,0-1.031.4A1.662,1.662,0,0,0,214.236,825.654Z"/>
    <path class="cls-5" d="M219.156,823.944h2.68v3.7h.6v1.479h-.38v-1.1h-3.441v1.1h-.38v-1.479a.866.866,0,0,0,.75-.54,2.651,2.651,0,0,0,.17-1.1Zm2.281,3.7v-3.321h-1.88v1.8a1.9,1.9,0,0,1-.521,1.521Z"/>
    <path class="cls-5" d="M226.926,826.033h-3.49a1.69,1.69,0,0,0,.475,1.241,1.552,1.552,0,0,0,1.145.48,1.458,1.458,0,0,0,.849-.256,1.679,1.679,0,0,0,.571-.675l.339.2a2.351,2.351,0,0,1-.669.775,1.8,1.8,0,0,1-1.121.335,1.87,1.87,0,0,1-1.469-.605,2.2,2.2,0,0,1-.54-1.525,2.1,2.1,0,0,1,.585-1.58,1.924,1.924,0,0,1,1.4-.57,1.78,1.78,0,0,1,1.38.61A2.256,2.256,0,0,1,226.926,826.033Zm-3.46-.379h3.04a1.672,1.672,0,0,0-.5-1.02,1.407,1.407,0,0,0-1.015-.4,1.423,1.423,0,0,0-1.03.4A1.662,1.662,0,0,0,223.466,825.654Z"/>
    <path class="cls-5" d="M230.966,823.944v4.08h-.4v-3.7h-1.879v2.361a1.655,1.655,0,0,1-.241.99.9.9,0,0,1-.779.369,1.629,1.629,0,0,1-.2-.019v-.38a.837.837,0,0,0,.15.019.613.613,0,0,0,.53-.269,1.375,1.375,0,0,0,.14-.71v-2.74Z"/>
    <path class="cls-5" d="M235.726,824.654v-.71h.4v4.08h-.4v-.731a1.786,1.786,0,0,1-1.59.841,1.9,1.9,0,0,1-1.41-.591,2.124,2.124,0,0,1-.58-1.559,2.17,2.17,0,0,1,.549-1.54,1.878,1.878,0,0,1,1.441-.59A1.842,1.842,0,0,1,235.726,824.654Zm-1.571-.42a1.542,1.542,0,0,0-1.12.464,1.69,1.69,0,0,0-.47,1.255,1.96,1.96,0,0,0,.43,1.266,1.424,1.424,0,0,0,1.171.535,1.408,1.408,0,0,0,1.154-.525,1.961,1.961,0,0,0,.425-1.276,1.636,1.636,0,0,0-.489-1.274A1.594,1.594,0,0,0,234.155,824.234Z"/>
    <path class="cls-5" d="M236.926,828.024l1.65-2.14-1.511-1.94h.491l1.29,1.679,1.269-1.679h.49l-1.479,1.94,1.64,2.14h-.491l-1.429-1.88-1.43,1.88Z"/>
    <path class="cls-5" d="M243.9,823.944h.4v1.94l2.059-1.94h.541l-2.081,1.94,2.241,2.14h-.58l-1.96-1.87-.22.209v1.661h-.4Z"/>
    <path class="cls-5" d="M248.011,824.469a2.2,2.2,0,1,1-.615,1.524A2.07,2.07,0,0,1,248.011,824.469Zm.3,2.774a1.724,1.724,0,0,0,2.45,0,1.826,1.826,0,0,0,0-2.5,1.729,1.729,0,0,0-2.45,0,1.823,1.823,0,0,0,0,2.5Z"/>
    <path class="cls-5" d="M252.376,828.024l.96-4.33,1.63,3.679,1.63-3.679.96,4.33h-.42l-.66-3.191-1.51,3.441-1.51-3.441-.66,3.191Z"/>
    <path class="cls-5" d="M258.516,828.024v-4.08h3.04v4.08h-.4v-3.7h-2.24v3.7Z"/>
    <path class="cls-5" d="M266.315,824.654v-.71h.4v4.08h-.4v-.731a1.783,1.783,0,0,1-1.589.841,1.9,1.9,0,0,1-1.411-.591,2.128,2.128,0,0,1-.58-1.559,2.171,2.171,0,0,1,.55-1.54,1.877,1.877,0,0,1,1.441-.59A1.839,1.839,0,0,1,266.315,824.654Zm-1.57-.42a1.54,1.54,0,0,0-1.12.464,1.69,1.69,0,0,0-.47,1.255,1.96,1.96,0,0,0,.43,1.266,1.424,1.424,0,0,0,1.171.535,1.408,1.408,0,0,0,1.154-.525,1.966,1.966,0,0,0,.425-1.276,1.636,1.636,0,0,0-.489-1.274A1.6,1.6,0,0,0,264.745,824.234Z"/>
    <path class="cls-5" d="M268.155,828.024v-4.08h.4v1.8h2.3v-1.8h.4v4.08h-.4v-1.9h-2.3v1.9Z"/>
    <path class="cls-5" d="M272.7,823.944h.4v3.27l2.9-3.5v4.31h-.4v-3.25l-2.9,3.5Z"/>
    <path class="cls-5" d="M277.435,823.944h.4v3.27l2.9-3.5v4.31h-.4v-3.25l-2.9,3.5Z"/>
    <path class="cls-5" d="M286.115,828.024v-2.85l-2.19-3.82h.5l1.92,3.37,1.96-3.37h.5l-2.25,3.82v2.85Z"/>
    <path class="cls-5" d="M293.466,828.024l-.891-2.191h-2.84l-.889,2.191h-.481l2.811-6.87,2.769,6.87Zm-3.57-2.59h2.52l-1.25-3.16Z"/>
    <path class="cls-5" d="M296.305,828.024h-1.32v-6.67h1.32a3.325,3.325,0,0,1,2.46.929,3.078,3.078,0,0,1,.725,1.141,3.541,3.541,0,0,1,0,2.524,3.043,3.043,0,0,1-.73,1.146A3.325,3.325,0,0,1,296.305,828.024Zm-.88-6.27v5.869h.87a2.922,2.922,0,0,0,2.145-.814,3.118,3.118,0,0,0,0-4.231,2.909,2.909,0,0,0-2.14-.824Z"/>
    <path class="cls-5" d="M304.465,828.024h-.5l-2.16-3.151h-.2v3.151h-.439v-6.67h.96a2.485,2.485,0,0,1,1.409.34,1.625,1.625,0,0,1,.691,1.429,1.832,1.832,0,0,1-.27.986,1.546,1.546,0,0,1-.851.634,2.5,2.5,0,0,1-.82.13Zm-2.861-6.27v2.72h.641a1.611,1.611,0,0,0,1.114-.361,1.266,1.266,0,0,0,.406-1,1.2,1.2,0,0,0-.59-1.16,2.111,2.111,0,0,0-1.021-.2Z"/>
    <path class="cls-5" d="M306.375,822.264a3.46,3.46,0,0,1,5.92,2.439,3.3,3.3,0,0,1-1,2.436,3.545,3.545,0,0,1-4.925,0,3.477,3.477,0,0,1,0-4.875Zm.32,4.6a3.054,3.054,0,0,0,4.28,0,3.144,3.144,0,0,0,0-4.321,3.054,3.054,0,0,0-4.28,0,3.144,3.144,0,0,0,0,4.321Z"/>
    <path class="cls-5" d="M315.885,823.944h.4v3.27l2.9-3.5v4.31h-.4v-3.25l-2.9,3.5Z"/>
    <path class="cls-5" d="M326.274,824.654v-.71h.4v4.08h-.4v-.731a1.783,1.783,0,0,1-1.589.841,1.9,1.9,0,0,1-1.411-.591,2.128,2.128,0,0,1-.58-1.559,2.171,2.171,0,0,1,.55-1.54,1.877,1.877,0,0,1,1.441-.59A1.839,1.839,0,0,1,326.274,824.654Zm-1.57-.42a1.54,1.54,0,0,0-1.12.464,1.69,1.69,0,0,0-.47,1.255,1.96,1.96,0,0,0,.43,1.266,1.424,1.424,0,0,0,1.171.535,1.408,1.408,0,0,0,1.154-.525,1.966,1.966,0,0,0,.425-1.276,1.636,1.636,0,0,0-.489-1.274A1.6,1.6,0,0,0,324.7,824.234Z"/>
    <path class="cls-5" d="M328.114,823.944h1.33a1.366,1.366,0,0,1,.87.24,1.026,1.026,0,0,1-.089,1.63.961.961,0,0,1,.5.229,1.144,1.144,0,0,1-.061,1.7,1.588,1.588,0,0,1-1,.281h-1.55Zm.4,1.78h.929a.9.9,0,0,0,.58-.17.656.656,0,0,0,.25-.54.642.642,0,0,0-.25-.53.907.907,0,0,0-.58-.161h-.929Zm0,1.92h1.149a1.16,1.16,0,0,0,.7-.18.723.723,0,0,0,.29-.61.687.687,0,0,0-.269-.571,1.2,1.2,0,0,0-.721-.179h-1.149Z"/>
    <path class="cls-5" d="M332.835,828.024v-3.7h-1.42v-.379h3.24v.379h-1.42v3.7Z"/>
    <path class="cls-5" d="M335.6,824.469a2.2,2.2,0,1,1-.616,1.524A2.07,2.07,0,0,1,335.6,824.469Zm.3,2.774a1.725,1.725,0,0,0,2.451,0,1.826,1.826,0,0,0,0-2.5,1.73,1.73,0,0,0-2.451,0,1.826,1.826,0,0,0,0,2.5Z"/>
    <path class="cls-5" d="M340.845,827.293v3.03h-.4v-6.379h.4v.71a1.881,1.881,0,0,1,1.6-.8,1.854,1.854,0,0,1,1.441.594,2.16,2.16,0,0,1,.54,1.5,2.286,2.286,0,0,1-.545,1.556,1.985,1.985,0,0,1-2.285.439,1.783,1.783,0,0,1-.51-.339A2.127,2.127,0,0,1,340.845,827.293Zm.4-.055a1.591,1.591,0,0,0,2.341,0,1.964,1.964,0,0,0,.42-1.29,1.7,1.7,0,0,0-.46-1.264,1.532,1.532,0,0,0-1.12-.455,1.579,1.579,0,0,0-1.125.45,1.635,1.635,0,0,0-.476,1.25A2,2,0,0,0,341.244,827.238Z"/>
    <path class="cls-5" d="M345.6,823.944h.4v3.27l2.9-3.5v4.31h-.4v-3.25l-2.9,3.5Z"/>
    <path class="cls-5" d="M350.674,824.8l-.33-.231a1.394,1.394,0,0,1,1.29-.719,1.268,1.268,0,0,1,.9.29,1,1,0,0,1,.33.79.883.883,0,0,1-.47.849.961.961,0,0,1,.48.271,1.053,1.053,0,0,1,.29.779,1.194,1.194,0,0,1-.48,1,1.691,1.691,0,0,1-1.04.3,1.727,1.727,0,0,1-1.07-.311,1.806,1.806,0,0,1-.49-.589l.36-.23a1.232,1.232,0,0,0,.43.52,1.259,1.259,0,0,0,.77.23,1.173,1.173,0,0,0,.78-.23.854.854,0,0,0,.32-.7.7.7,0,0,0-.28-.6,1.254,1.254,0,0,0-.75-.181h-.42v-.38h.31a.972.972,0,0,0,.61-.17.631.631,0,0,0,.25-.519.716.716,0,0,0-.21-.53.9.9,0,0,0-.63-.21A1.014,1.014,0,0,0,350.674,824.8Z"/>
    <path class="cls-5" d="M354.7,824.469a2.2,2.2,0,1,1-.615,1.524A2.07,2.07,0,0,1,354.7,824.469Zm.3,2.774a1.724,1.724,0,0,0,2.45,0,1.826,1.826,0,0,0,0-2.5,1.729,1.729,0,0,0-2.45,0,1.826,1.826,0,0,0,0,2.5Z"/>
    <path class="cls-5" d="M359.544,823.944h1.33a1.366,1.366,0,0,1,.87.24,1.023,1.023,0,0,0,.41,1.859,1.143,1.143,0,0,1-.06,1.7,1.59,1.59,0,0,1-1,.281h-1.55Zm.4,1.78h.93a.9.9,0,0,0,.58-.17.656.656,0,0,0,.25-.54.642.642,0,0,0-.25-.53.909.909,0,0,0-.58-.161h-.93Zm0,1.92h1.15a1.162,1.162,0,0,0,.7-.18.725.725,0,0,0,.29-.61.686.686,0,0,0-.27-.571,1.194,1.194,0,0,0-.72-.179h-1.15Z"/>
    <path class="cls-5" d="M367,824.654v-.71h.4v4.08H367v-.731a1.785,1.785,0,0,1-1.59.841,1.9,1.9,0,0,1-1.41-.591,2.124,2.124,0,0,1-.58-1.559,2.166,2.166,0,0,1,.55-1.54,1.874,1.874,0,0,1,1.44-.59A1.84,1.84,0,0,1,367,824.654Zm-1.57-.42a1.543,1.543,0,0,0-1.121.464,1.689,1.689,0,0,0-.469,1.255,1.96,1.96,0,0,0,.429,1.266,1.426,1.426,0,0,0,1.171.535,1.41,1.41,0,0,0,1.155-.525,1.966,1.966,0,0,0,.424-1.276,1.636,1.636,0,0,0-.489-1.274A1.594,1.594,0,0,0,365.434,824.234Z"/>
    <path class="cls-5" d="M368.844,828.024v-4.08h.4v1.8h2.3v-1.8h.4v4.08h-.4v-1.9h-2.3v1.9Z"/>
    <path class="cls-5" d="M373.384,828.024v-4.08h.4v1.8h2.3v-1.8h.4v4.08h-.4v-1.9h-2.3v1.9Z"/>
    <path class="cls-5" d="M377.924,823.944h.4v1.7h.97a1.327,1.327,0,0,1,1.04.38,1.162,1.162,0,0,1,.29.809,1.139,1.139,0,0,1-.36.881,1.385,1.385,0,0,1-.98.31h-1.36Zm.4,3.7h.96a.952.952,0,0,0,.64-.191.761.761,0,0,0,.28-.62.748.748,0,0,0-.29-.63,1.06,1.06,0,0,0-.65-.179h-.94Zm2.76-3.7h.4v4.08h-.4Z"/>
    <path class="cls-5" d="M382.284,828.024l1.651-2.14-1.511-1.94h.49l1.29,1.679,1.27-1.679h.49l-1.48,1.94,1.64,2.14h-.49l-1.43-1.88-1.43,1.88Z"/>
    <path class="cls-5" d="M389.253,828.024v-4.08h3.04v4.08h-.4v-3.7h-2.241v3.7Z"/>
    <path class="cls-5" d="M397.054,824.654v-.71h.4v4.08h-.4v-.731a1.785,1.785,0,0,1-1.59.841,1.9,1.9,0,0,1-1.41-.591,2.124,2.124,0,0,1-.58-1.559,2.17,2.17,0,0,1,.549-1.54,1.878,1.878,0,0,1,1.441-.59A1.84,1.84,0,0,1,397.054,824.654Zm-1.571-.42a1.542,1.542,0,0,0-1.12.464,1.689,1.689,0,0,0-.469,1.255,1.96,1.96,0,0,0,.429,1.266,1.424,1.424,0,0,0,1.171.535,1.408,1.408,0,0,0,1.154-.525,1.961,1.961,0,0,0,.425-1.276,1.636,1.636,0,0,0-.489-1.274A1.594,1.594,0,0,0,395.483,824.234Z"/>
    <path class="cls-5" d="M399.294,827.293v3.03h-.4v-6.379h.4v.71a1.884,1.884,0,0,1,1.6-.8,1.851,1.851,0,0,1,1.44.594,2.16,2.16,0,0,1,.54,1.5,2.286,2.286,0,0,1-.545,1.556,1.985,1.985,0,0,1-2.285.439,1.783,1.783,0,0,1-.51-.339A2.127,2.127,0,0,1,399.294,827.293Zm.4-.055a1.591,1.591,0,0,0,2.341,0,1.964,1.964,0,0,0,.42-1.29,1.7,1.7,0,0,0-.46-1.264,1.531,1.531,0,0,0-1.12-.455,1.579,1.579,0,0,0-1.125.45,1.639,1.639,0,0,0-.476,1.25A2,2,0,0,0,399.693,827.238Z"/>
    <path class="cls-5" d="M404.634,828.024v-3.7h-1.42v-.379h3.24v.379h-1.42v3.7Z"/>
    <path class="cls-5" d="M407.253,828.024v-4.08h.4v1.8h2.3v-1.8h.4v4.08h-.4v-1.9h-2.3v1.9Z"/>
    <path class="cls-5" d="M415.443,826.033h-3.49a1.686,1.686,0,0,0,.476,1.241,1.55,1.55,0,0,0,1.144.48,1.459,1.459,0,0,0,.85-.256,1.677,1.677,0,0,0,.57-.675l.34.2a2.343,2.343,0,0,1-.67.775,1.8,1.8,0,0,1-1.12.335,1.873,1.873,0,0,1-1.47-.605,2.207,2.207,0,0,1-.54-1.525,2.107,2.107,0,0,1,.585-1.58,1.928,1.928,0,0,1,1.4-.57,1.783,1.783,0,0,1,1.38.61A2.256,2.256,0,0,1,415.443,826.033Zm-3.46-.379h3.04a1.662,1.662,0,0,0-.5-1.02,1.4,1.4,0,0,0-1.014-.4,1.425,1.425,0,0,0-1.031.4A1.662,1.662,0,0,0,411.983,825.654Z"/>
    <path class="cls-5" d="M417.023,827.293v3.03h-.4v-6.379h.4v.71a1.884,1.884,0,0,1,1.6-.8,1.85,1.85,0,0,1,1.44.594,2.156,2.156,0,0,1,.541,1.5,2.286,2.286,0,0,1-.545,1.556,1.987,1.987,0,0,1-2.286.439,1.76,1.76,0,0,1-.509-.339A2.206,2.206,0,0,1,417.023,827.293Zm.4-.055a1.591,1.591,0,0,0,2.341,0,1.964,1.964,0,0,0,.42-1.29,1.7,1.7,0,0,0-.46-1.264,1.532,1.532,0,0,0-1.12-.455,1.579,1.579,0,0,0-1.125.45,1.635,1.635,0,0,0-.476,1.25A2,2,0,0,0,417.423,827.238Z"/>
    <path class="cls-5" d="M425.054,824.373v.531a1.8,1.8,0,0,0-1.41-.67,1.613,1.613,0,0,0-1.22.5,1.767,1.767,0,0,0-.481,1.266,1.649,1.649,0,0,0,.51,1.284,1.686,1.686,0,0,0,1.17.466,1.988,1.988,0,0,0,1.481-.73v.54a2.173,2.173,0,0,1-1.491.57,2,2,0,0,1-1.5-.605,2.1,2.1,0,0,1-.585-1.515,2.163,2.163,0,0,1,.581-1.545,2.016,2.016,0,0,1,1.54-.615A2.144,2.144,0,0,1,425.054,824.373Z"/>
    <path class="cls-5" d="M426.2,823.944h.4v1.94l2.059-1.94h.54l-2.08,1.94,2.24,2.14h-.58l-1.96-1.87-.219.209v1.661h-.4Z"/>
    <path class="cls-5" d="M430.163,823.944h.4v3.27l2.9-3.5v4.31h-.4v-3.25l-2.9,3.5Z"/>
    <path class="cls-5" d="M434.263,828.024l1.65-2.14-1.511-1.94h.491l1.29,1.679,1.269-1.679h.49l-1.479,1.94,1.64,2.14h-.491l-1.429-1.88-1.43,1.88Z"/>
    <path class="cls-5" d="M441.588,824.469a2.2,2.2,0,1,1-.615,1.524A2.07,2.07,0,0,1,441.588,824.469Zm.3,2.774a1.724,1.724,0,0,0,2.45,0,1.826,1.826,0,0,0,0-2.5,1.729,1.729,0,0,0-2.45,0,1.826,1.826,0,0,0,0,2.5Z"/>
    <path class="cls-5" d="M446.833,827.293v3.03h-.4v-6.379h.4v.71a1.884,1.884,0,0,1,1.6-.8,1.851,1.851,0,0,1,1.44.594,2.16,2.16,0,0,1,.54,1.5,2.286,2.286,0,0,1-.545,1.556,1.985,1.985,0,0,1-2.285.439,1.783,1.783,0,0,1-.51-.339A2.127,2.127,0,0,1,446.833,827.293Zm.4-.055a1.591,1.591,0,0,0,2.341,0,1.958,1.958,0,0,0,.42-1.29,1.7,1.7,0,0,0-.46-1.264,1.529,1.529,0,0,0-1.12-.455,1.579,1.579,0,0,0-1.125.45,1.638,1.638,0,0,0-.475,1.25A2,2,0,0,0,447.232,827.238Z"/>
    <path class="cls-5" d="M451.593,828.024v-4.08h2.2v.379h-1.8v3.7Z"/>
    <path class="cls-5" d="M457.813,824.654v-.71h.4v4.08h-.4v-.731a1.786,1.786,0,0,1-1.59.841,1.9,1.9,0,0,1-1.41-.591,2.125,2.125,0,0,1-.581-1.559,2.171,2.171,0,0,1,.55-1.54,1.877,1.877,0,0,1,1.441-.59A1.842,1.842,0,0,1,457.813,824.654Zm-1.571-.42a1.542,1.542,0,0,0-1.12.464,1.69,1.69,0,0,0-.47,1.255,1.96,1.96,0,0,0,.43,1.266,1.424,1.424,0,0,0,1.171.535,1.408,1.408,0,0,0,1.154-.525,1.966,1.966,0,0,0,.425-1.276,1.636,1.636,0,0,0-.489-1.274A1.6,1.6,0,0,0,456.242,824.234Z"/>
    <path class="cls-5" d="M459.652,828.024v-4.08h.4v1.8h2.3v-1.8h.4v4.08h-.4v-1.9h-2.3v1.9Z"/>
    <path class="cls-5" d="M464.192,823.944h.4v3.27l2.9-3.5v4.31h-.4v-3.25l-2.9,3.5Z"/>
    <path class="cls-5" d="M469.263,824.8l-.33-.231a1.394,1.394,0,0,1,1.29-.719,1.268,1.268,0,0,1,.9.29,1,1,0,0,1,.33.79.882.882,0,0,1-.471.849.96.96,0,0,1,.481.271,1.053,1.053,0,0,1,.29.779,1.192,1.192,0,0,1-.481,1,1.687,1.687,0,0,1-1.04.3,1.726,1.726,0,0,1-1.069-.311,1.806,1.806,0,0,1-.49-.589l.36-.23a1.225,1.225,0,0,0,.43.52,1.258,1.258,0,0,0,.769.23,1.174,1.174,0,0,0,.781-.23.854.854,0,0,0,.32-.7.7.7,0,0,0-.28-.6,1.254,1.254,0,0,0-.75-.181h-.42v-.38h.31a.972.972,0,0,0,.61-.17.631.631,0,0,0,.25-.519.72.72,0,0,0-.21-.53.9.9,0,0,0-.63-.21A1.014,1.014,0,0,0,469.263,824.8Z"/>
    <path class="cls-5" d="M476.253,824.654v-.71h.4v4.08h-.4v-.731a1.785,1.785,0,0,1-1.59.841,1.9,1.9,0,0,1-1.41-.591,2.124,2.124,0,0,1-.58-1.559,2.166,2.166,0,0,1,.55-1.54,1.874,1.874,0,0,1,1.44-.59A1.84,1.84,0,0,1,476.253,824.654Zm-1.57-.42a1.539,1.539,0,0,0-1.12.464,1.686,1.686,0,0,0-.47,1.255,1.96,1.96,0,0,0,.429,1.266,1.426,1.426,0,0,0,1.171.535,1.41,1.41,0,0,0,1.155-.525,1.966,1.966,0,0,0,.424-1.276,1.636,1.636,0,0,0-.489-1.274A1.594,1.594,0,0,0,474.683,824.234Z"/>
    <path class="cls-5" d="M478.092,828.024v-4.08h.4v3.7h2.2v-3.7h.4v3.7h.6v1.479h-.379v-1.1Z"/>
    <path class="cls-5" d="M482.532,823.944h.4v3.27l2.9-3.5v4.31h-.4v-3.25l-2.9,3.5Z"/>
    <path class="cls-5" d="M487.271,823.944h.4v3.27l2.9-3.5v4.31h-.4v-3.25l-2.9,3.5Zm.46-1.651.34-.17a.977.977,0,0,0,.336.521,1.035,1.035,0,0,0,1.25,0,.981.981,0,0,0,.335-.521l.34.17a1.369,1.369,0,0,1-2.6,0Z"/>
  </g>
  <line class="cls-6" x1="163.308" y1="833.499" x2="585.801" y2="833.499"/>
</svg>
