<?xml version="1.0" encoding="utf-8"?>
<svg version="1.1" xmlns="http://www.w3.org/2000/svg" xmlns:xlink="http://www.w3.org/1999/xlink" x="0px" y="0px"
	 width="8.27in" height="11.69in" viewBox="0 0 595.276 841.89" xml:space="preserve">
<style type="text/css">
	.st1{fill:#1226AA;}
	.st2{clip-path:url(#SVGID_2_);}
	.st3{fill:none;stroke:#FFFFFF;stroke-width:0.7087;stroke-linejoin:bevel;stroke-miterlimit:10;}
	.st4{fill:#FFFFFF;}
</style>
<g id="Layer_1">
	<g>
		<rect x="-15.283" y="785.197" class="st1" width="612" height="56.693"/>
		<g>
			<defs>
				<rect id="SVGID_1_" x="-15.283" y="785.197" width="612" height="56.693"/>
			</defs>
			<clipPath id="SVGID_2_">
				<use xlink:href="#SVGID_1_"  style="overflow:visible;"/>
			</clipPath>
			<g class="st2">
				<g>
					<polygon class="st3" points="-21.094,710.963 16.701,710.963 -2.197,743.695 					"/>
					<polygon class="st3" points="35.599,743.695 -2.197,743.695 16.701,710.963 					"/>
					<polygon class="st3" points="16.701,710.963 54.496,710.963 35.599,743.695 					"/>
					<polygon class="st3" points="73.394,743.695 35.599,743.695 54.496,710.963 					"/>
					<polygon class="st3" points="54.496,710.963 92.292,710.963 73.394,743.695 					"/>
					<polygon class="st3" points="111.189,743.695 73.394,743.695 92.292,710.963 					"/>
					<polygon class="st3" points="92.292,710.963 130.087,710.963 111.189,743.695 					"/>
					<polygon class="st3" points="148.985,743.695 111.189,743.695 130.087,710.963 					"/>
					<polygon class="st3" points="130.087,710.963 167.882,710.963 148.985,743.695 					"/>
					<polygon class="st3" points="186.78,743.695 148.985,743.695 167.882,710.963 					"/>
					<polygon class="st3" points="167.882,710.963 205.677,710.963 186.78,743.695 					"/>
					<polygon class="st3" points="224.575,743.695 186.78,743.695 205.677,710.963 					"/>
					<polygon class="st3" points="205.677,710.963 243.473,710.963 224.575,743.695 					"/>
					<polygon class="st3" points="262.37,743.695 224.575,743.695 243.473,710.963 					"/>
					<polygon class="st3" points="243.473,710.963 281.268,710.963 262.37,743.695 					"/>
					<polygon class="st3" points="300.166,743.695 262.37,743.695 281.268,710.963 					"/>
					<polygon class="st3" points="-21.094,776.427 16.701,776.427 -2.197,743.695 					"/>
					<polygon class="st3" points="35.599,743.695 -2.197,743.695 16.701,776.427 					"/>
					<polygon class="st3" points="16.701,776.427 54.496,776.427 35.599,743.695 					"/>
					<polygon class="st3" points="73.394,743.695 35.599,743.695 54.496,776.427 					"/>
					<polygon class="st3" points="54.496,776.427 92.292,776.427 73.394,743.695 					"/>
					<polygon class="st3" points="111.189,743.695 73.394,743.695 92.292,776.427 					"/>
					<polygon class="st3" points="92.292,776.427 130.087,776.427 111.189,743.695 					"/>
					<polygon class="st3" points="148.985,743.695 111.189,743.695 130.087,776.427 					"/>
					<polygon class="st3" points="130.087,776.427 167.882,776.427 148.985,743.695 					"/>
					<polygon class="st3" points="186.78,743.695 148.985,743.695 167.882,776.427 					"/>
					<polygon class="st3" points="167.882,776.427 205.677,776.427 186.78,743.695 					"/>
					<polygon class="st3" points="224.575,743.695 186.78,743.695 205.677,776.427 					"/>
					<polygon class="st3" points="205.677,776.427 243.473,776.427 224.575,743.695 					"/>
					<polygon class="st3" points="262.37,743.695 224.575,743.695 243.473,776.427 					"/>
					<polygon class="st3" points="243.473,776.427 281.268,776.427 262.37,743.695 					"/>
					<polygon class="st3" points="300.166,743.695 262.37,743.695 281.268,776.427 					"/>
				</g>
				<g>
					<polygon class="st4" points="-21.094,710.963 16.701,710.963 -2.197,743.695 					"/>
					<polygon class="st4" points="-21.094,776.427 16.701,776.427 -2.197,743.695 					"/>
					<polygon class="st4" points="35.599,743.695 -2.197,743.695 16.701,776.427 					"/>
					<polygon class="st4" points="16.701,776.427 54.496,776.427 35.599,743.695 					"/>
					<polygon class="st4" points="111.189,743.695 73.394,743.695 92.292,710.963 					"/>
					<polygon class="st4" points="92.292,710.963 130.087,710.963 111.189,743.695 					"/>
					<polygon class="st4" points="54.496,776.427 92.292,776.427 73.394,743.695 					"/>
					<polygon class="st4" points="111.189,743.695 73.394,743.695 92.292,776.427 					"/>
					<polygon class="st4" points="186.78,743.695 148.985,743.695 167.882,710.963 					"/>
					<polygon class="st4" points="167.882,710.963 205.677,710.963 186.78,743.695 					"/>
					<polygon class="st4" points="262.37,743.695 224.575,743.695 243.473,710.963 					"/>
					<polygon class="st4" points="167.882,776.427 205.677,776.427 186.78,743.695 					"/>
					<polygon class="st4" points="262.37,743.695 224.575,743.695 243.473,776.427 					"/>
				</g>
				<g>
					<polygon class="st3" points="-21.094,776.427 16.701,776.427 -2.197,809.158 					"/>
					<polygon class="st3" points="35.599,809.158 -2.197,809.158 16.701,776.427 					"/>
					<polygon class="st3" points="16.701,776.427 54.496,776.427 35.599,809.158 					"/>
					<polygon class="st3" points="73.394,809.158 35.599,809.158 54.496,776.427 					"/>
					<polygon class="st3" points="54.496,776.427 92.292,776.427 73.394,809.158 					"/>
					<polygon class="st3" points="111.189,809.158 73.394,809.158 92.292,776.427 					"/>
					<polygon class="st3" points="92.292,776.427 130.087,776.427 111.189,809.158 					"/>
					<polygon class="st3" points="148.985,809.158 111.189,809.158 130.087,776.427 					"/>
					<polygon class="st3" points="224.575,809.158 186.78,809.158 205.677,776.427 					"/>
					<polygon class="st3" points="205.677,776.427 243.473,776.427 224.575,809.158 					"/>
					<polygon class="st3" points="262.37,809.158 224.575,809.158 243.473,776.427 					"/>
					<polygon class="st3" points="243.473,776.427 281.268,776.427 262.37,809.158 					"/>
					<polygon class="st3" points="300.166,809.158 262.37,809.158 281.268,776.427 					"/>
					<polygon class="st3" points="-21.094,841.89 16.701,841.89 -2.197,809.158 					"/>
					<polygon class="st3" points="35.599,809.158 -2.197,809.158 16.701,841.89 					"/>
					<polygon class="st3" points="16.701,841.89 54.496,841.89 35.599,809.158 					"/>
					<polygon class="st3" points="73.394,809.158 35.599,809.158 54.496,841.89 					"/>
					<polygon class="st3" points="54.496,841.89 92.292,841.89 73.394,809.158 					"/>
					<polygon class="st3" points="111.189,809.158 73.394,809.158 92.292,841.89 					"/>
					<polygon class="st3" points="92.292,841.89 130.087,841.89 111.189,809.158 					"/>
					<polygon class="st3" points="148.985,809.158 111.189,809.158 130.087,841.89 					"/>
					<polygon class="st3" points="130.087,841.89 167.882,841.89 148.985,809.158 					"/>
					<polygon class="st3" points="186.78,809.158 148.985,809.158 167.882,841.89 					"/>
					<polygon class="st3" points="167.882,841.89 205.677,841.89 186.78,809.158 					"/>
					<polygon class="st3" points="224.575,809.158 186.78,809.158 205.677,841.89 					"/>
					<polygon class="st3" points="205.677,841.89 243.473,841.89 224.575,809.158 					"/>
					<polygon class="st3" points="262.37,809.158 224.575,809.158 243.473,841.89 					"/>
					<polygon class="st3" points="243.473,841.89 281.268,841.89 262.37,809.158 					"/>
					<polygon class="st3" points="300.166,809.158 262.37,809.158 281.268,841.89 					"/>
				</g>
				<g>
					<polygon class="st4" points="92.292,776.427 130.087,776.427 111.189,809.158 					"/>
					<polygon class="st4" points="224.575,809.158 186.78,809.158 205.677,776.427 					"/>
					<polygon class="st4" points="205.677,776.427 243.473,776.427 224.575,809.158 					"/>
					<polygon class="st4" points="300.166,809.158 262.37,809.158 281.268,776.427 					"/>
					<polygon class="st4" points="-21.094,841.89 16.701,841.89 -2.197,809.158 					"/>
					<polygon class="st4" points="16.701,841.89 54.496,841.89 35.599,809.158 					"/>
					<polygon class="st4" points="92.292,841.89 130.087,841.89 111.189,809.158 					"/>
					<polygon class="st4" points="148.985,809.158 111.189,809.158 130.087,841.89 					"/>
					<polygon class="st4" points="167.882,841.89 205.677,841.89 186.78,809.158 					"/>
					<polygon class="st4" points="224.575,809.158 186.78,809.158 205.677,841.89 					"/>
					<polygon class="st4" points="262.37,809.158 224.575,809.158 243.473,841.89 					"/>
				</g>
				<g>
					<polygon class="st3" points="281.268,710.963 319.063,710.963 300.166,743.695 					"/>
					<polygon class="st3" points="337.961,743.695 300.166,743.695 319.063,710.963 					"/>
					<polygon class="st3" points="319.063,710.963 356.859,710.963 337.961,743.695 					"/>
					<polygon class="st3" points="375.756,743.695 337.961,743.695 356.859,710.963 					"/>
					<polygon class="st3" points="356.859,710.963 394.654,710.963 375.756,743.695 					"/>
					<polygon class="st3" points="413.551,743.695 375.756,743.695 394.654,710.963 					"/>
					<polygon class="st3" points="394.654,710.963 432.449,710.963 413.551,743.695 					"/>
					<polygon class="st3" points="451.347,743.695 413.551,743.695 432.449,710.963 					"/>
					<polygon class="st3" points="432.449,710.963 470.244,710.963 451.347,743.695 					"/>
					<polygon class="st3" points="489.142,743.695 451.347,743.695 470.244,710.963 					"/>
					<polygon class="st3" points="470.244,710.963 508.04,710.963 489.142,743.695 					"/>
					<polygon class="st3" points="526.937,743.695 489.142,743.695 508.04,710.963 					"/>
					<polygon class="st3" points="508.04,710.963 545.835,710.963 526.937,743.695 					"/>
					<polygon class="st3" points="564.733,743.695 526.937,743.695 545.835,710.963 					"/>
					<polygon class="st3" points="545.835,710.963 583.63,710.963 564.733,743.695 					"/>
					<polygon class="st3" points="602.528,743.695 564.733,743.695 583.63,710.963 					"/>
					<polygon class="st3" points="281.268,776.427 319.063,776.427 300.166,743.695 					"/>
					<polygon class="st3" points="337.961,743.695 300.166,743.695 319.063,776.427 					"/>
					<polygon class="st3" points="319.063,776.427 356.859,776.427 337.961,743.695 					"/>
					<polygon class="st3" points="375.756,743.695 337.961,743.695 356.859,776.427 					"/>
					<polygon class="st3" points="356.859,776.427 394.654,776.427 375.756,743.695 					"/>
					<polygon class="st3" points="413.551,743.695 375.756,743.695 394.654,776.427 					"/>
					<polygon class="st3" points="394.654,776.427 432.449,776.427 413.551,743.695 					"/>
					<polygon class="st3" points="451.347,743.695 413.551,743.695 432.449,776.427 					"/>
					<polygon class="st3" points="432.449,776.427 470.244,776.427 451.347,743.695 					"/>
					<polygon class="st3" points="489.142,743.695 451.347,743.695 470.244,776.427 					"/>
					<polygon class="st3" points="470.244,776.427 508.04,776.427 489.142,743.695 					"/>
					<polygon class="st3" points="526.937,743.695 489.142,743.695 508.04,776.427 					"/>
					<polygon class="st3" points="508.04,776.427 545.835,776.427 526.937,743.695 					"/>
					<polygon class="st3" points="564.733,743.695 526.937,743.695 545.835,776.427 					"/>
					<polygon class="st3" points="545.835,776.427 583.63,776.427 564.733,743.695 					"/>
					<polygon class="st3" points="602.528,743.695 564.733,743.695 583.63,776.427 					"/>
				</g>
				<g>
					<polygon class="st3" points="281.268,776.427 319.063,776.427 300.166,809.158 					"/>
					<polygon class="st3" points="337.961,809.158 300.166,809.158 319.063,776.427 					"/>
					<polygon class="st3" points="319.063,776.427 356.859,776.427 337.961,809.158 					"/>
					<polygon class="st3" points="375.756,809.158 337.961,809.158 356.859,776.427 					"/>
					<polygon class="st3" points="356.859,776.427 394.654,776.427 375.756,809.158 					"/>
					<polygon class="st3" points="413.551,809.158 375.756,809.158 394.654,776.427 					"/>
					<polygon class="st3" points="394.654,776.427 432.449,776.427 413.551,809.158 					"/>
					<polygon class="st3" points="451.347,809.158 413.551,809.158 432.449,776.427 					"/>
					<polygon class="st3" points="432.449,776.427 470.244,776.427 451.347,809.158 					"/>
					<polygon class="st3" points="489.142,809.158 451.347,809.158 470.244,776.427 					"/>
					<polygon class="st3" points="470.244,776.427 508.04,776.427 489.142,809.158 					"/>
					<polygon class="st3" points="526.937,809.158 489.142,809.158 508.04,776.427 					"/>
					<polygon class="st3" points="508.04,776.427 545.835,776.427 526.937,809.158 					"/>
					<polygon class="st3" points="564.733,809.158 526.937,809.158 545.835,776.427 					"/>
					<polygon class="st3" points="545.835,776.427 583.63,776.427 564.733,809.158 					"/>
					<polygon class="st3" points="602.528,809.158 564.733,809.158 583.63,776.427 					"/>
					<polygon class="st3" points="281.268,841.89 319.063,841.89 300.166,809.158 					"/>
					<polygon class="st3" points="337.961,809.158 300.166,809.158 319.063,841.89 					"/>
					<polygon class="st3" points="319.063,841.89 356.859,841.89 337.961,809.158 					"/>
					<polygon class="st3" points="375.756,809.158 337.961,809.158 356.859,841.89 					"/>
					<polygon class="st3" points="356.859,841.89 394.654,841.89 375.756,809.158 					"/>
					<polygon class="st3" points="413.551,809.158 375.756,809.158 394.654,841.89 					"/>
					<polygon class="st3" points="394.654,841.89 432.449,841.89 413.551,809.158 					"/>
					<polygon class="st3" points="451.347,809.158 413.551,809.158 432.449,841.89 					"/>
					<polygon class="st3" points="432.449,841.89 470.244,841.89 451.347,809.158 					"/>
					<polygon class="st3" points="489.142,809.158 451.347,809.158 470.244,841.89 					"/>
					<polygon class="st3" points="470.244,841.89 508.04,841.89 489.142,809.158 					"/>
					<polygon class="st3" points="526.937,809.158 489.142,809.158 508.04,841.89 					"/>
					<polygon class="st3" points="508.04,841.89 545.835,841.89 526.937,809.158 					"/>
					<polygon class="st3" points="564.733,809.158 526.937,809.158 545.835,841.89 					"/>
					<polygon class="st3" points="545.835,841.89 583.63,841.89 564.733,809.158 					"/>
					<polygon class="st3" points="602.528,809.158 564.733,809.158 583.63,841.89 					"/>
				</g>
				<g>
					<polygon class="st4" points="281.268,710.963 319.063,710.963 300.166,743.695 					"/>
					<polygon class="st4" points="375.756,743.695 337.961,743.695 356.859,710.963 					"/>
					<polygon class="st4" points="413.551,743.695 375.756,743.695 394.654,710.963 					"/>
					<polygon class="st4" points="394.654,710.963 432.449,710.963 413.551,743.695 					"/>
					<polygon class="st4" points="564.733,743.695 526.937,743.695 545.835,710.963 					"/>
					<polygon class="st4" points="281.268,776.427 319.063,776.427 300.166,743.695 					"/>
					<polygon class="st4" points="337.961,743.695 300.166,743.695 319.063,776.427 					"/>
					<polygon class="st4" points="356.859,776.427 394.654,776.427 375.756,743.695 					"/>
					<polygon class="st4" points="413.551,743.695 375.756,743.695 394.654,776.427 					"/>
					<polygon class="st4" points="489.142,743.695 451.347,743.695 470.244,776.427 					"/>
					<polygon class="st4" points="508.04,776.427 545.835,776.427 526.937,743.695 					"/>
					<polygon class="st4" points="564.733,743.695 526.937,743.695 545.835,776.427 					"/>
					<polygon class="st4" points="470.244,776.427 508.04,776.427 489.142,743.695 					"/>
				</g>
				<g>
					<polygon class="st4" points="281.268,776.427 319.063,776.427 300.166,809.158 					"/>
					<polygon class="st4" points="319.063,776.427 356.859,776.427 337.961,809.158 					"/>
					<polygon class="st4" points="375.756,809.158 337.961,809.158 356.859,776.427 					"/>
					<polygon class="st4" points="394.654,776.427 432.449,776.427 413.551,809.158 					"/>
					<polygon class="st4" points="526.937,809.158 489.142,809.158 508.04,776.427 					"/>
					<polygon class="st4" points="545.835,776.427 583.63,776.427 564.733,809.158 					"/>
					<polygon class="st4" points="356.859,841.89 394.654,841.89 375.756,809.158 					"/>
					<polygon class="st4" points="470.244,841.89 508.04,841.89 489.142,809.158 					"/>
					<polygon class="st4" points="526.937,809.158 489.142,809.158 508.04,841.89 					"/>
					<polygon class="st4" points="545.835,841.89 583.63,841.89 564.733,809.158 					"/>
					<polygon class="st4" points="602.528,809.158 564.733,809.158 583.63,841.89 					"/>
				</g>
			</g>
		</g>
	</g>
</g>
</svg>
