<?xml version="1.0" encoding="utf-8"?>
<!-- Generator: Adobe Illustrator 21.1.0, SVG Export Plug-In . SVG Version: 6.00 Build 0)  -->
<svg version="1.1" id="Layer_1" xmlns="http://www.w3.org/2000/svg" xmlns:xlink="http://www.w3.org/1999/xlink" x="0px" y="0px"
	 width="8.27in" height="11.69in" viewBox="0 0 595.3 841.9" style="enable-background:new 0 0 595.3 841.9;" xml:space="preserve">
 <style type="text/css">.st0{fill:#1825AA;}
	.st1{fill:none;stroke:#1825AA;stroke-width:2;stroke-miterlimit:10;}
	.st2{fill:#181919;}
	.st3{fill:#FFFFFF;}
	.st4{fill:#5793BC;}
	.st5{fill:#65AADC;}
	.st6{fill:#5DC8E5;}
	.st7{fill:#53C5E7;}
	.st8{fill:#01ACD7;}
	.st9{fill:#3A85B9;}
	.st10{fill:#ECE6F6;}
	.st11{fill:none;stroke:#1825AA;stroke-width:0.75;stroke-miterlimit:10;}
	.st12{clip-path:url(#SVGID_46_);fill:none;stroke:#FFFFFF;stroke-width:0.25;stroke-linejoin:bevel;stroke-miterlimit:10;}
	.st13{clip-path:url(#SVGID_46_);}
	.st14{fill:none;stroke:#FFFFFF;stroke-width:0.25;stroke-linejoin:bevel;stroke-miterlimit:10;}
	.st15{clip-path:url(#SVGID_48_);fill:none;stroke:#FFFFFF;stroke-width:0.2099;stroke-linejoin:bevel;stroke-miterlimit:10;}
	.st16{clip-path:url(#SVGID_48_);}
	.st17{fill:none;stroke:#FFFFFF;stroke-width:0.2099;stroke-linejoin:bevel;stroke-miterlimit:10;}
	.st18{clip-path:url(#SVGID_50_);fill:none;stroke:#FFFFFF;stroke-width:0.2099;stroke-linejoin:bevel;stroke-miterlimit:10;}
	.st19{clip-path:url(#SVGID_50_);}
	.st20{clip-path:url(#SVGID_52_);fill:none;stroke:#FFFFFF;stroke-width:0.25;stroke-linejoin:bevel;stroke-miterlimit:10;}
	.st21{clip-path:url(#SVGID_52_);}
	.st22{clip-path:url(#SVGID_54_);fill:none;stroke:#FFFFFF;stroke-width:0.25;stroke-linejoin:bevel;stroke-miterlimit:10;}
	.st23{clip-path:url(#SVGID_54_);}
	.st24{clip-path:url(#SVGID_56_);}
	.st25{clip-path:url(#SVGID_58_);fill:none;stroke:#FFFFFF;stroke-width:0.25;stroke-linejoin:bevel;stroke-miterlimit:10;}
	.st26{clip-path:url(#SVGID_58_);}
	.st27{clip-path:url(#SVGID_60_);fill:none;stroke:#FFFFFF;stroke-width:0.2099;stroke-linejoin:bevel;stroke-miterlimit:10;}
	.st28{clip-path:url(#SVGID_60_);}
	.st29{clip-path:url(#SVGID_62_);fill:none;stroke:#FFFFFF;stroke-width:0.2099;stroke-linejoin:bevel;stroke-miterlimit:10;}
	.st30{clip-path:url(#SVGID_62_);}</style>
 <g>
  <title>background</title>
  <rect fill="none" id="canvas_background" height="402" width="582" y="-1" x="-1"/>
 </g>
 <g>
  <title>Layer 1</title>
  <rect id="svg_1" height="101.3" width="613.3" class="st0" y="-9" x="-9"/>
  <g id="svg_2">
   <defs>
    <rect height="101.6" width="387.7" y="-9" x="216.6" id="SVGID_55_"/>
   </defs>
   <clipPath id="SVGID_2_">
    <use id="svg_3" xlink:href="#SVGID_55_"/>
   </clipPath>
   <g id="svg_4" clip-path="url(#SVGID_2_)">
    <line id="svg_5" y2="29.2" x2="693.8" y1="29.2" x1="143.3" class="st14"/>
    <line id="svg_6" y2="60.9" x2="693.8" y1="60.9" x1="143.3" class="st14"/>
    <line id="svg_7" y2="92.6" x2="693.8" y1="92.6" x1="143.3" class="st14"/>
    <g id="svg_8">
     <g id="svg_9">
      <line id="svg_10" y2="124.6" x2="564.1" y1="-97.7" x1="692.5" class="st14"/>
      <line id="svg_11" y2="124.6" x2="527.5" y1="-97.7" x1="655.9" class="st14"/>
      <line id="svg_12" y2="124.1" x2="491" y1="-97.7" x1="619.1" class="st14"/>
      <line id="svg_13" y2="124.4" x2="454.3" y1="-97.7" x1="582.6" class="st14"/>
      <line id="svg_14" y2="124.6" x2="417.7" y1="-97.7" x1="546.1" class="st14"/>
      <line id="svg_15" y2="124.6" x2="381.1" y1="-97.7" x1="509.5" class="st14"/>
      <line id="svg_16" y2="124.6" x2="344.5" y1="-97.7" x1="472.9" class="st14"/>
      <line id="svg_17" y2="124.1" x2="308" y1="-97.7" x1="436.1" class="st14"/>
      <line id="svg_18" y2="124.6" x2="271.3" y1="-97.7" x1="399.6" class="st14"/>
      <line id="svg_19" y2="124.6" x2="234.7" y1="-97.7" x1="363" class="st14"/>
      <line id="svg_20" y2="124.6" x2="198.1" y1="-97.7" x1="326.4" class="st14"/>
      <line id="svg_21" y2="124.6" x2="161.5" y1="-97.7" x1="289.8" class="st14"/>
      <line id="svg_22" y2="124.6" x2="124.9" y1="-97.7" x1="253.2" class="st14"/>
      <line id="svg_23" y2="124.6" x2="88.3" y1="-97.7" x1="216.6" class="st14"/>
     </g>
     <g id="svg_24">
      <line id="svg_25" y2="124.4" x2="271.5" y1="-97.7" x1="143.3" class="st14"/>
      <line id="svg_26" y2="124.4" x2="234.9" y1="-97.7" x1="106.7" class="st14"/>
      <line id="svg_27" y2="124.1" x2="308" y1="-97.7" x1="179.9" class="st14"/>
      <line id="svg_28" y2="124.4" x2="344.7" y1="-97.7" x1="216.5" class="st14"/>
      <line id="svg_29" y2="124.4" x2="381.3" y1="-97.7" x1="253.1" class="st14"/>
      <line id="svg_30" y2="124.4" x2="417.9" y1="-97.7" x1="289.7" class="st14"/>
      <line id="svg_31" y2="124.3" x2="454.5" y1="-97.7" x1="326.3" class="st14"/>
      <line id="svg_32" y2="124.1" x2="491" y1="-97.7" x1="362.9" class="st14"/>
      <line id="svg_33" y2="124.4" x2="527.7" y1="-97.7" x1="399.5" class="st14"/>
      <line id="svg_34" y2="124.4" x2="564.3" y1="-97.7" x1="436.1" class="st14"/>
      <line id="svg_35" y2="124.1" x2="600.8" y1="-97.7" x1="472.7" class="st14"/>
      <line id="svg_36" y2="124.4" x2="637.5" y1="-97.7" x1="509.3" class="st14"/>
      <line id="svg_37" y2="124.1" x2="674" y1="-97.7" x1="545.9" class="st14"/>
      <line id="svg_38" y2="124.4" x2="710.7" y1="-97.7" x1="582.5" class="st14"/>
     </g>
    </g>
   </g>
   <g id="svg_39" clip-path="url(#SVGID_2_)">
    <polygon id="svg_40" points="216.5,29.2 253.1,29.2 308,-65.9 271.4,-65.9   " class="st3"/>
    <polygon id="svg_41" points="234.7,124.6 271.2,124.6 308.1,60.8 271.5,60.8   " class="st3"/>
    <polygon id="svg_42" points="417.9,60.9 454.5,60.9 491,-2.5 454.4,-2.5   " class="st3"/>
    <polygon id="svg_43" points="509.3,29.2 545.9,29.2 582.5,-34.2 545.9,-34.2   " class="st3"/>
    <polygon id="svg_44" points="307.9,124.3 344.7,124.3 399.6,29.2 362.8,29.2   " class="st3"/>
    <polygon id="svg_45" points="271.5,60.9 289.8,29.2 253.2,29.2   " class="st3"/>
    <polygon id="svg_46" points="399.6,92.6 417.9,60.9 381.3,60.9   " class="st3"/>
    <polygon id="svg_47" points="564.3,60.9 582.6,29.2 546,29.2   " class="st3"/>
    <polygon id="svg_48" points="417.9,-2.5 399.5,-34.3 381.2,-2.5 399.6,29.2   " class="st3"/>
    <polygon id="svg_49" points="509.4,29.1 472.7,29.1 491,60.9 527.7,60.9   " class="st3"/>
    <polygon id="svg_50" points="344.7,-2.5 326.4,29.2 363,29.2   " class="st3"/>
    <polygon id="svg_51" points="527.7,60.9 509.4,92.6 546,92.6   " class="st3"/>
   </g>
  </g>
  <g id="svg_52">
   <defs>
    <rect height="135.6" width="387.7" y="-9" x="-424.4" id="SVGID_57_"/>
   </defs>
   <clipPath id="SVGID_4_">
    <use id="svg_53" xlink:href="#SVGID_57_"/>
   </clipPath>
   <line id="svg_54" clip-path="url(#SVGID_4_)" fill="none" stroke="#FFFFFF" stroke-width="0.25" stroke-linejoin="bevel" stroke-miterlimit="10" y2="31.5" x2="52.8" y1="31.5" x1="-497.6"/>
   <line id="svg_55" clip-path="url(#SVGID_4_)" fill="none" stroke="#FFFFFF" stroke-width="0.25" stroke-linejoin="bevel" stroke-miterlimit="10" y2="63.2" x2="52.8" y1="63.2" x1="-497.6"/>
   <line id="svg_56" clip-path="url(#SVGID_4_)" fill="none" stroke="#FFFFFF" stroke-width="0.25" stroke-linejoin="bevel" stroke-miterlimit="10" y2="94.9" x2="52.8" y1="94.9" x1="-497.6"/>
   <line id="svg_57" clip-path="url(#SVGID_4_)" fill="none" stroke="#FFFFFF" stroke-width="0.25" stroke-linejoin="bevel" stroke-miterlimit="10" y2="126.6" x2="52.8" y1="126.6" x1="-497.6"/>
   <g id="svg_58" clip-path="url(#SVGID_4_)">
    <g id="svg_59">
     <line id="svg_60" y2="158.1" x2="-40.1" y1="-63.7" x1="88" class="st14"/>
     <line id="svg_61" y2="158.6" x2="-76.9" y1="-63.7" x1="51.5" class="st14"/>
     <line id="svg_62" y2="158.6" x2="-113.5" y1="-63.7" x1="14.9" class="st14"/>
    </g>
    <g id="svg_63">
     <line id="svg_64" y2="158.1" x2="33" y1="-63.7" x1="-95.1" class="st14"/>
     <line id="svg_65" y2="158.4" x2="69.8" y1="-63.7" x1="-58.5" class="st14"/>
     <line id="svg_66" y2="158.4" x2="106.4" y1="-63.7" x1="-21.9" class="st14"/>
    </g>
   </g>
   <g id="svg_67" clip-path="url(#SVGID_4_)">
    <polygon id="svg_68" points="179.5,158.6 216.1,158.6 252.9,94.9 216.3,94.9   " class="st3"/>
   </g>
  </g>
  <rect id="svg_69" height="60.7" width="613.3" class="st0" y="790.2" x="-9"/>
  <g id="svg_70">
   <defs>
    <rect height="60.7" width="387.8" y="790.2" x="216.5" id="SVGID_59_"/>
   </defs>
   <clipPath id="SVGID_6_">
    <use id="svg_71" xlink:href="#SVGID_59_"/>
   </clipPath>
   <line id="svg_72" clip-path="url(#SVGID_6_)" fill="none" stroke="#FFFFFF" stroke-width="0.2099" stroke-linejoin="bevel" stroke-miterlimit="10" y2="763.5" x2="807.7" y1="763.5" x1="155.5"/>
   <line id="svg_73" clip-path="url(#SVGID_6_)" fill="none" stroke="#FFFFFF" stroke-width="0.2099" stroke-linejoin="bevel" stroke-miterlimit="10" y2="789.9" x2="807.7" y1="789.9" x1="155.5"/>
   <line id="svg_74" clip-path="url(#SVGID_6_)" fill="none" stroke="#FFFFFF" stroke-width="0.2099" stroke-linejoin="bevel" stroke-miterlimit="10" y2="816.2" x2="807.7" y1="816.2" x1="155.5"/>
   <g id="svg_75" clip-path="url(#SVGID_6_)">
    <g id="svg_76">
     <line id="svg_77" y2="895.6" x2="566.2" y1="710.8" x1="672.9" class="st17"/>
     <line id="svg_78" y2="895.2" x2="535.8" y1="710.8" x1="642.3" class="st17"/>
     <line id="svg_79" y2="895.6" x2="505.3" y1="710.8" x1="612" class="st17"/>
     <line id="svg_80" y2="895.6" x2="474.9" y1="710.8" x1="581.6" class="st17"/>
     <line id="svg_81" y2="895.2" x2="444.6" y1="710.8" x1="551" class="st17"/>
     <line id="svg_82" y2="895.4" x2="414.1" y1="710.8" x1="520.7" class="st17"/>
     <line id="svg_83" y2="895.6" x2="383.6" y1="710.8" x1="490.3" class="st17"/>
     <line id="svg_84" y2="895.6" x2="353.2" y1="710.8" x1="459.9" class="st17"/>
     <line id="svg_85" y2="895.6" x2="322.8" y1="710.8" x1="429.5" class="st17"/>
     <line id="svg_86" y2="895.2" x2="292.5" y1="710.8" x1="398.9" class="st17"/>
     <line id="svg_87" y2="895.6" x2="261.9" y1="710.8" x1="368.6" class="st17"/>
     <line id="svg_88" y2="895.6" x2="231.5" y1="710.8" x1="338.2" class="st17"/>
     <line id="svg_89" y2="895.6" x2="201.1" y1="710.8" x1="307.8" class="st17"/>
     <line id="svg_90" y2="895.6" x2="170.6" y1="710.8" x1="277.3" class="st17"/>
     <line id="svg_91" y2="895.6" x2="140.2" y1="710.8" x1="246.9" class="st17"/>
     <line id="svg_92" y2="895.6" x2="109.8" y1="710.8" x1="216.5" class="st17"/>
    </g>
    <line id="svg_93" y2="737.2" x2="807.7" y1="737.2" x1="155.5" class="st17"/>
    <g id="svg_94">
     <line id="svg_95" y2="895.4" x2="262.1" y1="710.8" x1="155.5" class="st17"/>
     <line id="svg_96" y2="895.4" x2="231.7" y1="710.8" x1="125.1" class="st17"/>
     <line id="svg_97" y2="895.2" x2="292.4" y1="710.8" x1="186" class="st17"/>
     <line id="svg_98" y2="895.4" x2="323" y1="710.8" x1="216.4" class="st17"/>
     <line id="svg_99" y2="895.4" x2="353.4" y1="710.8" x1="246.8" class="st17"/>
     <line id="svg_100" y2="895.4" x2="383.8" y1="710.8" x1="277.2" class="st17"/>
     <line id="svg_101" y2="895.3" x2="414.2" y1="710.8" x1="307.6" class="st17"/>
     <line id="svg_102" y2="895.2" x2="444.5" y1="710.8" x1="338.1" class="st17"/>
     <line id="svg_103" y2="895.4" x2="475.1" y1="710.8" x1="368.5" class="st17"/>
     <line id="svg_104" y2="895.4" x2="505.5" y1="710.8" x1="398.9" class="st17"/>
     <line id="svg_105" y2="895.2" x2="535.8" y1="710.8" x1="429.3" class="st17"/>
     <line id="svg_106" y2="895.4" x2="566.3" y1="710.8" x1="459.7" class="st17"/>
     <line id="svg_107" y2="895.2" x2="596.6" y1="710.8" x1="490.2" class="st17"/>
     <line id="svg_108" y2="895.4" x2="627.2" y1="710.8" x1="520.6" class="st17"/>
     <line id="svg_109" y2="895.4" x2="657.6" y1="710.8" x1="551" class="st17"/>
     <line id="svg_110" y2="895.4" x2="688" y1="710.8" x1="581.4" class="st17"/>
    </g>
   </g>
   <g id="svg_111" clip-path="url(#SVGID_6_)">
    <polygon id="svg_112" points="216.4,816.2 246.8,816.2 292.4,737.2 262,737.2   " class="st3"/>
    <polygon id="svg_113" points="292.5,789.9 322.9,789.9 368.5,710.9 338.1,710.9   " class="st3"/>
    <polygon id="svg_114" points="383.8,842.6 414.2,842.6 444.6,789.9 414.2,789.9   " class="st3"/>
    <polygon id="svg_115" points="459.8,816.3 490.2,816.3 520.6,763.6 490.2,763.6   " class="st3"/>
    <polygon id="svg_116" points="368.5,763.6 398.9,763.6 429.3,710.8 398.9,710.8   " class="st3"/>
    <polygon id="svg_117" points="292.4,895.3 322.9,895.3 368.6,816.2 338,816.2   " class="st3"/>
    <polygon id="svg_118" points="262.1,842.6 277.3,816.2 246.9,816.2   " class="st3"/>
    <polygon id="svg_119" points="414.2,789.9 429.4,763.5 399,763.5   " class="st3"/>
    <polygon id="svg_120" points="505.5,842.6 520.7,816.2 490.3,816.2   " class="st3"/>
    <polygon id="svg_121" points="383.8,789.9 368.5,763.5 353.3,789.9 368.5,816.3   " class="st3"/>
    <polygon id="svg_122" points="475,737.1 459.7,710.7 444.5,737.1 459.8,763.5   " class="st3"/>
    <polygon id="svg_123" points="459.8,816.2 429.3,816.2 444.6,842.6 475.1,842.6   " class="st3"/>
    <polygon id="svg_124" points="322.9,789.9 307.7,816.2 338.1,816.2   " class="st3"/>
    <polygon id="svg_125" points="459.7,763.6 444.5,789.9 475,789.9   " class="st3"/>
   </g>
   <g id="svg_126" clip-path="url(#SVGID_6_)">
    <polygon id="svg_127" points="535.9,789.9 566.3,789.9 611.9,710.9 581.5,710.9   " class="st3"/>
    <polygon id="svg_128" points="535.8,895.3 566.3,895.3 612,816.2 581.4,816.2   " class="st3"/>
    <polygon id="svg_129" points="566.3,789.9 551.1,816.2 581.5,816.2   " class="st3"/>
   </g>
  </g>
  <g id="svg_130">
   <rect id="svg_131" height="27.9" width="13.9" class="st3" y="47" x="42.2"/>
   <polygon id="svg_132" points="71.8,74.9 87.2,74.9 71.8,48.1  " class="st3"/>
   <polygon id="svg_133" points="71.6,46.1 89,46.1 73.2,18.6 64.4,33.7  " class="st3"/>
   <polygon id="svg_134" points="57.3,46.1 70.6,46.1 63.9,34.6  " class="st3"/>
   <polygon id="svg_135" points="33.3,18.2 41.8,32.9 50.3,18.2  " class="st3"/>
   <polygon id="svg_136" points="42.2,46.1 56.1,46.1 56.1,33.6 65,18.2 51.3,18.2 42.2,33.9  " class="st3"/>
   <path id="svg_137" d="m72.1,47l7.6,13.2c2.8,-0.9 4.8,-3.5 4.8,-6.5c0,-3.7 -3,-6.8 -6.8,-6.8l-5.6,0l0,0.1z" class="st3"/>
   <path id="svg_138" d="m57,47l0,27.9c7.7,0 13.9,-6.3 13.9,-14s-6.2,-13.9 -13.9,-13.9" class="st3"/>
   <path id="svg_139" d="m98.1,47c-7.7,0 -14,6.3 -14,14s6.3,14 14,14c7.7,0 14,-6.3 14,-14s-6.3,-14 -14,-14" class="st3"/>
  </g>
 </g>
</svg>