<svg width="17" height="17" viewBox="0 0 17 17" fill="none" xmlns="http://www.w3.org/2000/svg">
<path d="M12.8815 7.62932C12.8678 8.65212 12.551 9.64787 11.9712 10.4906C11.3915 11.3333 10.5748 11.9852 9.6245 12.3637C8.67421 12.7422 7.63301 12.8303 6.63261 12.617C5.63221 12.4036 4.71757 11.8984 4.00439 11.1651C3.2912 10.4318 2.81152 9.5035 2.62603 8.49756C2.44054 7.49163 2.55757 6.45328 2.96231 5.51386C3.36705 4.57445 4.04133 3.77619 4.89983 3.22005C5.75834 2.66392 6.7625 2.37491 7.78529 2.38958C9.15373 2.41541 10.4567 2.98028 11.4109 3.96143C12.3652 4.94257 12.8937 6.2607 12.8815 7.62932ZM13.8495 7.6432C13.8669 6.42917 13.5239 5.23724 12.8639 4.21813C12.2039 3.19903 11.2565 2.39852 10.1416 1.91784C9.02659 1.43716 7.79414 1.2979 6.60004 1.51767C5.40593 1.73744 4.30382 2.30636 3.43305 3.1525C2.56229 3.99864 1.96199 5.08398 1.70806 6.27129C1.45414 7.4586 1.55799 8.69454 2.0065 9.82283C2.455 10.9511 3.228 11.9211 4.22776 12.61C5.22752 13.299 6.40912 13.676 7.62315 13.6934C9.25112 13.7168 10.8217 13.0925 11.9893 11.9578C13.157 10.8232 13.8261 9.27117 13.8495 7.6432Z" fill="black"/>
<path d="M16.5278 15.7208L13.0475 12.2169L12.377 12.8828L15.8572 16.3867C15.901 16.4307 15.9529 16.4657 16.0102 16.4896C16.0674 16.5136 16.1288 16.526 16.1908 16.5262C16.2529 16.5265 16.3144 16.5145 16.3718 16.4909C16.4292 16.4674 16.4814 16.4328 16.5254 16.389C16.5695 16.3453 16.6044 16.2933 16.6284 16.2361C16.6523 16.1789 16.6648 16.1175 16.665 16.0554C16.6652 15.9934 16.6532 15.9319 16.6297 15.8745C16.6061 15.8171 16.5715 15.7649 16.5278 15.7208Z" fill="black"/>
</svg>
